<svg width="299" height="290" viewBox="0 0 299 290" fill="none" xmlns="http://www.w3.org/2000/svg">
<path d="M96.6297 137.417L127.582 150.126L96.928 136.543C95.9584 136.146 95.138 135.828 94.9888 136.225C94.8396 136.543 95.6601 137.02 96.6297 137.417Z" fill="url(#paint0_radial_44_982)"/>
<path d="M105.505 130.824L129.447 149.49L105.953 130.109C105.207 129.474 104.536 129.077 104.312 129.315C104.088 129.712 104.685 130.268 105.505 130.824Z" fill="url(#paint1_radial_44_982)"/>
<path d="M130.938 148.219L108.638 108.981C107.966 107.71 107.221 106.757 106.848 107.075C106.4 107.313 106.922 108.425 107.668 109.696L130.938 148.219Z" fill="url(#paint2_radial_44_982)"/>
<path d="M132.803 149.57L123.555 122.961C123.256 122.087 122.958 121.452 122.66 121.531C122.361 121.611 122.585 122.405 122.883 123.199L132.803 149.57Z" fill="url(#paint3_radial_44_982)"/>
<path d="M133.102 146.075L128.403 112.635C128.254 111.602 128.03 110.729 127.657 110.808C127.284 110.888 127.359 111.761 127.508 112.873L133.102 146.075Z" fill="url(#paint4_radial_44_982)"/>
<path d="M143.767 100.482C144.066 98.9733 144.14 97.7818 143.693 97.623C143.171 97.5435 142.872 98.735 142.574 100.244L134.892 147.187L143.767 100.482Z" fill="url(#paint5_radial_44_982)"/>
<path d="M152.27 117.401C152.792 116.448 153.09 115.653 152.792 115.494C152.494 115.336 151.971 116.05 151.524 117.004L136.383 146.869L152.27 117.401Z" fill="url(#paint6_radial_44_982)"/>
<path d="M156.148 124.311C155.85 124.073 155.253 124.708 154.657 125.503L134.966 151.476L155.328 126.059C155.925 125.264 156.447 124.549 156.148 124.311Z" fill="url(#paint7_radial_44_982)"/>
<path d="M166.665 129.792C167.56 129.156 168.306 128.521 168.082 128.203C167.858 127.806 167.038 128.362 166.068 128.997L137.055 150.126L166.665 129.792Z" fill="url(#paint8_radial_44_982)"/>
<path d="M173.452 140.594C174.645 140.276 175.54 139.879 175.466 139.403C175.316 138.926 174.347 139.164 173.153 139.561L136.532 151.794L173.452 140.594Z" fill="url(#paint9_radial_44_982)"/>
<path d="M172.855 158.863L138.845 154.097L172.706 159.816C173.75 159.975 174.645 160.054 174.72 159.657C174.869 159.26 173.974 159.022 172.855 158.863Z" fill="url(#paint10_radial_44_982)"/>
<path d="M134.966 154.653L160.176 187.06C160.996 188.093 161.742 188.887 162.041 188.569C162.413 188.251 161.742 187.298 160.922 186.345L134.966 154.653Z" fill="url(#paint11_radial_44_982)"/>
<path d="M159.728 170.221C160.4 170.698 160.996 171.015 161.145 170.698C161.295 170.459 160.773 169.983 160.101 169.586L138.696 155.765L159.728 170.221Z" fill="url(#paint12_radial_44_982)"/>
<path d="M99.5384 161.325C99.6129 161.643 100.433 161.563 101.328 161.325L129.671 153.541L101.105 160.531C100.21 160.769 99.4638 161.007 99.5384 161.325Z" fill="url(#paint13_radial_44_982)"/>
<path d="M106.848 156.48L128.179 153.144L106.699 155.844C106.027 155.924 105.431 156.083 105.505 156.321C105.58 156.559 106.177 156.559 106.848 156.48Z" fill="url(#paint14_radial_44_982)"/>
<path d="M88.0525 147.584C86.8591 147.425 85.8149 147.425 85.7403 147.902C85.6658 148.378 86.7099 148.616 87.9779 148.696L126.836 151.714L88.0525 147.584Z" fill="url(#paint15_radial_44_982)"/>
<path d="M100.508 171.095C99.5386 171.651 98.7182 172.207 98.9419 172.604C99.1657 173.001 99.9861 172.604 101.03 171.969L131.908 153.382L100.508 171.095Z" fill="url(#paint16_radial_44_982)"/>
<path d="M120.646 188.569C120.273 189.602 120.049 190.475 120.348 190.634C120.721 190.793 121.094 189.919 121.466 188.887L132.729 155.844L120.646 188.569Z" fill="url(#paint17_radial_44_982)"/>
<path d="M133.624 156.718L139.068 191.587C139.218 192.699 139.441 193.573 139.814 193.494C140.187 193.414 140.113 192.461 139.889 191.349L133.624 156.718Z" fill="url(#paint18_radial_44_982)"/>
<path d="M135.936 158.466L143.469 178.72C143.693 179.355 143.916 179.832 144.14 179.753C144.364 179.673 144.215 179.117 143.916 178.482L135.936 158.466Z" fill="url(#paint19_radial_44_982)"/>
<path d="M112.591 175.622C112.069 176.258 111.696 176.814 111.845 176.973C112.069 177.211 112.516 176.734 113.113 176.099L129.596 156.4L112.591 175.622Z" fill="url(#paint20_radial_44_982)"/>
<path d="M129.969 181.897C130.193 181.897 130.342 181.341 130.417 180.547L133.027 157.433L129.894 180.467C129.745 181.262 129.745 181.897 129.969 181.897Z" fill="url(#paint21_radial_44_982)"/>
<path d="M165.322 149.093L140.485 152.111L165.397 149.808C166.217 149.728 166.814 149.57 166.814 149.331C166.814 149.014 166.142 149.014 165.322 149.093Z" fill="url(#paint22_radial_44_982)"/>
<path d="M169.126 165.773L142.276 156.798L168.902 166.567C169.723 166.885 170.469 167.044 170.543 166.726C170.692 166.408 170.021 166.091 169.126 165.773Z" fill="url(#paint23_radial_44_982)"/>
<path d="M110.055 131.221C109.384 130.586 108.712 130.109 108.563 130.427C108.339 130.665 108.936 131.301 109.607 131.936L131.983 151.396L110.055 131.221Z" fill="url(#paint24_radial_44_982)"/>
<path d="M134.071 150.205L134.22 119.863C134.22 118.91 134.146 118.116 133.848 118.116C133.549 118.116 133.475 118.91 133.475 119.943L134.071 150.205Z" fill="url(#paint25_radial_44_982)"/>
<path d="M163.905 139.403C164.651 139.085 165.247 138.767 165.098 138.449C165.024 138.132 164.352 138.37 163.607 138.688L140.485 149.411L163.905 139.403Z" fill="url(#paint26_radial_44_982)"/>
<path d="M180.239 152.747L136.309 152.906L180.239 153.938C181.656 153.938 182.775 153.859 182.775 153.303C182.85 152.906 181.656 152.747 180.239 152.747Z" fill="url(#paint27_radial_44_982)"/>
<path d="M100.285 154.653L131.759 152.508L100.21 153.7C99.2403 153.7 98.4199 153.859 98.4199 154.256C98.4199 154.653 99.3149 154.732 100.285 154.653Z" fill="url(#paint28_radial_44_982)"/>
<path d="M141.903 184.995C142.201 184.915 142.052 184.121 141.828 183.247L134.817 155.765L141.157 183.486C141.381 184.359 141.604 185.074 141.903 184.995Z" fill="url(#paint29_radial_44_982)"/>
<path d="M154.284 132.492C154.135 132.333 153.687 132.651 153.24 133.128L138.696 148.219L153.612 133.525C154.135 133.128 154.433 132.731 154.284 132.492Z" fill="url(#paint30_radial_44_982)"/>
<path d="M153.687 171.968C153.836 171.73 153.463 171.254 152.866 170.698L135.637 154.097L152.419 171.174C153.016 171.81 153.538 172.207 153.687 171.968Z" fill="url(#paint31_radial_44_982)"/>
<path d="M98.9418 166.488C99.0909 166.806 99.7622 166.567 100.583 166.25L126.463 155.13L100.284 165.535C99.4639 165.773 98.7926 166.17 98.9418 166.488Z" fill="url(#paint32_radial_44_982)"/>
<path d="M118.334 178.005L130.715 156.4L117.737 177.687C117.364 178.323 117.066 178.958 117.29 179.117C117.588 179.197 117.961 178.641 118.334 178.005Z" fill="url(#paint33_radial_44_982)"/>
<path d="M136.756 158.545L146.601 176.337C146.9 176.893 147.198 177.37 147.422 177.211C147.645 177.052 147.347 176.575 147.049 176.019L136.756 158.545Z" fill="url(#paint34_radial_44_982)"/>
<path d="M133.624 148.775L132.281 121.134C132.281 120.34 132.207 120.101 132.207 120.101C132.132 120.101 132.207 120.34 132.207 121.134L133.624 148.775Z" fill="url(#paint35_radial_44_982)"/>
<path d="M137.577 123.358C137.502 123.358 137.502 123.596 137.427 124.232L134.444 148.14L137.502 124.232C137.577 123.596 137.651 123.358 137.577 123.358Z" fill="url(#paint36_radial_44_982)"/>
<path d="M155.626 122.087C156.223 121.293 156.372 121.055 156.297 121.055C156.297 121.055 156.074 121.293 155.477 122.008L135.563 148.934L155.626 122.087Z" fill="url(#paint37_radial_44_982)"/>
<path d="M149.808 135.034L136.607 149.887L149.883 135.034C150.256 134.637 150.405 134.478 150.33 134.478C150.33 134.478 150.181 134.557 149.808 135.034Z" fill="url(#paint38_radial_44_982)"/>
<path d="M137.651 149.967L158.386 137.735C158.982 137.417 159.131 137.258 159.131 137.258C159.131 137.258 158.908 137.337 158.311 137.655L137.651 149.967Z" fill="url(#paint39_radial_44_982)"/>
<path d="M171.587 145.757C171.587 145.678 171.289 145.757 170.394 145.916L138.323 151.952L170.394 145.995C171.363 145.836 171.662 145.757 171.587 145.757Z" fill="url(#paint40_radial_44_982)"/>
<path d="M163.234 155.844C163.234 155.765 163.01 155.765 162.339 155.686L139.441 153.7L162.339 155.765C163.01 155.844 163.234 155.844 163.234 155.844Z" fill="url(#paint41_radial_44_982)"/>
<path d="M158.013 159.975C158.013 159.895 157.864 159.895 157.267 159.736L137.278 154.018L157.267 159.895C157.864 159.975 158.013 160.054 158.013 159.975Z" fill="url(#paint42_radial_44_982)"/>
<path d="M157.118 170.698C157.714 171.174 157.938 171.333 157.938 171.254C157.938 171.254 157.789 171.015 157.192 170.539L136.085 153.938L157.118 170.698Z" fill="url(#paint43_radial_44_982)"/>
<path d="M134.444 154.335L151.3 179.911C151.748 180.626 151.897 180.865 151.971 180.865C151.971 180.865 151.822 180.626 151.375 179.832L134.444 154.335Z" fill="url(#paint44_radial_44_982)"/>
<path d="M139.143 183.168L134.369 158.704L139.068 183.168C139.217 183.883 139.217 184.042 139.292 184.042C139.292 184.121 139.292 183.883 139.143 183.168Z" fill="url(#paint45_radial_44_982)"/>
<path d="M117.886 180.865C117.439 181.659 117.364 181.897 117.364 181.897C117.364 181.897 117.513 181.659 117.961 180.865L132.58 153.62L117.886 180.865Z" fill="url(#paint46_radial_44_982)"/>
<path d="M128.85 176.019C128.701 176.575 128.701 176.734 128.776 176.734C128.85 176.734 128.85 176.575 129 176.019L132.878 156.559L128.85 176.019Z" fill="url(#paint47_radial_44_982)"/>
<path d="M131.759 149.49L120.198 128.124C119.9 127.488 119.751 127.329 119.751 127.329C119.751 127.329 119.826 127.568 120.124 128.203L131.759 149.49Z" fill="url(#paint48_radial_44_982)"/>
<path d="M124.151 132.413C124.151 132.413 124.151 132.572 124.375 133.048L131.834 148.299L124.45 132.969C124.226 132.492 124.151 132.413 124.151 132.413Z" fill="url(#paint49_radial_44_982)"/>
<path d="M132.43 146.948L124.972 116.924C124.748 116.05 124.673 115.812 124.673 115.812C124.599 115.812 124.673 116.13 124.897 117.004L132.43 146.948Z" fill="url(#paint50_radial_44_982)"/>
<path d="M112.74 132.254C112.218 131.698 111.994 131.539 111.994 131.619C111.994 131.619 112.143 131.857 112.74 132.333L132.281 150.999L112.74 132.254Z" fill="url(#paint51_radial_44_982)"/>
<path d="M105.655 151.555C105.655 151.635 105.878 151.635 106.55 151.635L129.895 152.191L106.475 151.555C105.878 151.476 105.655 151.476 105.655 151.555Z" fill="url(#paint52_radial_44_982)"/>
<path d="M108.936 164.661L130.417 153.779L108.862 164.582C108.265 164.899 108.041 164.979 108.116 165.058C108.116 165.058 108.34 164.979 108.936 164.661Z" fill="url(#paint53_radial_44_982)"/>
<path d="M130.342 155.209L119.005 166.091C118.707 166.408 118.557 166.488 118.632 166.567C118.632 166.567 118.781 166.488 119.08 166.17L130.342 155.209Z" fill="url(#paint54_radial_44_982)"/>
<path d="M112.367 142.183C112.367 142.183 112.516 142.341 113.038 142.5L130.342 150.443L113.038 142.421C112.516 142.262 112.367 142.183 112.367 142.183Z" fill="url(#paint55_radial_44_982)"/>
<path d="M114.306 156.559C113.859 156.639 113.71 156.718 113.71 156.718C113.71 156.798 113.859 156.718 114.306 156.639L130.566 153.144L114.306 156.559Z" fill="url(#paint56_radial_44_982)"/>
<path d="M143.991 175.622C143.991 175.622 143.991 175.463 143.693 174.907L135.563 156.956L143.618 174.907C143.842 175.463 143.916 175.622 143.991 175.622Z" fill="url(#paint57_radial_44_982)"/>
<path d="M133.251 159.816L133.549 181.897C133.549 182.533 133.549 182.691 133.624 182.691C133.698 182.691 133.698 182.453 133.624 181.818L133.251 159.816Z" fill="url(#paint58_radial_44_982)"/>
<path d="M142.276 128.68C142.201 128.68 142.126 128.839 141.977 129.395L134.817 149.331L142.126 129.395C142.276 128.839 142.35 128.68 142.276 128.68Z" fill="url(#paint59_radial_44_982)"/>
<path d="M155.924 143.612C155.924 143.533 155.701 143.612 155.178 143.851L135.264 151.476L155.253 143.93C155.775 143.771 155.924 143.692 155.924 143.612Z" fill="url(#paint60_radial_44_982)"/>
<path d="M150.032 171.095C150.405 171.492 150.48 171.651 150.554 171.571C150.554 171.571 150.48 171.413 150.107 170.936L137.353 156.162L150.032 171.095Z" fill="url(#paint61_radial_44_982)"/>
<path d="M133.847 154.415L142.201 191.27C142.425 192.302 142.499 192.62 142.574 192.62C142.648 192.62 142.574 192.223 142.275 191.19L133.847 154.415Z" fill="url(#paint62_radial_44_982)"/>
<path d="M124.077 127.488C123.853 126.853 123.704 126.615 123.704 126.615C123.629 126.615 123.778 126.853 124.002 127.488L133.101 150.602L124.077 127.488Z" fill="url(#paint63_radial_44_982)"/>
<path d="M115.127 165.773C114.754 166.091 114.604 166.17 114.604 166.17C114.679 166.25 114.828 166.17 115.127 165.773Z" fill="url(#paint64_radial_44_982)"/>
<path d="M151.226 161.881L137.651 154.653L151.151 161.96C151.524 162.199 151.673 162.199 151.673 162.199C151.748 162.199 151.598 162.119 151.226 161.881Z" fill="url(#paint65_radial_44_982)"/>
<path d="M126.016 171.651C126.091 171.651 126.091 171.492 126.314 171.015L133.102 154.018L126.24 171.015C126.091 171.492 126.016 171.571 126.016 171.651Z" fill="url(#paint66_radial_44_982)"/>
<path d="M116.544 130.745C116.171 130.268 116.022 130.109 115.947 130.109C115.947 130.109 116.022 130.348 116.469 130.824L130.864 148.934L116.544 130.745Z" fill="url(#paint67_radial_44_982)"/>
<path d="M112.367 146.71C112.367 146.79 112.516 146.79 113.038 146.948L130.715 151.555L113.038 146.869C112.591 146.71 112.367 146.631 112.367 146.71Z" fill="url(#paint68_radial_44_982)"/>
<path d="M121.094 168.315C121.094 168.315 121.243 168.235 121.466 167.918L130.491 155.924L121.392 167.918C121.168 168.156 121.094 168.315 121.094 168.315Z" fill="url(#paint69_radial_44_982)"/>
<path d="M153.538 151.635C186.653 151.476 221.26 149.887 256.39 145.757C259.746 145.36 262.655 145.28 263.028 146.233C263.326 147.187 260.641 147.743 257.285 148.06C221.708 151.714 186.802 152.508 153.538 151.635Z" fill="#E28F20"/>
<path d="M149.51 155.606C178.971 164.105 211.49 169.744 245.575 170.856C248.857 170.936 251.616 171.254 251.691 172.048C251.765 172.842 249.006 172.922 245.799 172.842C211.49 171.254 178.896 164.899 149.51 155.606Z" fill="#E28F20"/>
<path d="M147.123 161.246C185.236 188.887 235.431 205.488 289.804 201.357C295.024 200.96 299.35 200.642 298.977 201.357C298.604 202.151 294.204 202.866 289.058 203.264C234.686 207.314 184.639 189.919 147.123 161.246Z" fill="#E28F20"/>
<path d="M140.187 159.657C160.25 181.421 185.907 198.498 215.07 208.188C217.83 209.141 220.142 209.936 219.62 210.571C219.097 211.127 216.711 210.571 213.951 209.618C185.087 199.53 159.728 181.977 140.187 159.657Z" fill="#E28F20"/>
<path d="M144.215 170.142C165.024 199.054 194.335 220.261 228.421 229.157C231.702 230.031 234.313 230.746 233.492 231.381C232.672 232.017 229.838 231.54 226.631 230.667C192.993 221.294 164.352 199.53 144.215 170.142Z" fill="#E28F20"/>
<path d="M137.651 169.109C152.121 217.164 182.849 251.556 222.454 261.644C226.258 262.597 229.092 263.391 227.451 264.186C225.735 264.98 222.305 264.583 218.65 263.471C180.313 252.351 150.927 217.481 137.651 169.109Z" fill="#E28F20"/>
<path d="M134.295 171.889C134.295 206.6 140.56 236.306 151.673 258.864C152.717 261.008 153.314 262.835 151.971 262.994C150.554 263.153 149.436 261.485 148.541 259.34C138.621 236.385 133.475 206.6 134.295 171.889Z" fill="#E28F20"/>
<path d="M132.281 156.559C124.673 190.793 121.615 221.612 122.436 248.141C122.51 250.683 122.287 252.748 120.944 252.668C119.602 252.589 119.303 250.444 119.303 247.982C119.751 221.214 123.853 190.475 132.281 156.559Z" fill="#E28F20"/>
<path d="M128.03 163.231C110.502 196.115 95.4363 227.172 82.8315 256.163C81.6381 258.943 80.2956 261.088 78.8785 260.611C77.4614 260.135 78.2818 257.752 79.5498 255.051C93.4971 226.219 109.607 195.559 128.03 163.231Z" fill="#E28F20"/>
<path d="M127.806 157.433C99.4638 184.757 71.4946 211.842 43.7491 238.768C41.0641 241.31 38.6028 243.216 37.484 242.184C36.4399 241.072 38.4536 238.768 41.1387 236.306C69.9283 210.174 98.7925 183.883 127.806 157.433Z" fill="#E28F20"/>
<path d="M118.707 153.223C86.5607 161.96 54.6385 170.539 23.1639 179.276C20.1805 180.07 17.57 180.467 17.57 178.958C17.4954 177.529 19.9567 176.575 22.9401 175.861C54.2656 168.315 86.337 160.928 118.707 153.223Z" fill="#E28F20"/>
<path d="M128.626 146.869C94.6903 124.232 70.0029 95.0812 59.9339 66.0102C58.9643 63.2302 58.5914 60.4502 59.8594 58.8616C61.0527 57.273 61.8731 59.2587 62.6936 62.1182C71.2708 92.6189 95.1378 123.12 128.626 146.869Z" fill="#E28F20"/>
<path d="M117.737 147.743C94.243 141.706 72.6881 134.399 53.8928 126.615C52.1027 125.9 50.6856 124.947 51.1331 123.835C51.5061 122.723 53.0723 123.12 54.7878 123.993C73.061 132.731 94.3176 140.912 117.737 147.743Z" fill="#E28F20"/>
<path d="M144.14 143.771C166.665 124.391 189.189 105.01 211.714 85.6292C213.877 83.8023 215.816 82.452 216.338 83.4846C216.86 84.5172 215.145 86.1852 212.982 87.9326C190.084 106.519 167.112 125.105 144.14 143.771Z" fill="#E28F20"/>
<path d="M148.391 143.215C166.292 131.221 184.043 119.307 201.719 107.472C203.435 106.36 204.926 105.566 205.299 106.36C205.672 107.154 204.33 108.187 202.614 109.22C184.639 120.498 166.59 131.857 148.391 143.215Z" fill="#E28F20"/>
<path d="M153.538 145.995C189.562 133.287 225.437 120.499 260.865 107.393C264.221 106.122 267.279 105.407 267.876 106.678C268.472 107.949 265.787 109.22 262.356 110.411C226.332 122.723 189.935 134.478 153.538 145.995Z" fill="#E28F20"/>
<path d="M138.248 147.028C159.206 115.415 181.88 82.5314 206.418 48.6152C208.805 45.3587 210.893 42.8964 211.49 44.0878C212.087 45.1998 210.296 48.1387 207.91 51.2364C183.148 84.12 159.952 116.13 138.248 147.028Z" fill="#E28F20"/>
<path d="M133.251 140.435C132.729 100.959 140.56 55.8433 158.982 8.26531C160.772 3.73786 162.562 -0.15416 163.234 0.00469837C163.98 0.163556 162.562 3.97615 160.772 8.42417C142.052 56.0022 133.549 100.959 133.251 140.435Z" fill="#E28F20"/>
<path d="M130.193 138.529C114.008 104.057 108.116 62.833 116.693 20.4179C117.513 16.3671 118.632 12.7133 119.602 11.9985C120.571 11.2836 119.9 14.5402 119.005 18.5911C109.607 61.6416 114.679 103.501 130.193 138.529Z" fill="#E28F20"/>
<path d="M122.585 135.749C110.055 117.162 101.105 96.4315 96.8533 74.7474C96.4804 72.6822 96.3312 70.776 96.8533 70.1405C97.45 69.5051 97.8229 71.1731 98.1958 73.2383C101.925 95.4784 110.353 116.686 122.585 135.749Z" fill="#E28F20"/>
<path d="M141.38 134.716C149.808 107.234 160.847 78.0834 174.794 47.5032C176.137 44.5644 177.405 42.1815 177.927 42.7375C178.449 43.2935 177.405 45.7558 176.062 48.6152C161.891 78.7188 150.405 107.552 141.38 134.716Z" fill="#E28F20"/>
<path d="M131.088 135.272C126.613 109.378 126.538 80.784 131.684 50.601C132.207 47.7415 132.803 45.1998 133.4 45.0409C133.997 44.8821 133.624 47.265 133.102 50.1244C127.582 80.4663 127.135 109.22 131.088 135.272Z" fill="#E28F20"/>
<path d="M116.32 161.166C95.0634 174.431 73.6577 187.695 52.0282 201.198C49.9398 202.469 48.0752 203.343 47.7023 202.469C47.2547 201.596 48.8956 200.325 50.984 199.133C72.9864 186.425 94.7651 173.716 116.32 161.166Z" fill="#E28F20"/>
<path d="M106.997 148.775C80.3701 149.887 54.713 150.523 30.5476 151.079C28.2355 151.158 26.3709 150.84 26.5947 149.57C26.8184 148.299 28.7576 148.06 30.9951 148.06C54.7876 148.616 80.2955 149.014 106.997 148.775Z" fill="#E28F20"/>
<path d="M140.261 153.223C168.082 163.708 199.332 171.333 232.448 174.351C235.655 174.669 238.34 175.066 238.266 175.861C238.266 176.655 235.581 176.655 232.448 176.337C199.183 172.922 167.932 164.582 140.261 153.223Z" fill="#E28F20"/>
<path d="M136.085 159.339C149.063 189.205 169.275 213.351 194.335 228.601C196.722 230.031 198.587 231.302 197.692 231.779C196.797 232.255 194.634 231.223 192.322 229.713C167.858 214.066 148.391 189.522 136.085 159.339Z" fill="#E28F20"/>
<path d="M119.676 169.347C103.193 189.443 87.1574 209.3 71.5692 228.76C70.0775 230.587 68.5858 232.017 67.84 231.461C67.0196 230.825 68.1383 229.237 69.7046 227.41C86.0386 208.347 102.671 188.966 119.676 169.347Z" fill="#E28F20"/>
<path d="M126.836 153.7C87.4558 171.73 47.6276 189.919 7.65031 208.426C3.8465 210.174 0.4902 211.286 0.0426925 209.538C-0.404815 207.791 2.72773 206.044 6.53155 204.455C46.7326 187.298 87.0083 170.38 126.836 153.7Z" fill="#E28F20"/>
<path d="M139.516 149.49C166.963 134.557 194.112 119.863 220.962 105.248C223.498 103.818 225.81 102.945 226.332 104.057C226.854 105.169 224.766 106.519 222.23 107.79C194.932 121.611 167.336 135.511 139.516 149.49Z" fill="#E28F20"/>
<path d="M127.88 142.897C112.889 116.606 104.386 86.0263 104.685 53.8576C104.685 50.7598 105.058 47.9798 105.803 47.3444C106.624 46.7089 106.624 49.0918 106.549 52.1895C105.505 84.9143 113.411 116.13 127.88 142.897Z" fill="#E28F20"/>
<path d="M125.941 170.698C119.378 191.429 114.231 210.968 110.428 229.316C110.055 231.064 109.533 232.493 108.787 232.255C107.966 232.017 108.115 230.587 108.563 228.84C113.038 210.571 118.856 191.19 125.941 170.698Z" fill="#E28F20"/>
<path d="M127.135 149.252C105.953 138.926 87.4556 126.773 72.3895 113.826C70.9724 112.556 69.8536 111.285 70.3757 110.332C70.8232 109.378 72.0912 110.252 73.4337 111.523C87.9777 125.264 106.176 138.291 127.135 149.252Z" fill="#E28F20"/>
<path d="M151.002 135.113C170.245 113.191 189.935 90.9509 210.073 68.3931C212.012 66.2485 213.727 64.6599 214.249 65.6131C214.772 66.5662 213.205 68.4725 211.341 70.5377C190.83 92.3806 170.767 113.826 151.002 135.113Z" fill="#E28F20"/>
<path d="M138.323 136.225C142.499 108.346 150.181 78.1628 161.667 46.4707C162.786 43.4524 163.905 40.9106 164.427 41.2283C164.949 41.5461 164.129 44.0878 163.01 47.1061C151.226 78.56 143.171 108.505 138.323 136.225Z" fill="#E28F20"/>
<path d="M120.273 136.464C106.4 121.531 95.4365 104.93 88.1272 87.5355C87.456 85.8675 87.0084 84.2789 87.5305 83.564C88.0526 82.8491 88.6493 84.12 89.3206 85.8674C96.1078 103.818 106.699 121.055 120.273 136.464Z" fill="#E28F20"/>
<path d="M139.143 162.834C152.344 189.205 171.512 210.65 194.708 224.709C196.722 225.901 197.393 226.298 197.244 226.377C197.169 226.457 196.498 226.06 194.484 224.948C171.363 210.809 152.269 189.284 139.143 162.834Z" fill="#E28F20"/>
<path d="M137.651 165.694C145.557 190.078 157.714 210.889 173.153 226.775C174.496 228.125 174.943 228.601 174.794 228.601C174.645 228.681 174.197 228.284 172.929 226.933C157.49 211.048 145.408 190.158 137.651 165.694Z" fill="#E28F20"/>
<path d="M133.325 164.979C126.911 199.451 125.27 230.269 127.806 256.004C128.029 258.228 128.104 258.943 127.955 258.943C127.806 258.943 127.656 258.228 127.507 256.084C125.046 230.269 126.761 199.451 133.325 164.979Z" fill="#E28F20"/>
<path d="M129.745 163.311C123.927 183.486 119.601 202.628 116.618 220.42C116.394 221.929 116.245 222.485 116.096 222.406C115.947 222.406 116.021 221.929 116.245 220.42C119.378 202.549 123.853 183.486 129.745 163.311Z" fill="#E28F20"/>
<path d="M126.687 164.264C113.038 184.995 100.21 205.17 88.1268 224.789C87.0826 226.457 86.7097 227.013 86.6351 226.933C86.486 226.854 86.7843 226.298 87.8285 224.63C99.9858 205.09 112.963 184.995 126.687 164.264Z" fill="#E28F20"/>
<path d="M122.51 159.339C95.8836 178.482 69.1078 197.783 42.1081 217.243C39.796 218.911 38.9756 219.467 38.901 219.308C38.8264 219.229 39.5723 218.673 41.8098 217.005C68.9586 197.624 95.809 178.402 122.51 159.339Z" fill="#E28F20"/>
<path d="M117.513 155.13C96.2566 162.358 75 169.506 53.818 176.734C52.028 177.37 51.3567 177.529 51.3567 177.37C51.3567 177.211 51.8788 176.973 53.6688 176.417C74.9254 169.347 96.182 162.278 117.513 155.13Z" fill="#E28F20"/>
<path d="M123.107 151.714C103.193 153.859 83.5771 155.686 64.4835 157.433C62.8426 157.592 62.3206 157.592 62.3206 157.433C62.3206 157.274 62.8426 157.195 64.4835 157.036C83.5771 155.447 103.193 153.7 123.107 151.714Z" fill="#E28F20"/>
<path d="M126.463 150.364C101.776 141.627 79.6987 130.904 61.4254 119.545C59.8592 118.592 59.3371 118.195 59.4117 118.036C59.4863 117.877 59.9338 118.195 61.5 119.148C79.6987 130.665 101.701 141.468 126.463 150.364Z" fill="#E28F20"/>
<path d="M130.342 147.187C106.4 127.409 88.3504 103.58 78.6544 78.56C77.834 76.4154 77.6103 75.7005 77.6848 75.5417C77.7594 75.3828 78.0578 76.0182 78.8782 78.1628C88.4996 103.342 106.474 127.329 130.342 147.187Z" fill="#E28F20"/>
<path d="M126.613 133.048C115.723 108.346 110.129 80.4663 111.248 51.2364C111.323 48.7741 111.397 47.9004 111.546 47.821C111.621 47.7415 111.621 48.5358 111.472 50.9981C110.278 80.228 115.798 108.266 126.613 133.048Z" fill="#E28F20"/>
<path d="M136.01 147.266C139.366 113.27 148.093 75.3828 163.159 35.2712C164.427 31.8557 164.949 30.6643 165.023 30.7437C165.098 30.8231 164.725 31.8557 163.383 35.2712C148.242 75.3828 139.441 113.191 136.01 147.266Z" fill="#E28F20"/>
<path d="M132.579 138.211C130.043 115.892 130.491 91.5863 134.518 66.0102C134.891 63.7862 135.04 63.0713 135.115 63.0713C135.19 63.0713 135.115 63.7862 134.742 65.9308C130.64 91.5069 130.118 115.892 132.579 138.211Z" fill="#E28F20"/>
<path d="M143.17 158.624C162.637 174.749 185.833 187.695 211.564 195.797C213.802 196.512 214.473 196.75 214.473 196.83C214.398 196.909 213.727 196.75 211.564 196.036C185.758 187.854 162.562 174.828 143.17 158.624Z" fill="#E28F20"/>
<path d="M144.662 162.278C158.162 173.954 173.452 183.883 190.233 191.667C191.65 192.302 192.172 192.541 192.098 192.62C192.023 192.699 191.576 192.541 190.158 191.905C173.377 184.121 158.087 174.034 144.662 162.278Z" fill="#E28F20"/>
<path d="M144.885 166.806C165.545 192.143 193.067 211.206 224.84 220.42C227.6 221.214 228.495 221.453 228.42 221.532C228.346 221.612 227.451 221.373 224.766 220.659C193.067 211.365 165.471 192.223 144.885 166.806Z" fill="#E28F20"/>
<path d="M140.187 154.653C165.247 165.376 193.291 173.478 223.274 177.529C225.81 177.846 226.705 178.005 226.705 178.085C226.705 178.164 225.884 178.085 223.348 177.767C193.291 173.637 165.172 165.455 140.187 154.653Z" fill="#E28F20"/>
<path d="M144.885 148.378C166.068 139.482 187.1 130.586 207.984 121.69C209.774 120.896 210.371 120.737 210.445 120.816C210.52 120.975 209.923 121.213 208.208 121.928C187.25 130.745 166.142 139.561 144.885 148.378Z" fill="#E28F20"/>
<path d="M141.753 144.009C157.118 124.152 172.929 103.898 189.338 83.2463C190.755 81.4989 191.203 80.9429 191.277 81.0223C191.352 81.1017 190.904 81.7371 189.562 83.4846C173.079 103.977 157.192 124.152 141.753 144.009Z" fill="#E28F20"/>
<path d="M140.41 139.403C146.825 123.437 153.985 106.916 161.965 89.9978C162.637 88.568 162.935 88.0915 163.01 88.1709C163.084 88.2503 162.86 88.7269 162.189 90.1566C154.134 106.996 146.899 123.437 140.41 139.403Z" fill="#E28F20"/>
<path d="M145.781 153.779C164.65 154.653 184.042 154.971 203.882 154.494C205.597 154.415 206.119 154.494 206.194 154.574C206.194 154.732 205.672 154.732 204.031 154.732C184.117 155.13 164.65 154.732 145.781 153.779Z" fill="#E28F20"/>
<path d="M141.977 146.154C155.253 135.987 168.529 125.9 181.73 115.812C182.849 114.938 183.222 114.7 183.297 114.78C183.371 114.938 182.998 115.177 181.88 116.05C168.678 126.059 155.402 136.146 141.977 146.154Z" fill="#E28F20"/>
<path d="M124.748 140.117C112.143 124.152 102.521 106.36 96.48 87.6149C95.9579 86.0263 95.8087 85.4703 95.9579 85.3114C96.0325 85.232 96.2562 85.7086 96.7037 87.2972C102.671 106.122 112.217 123.993 124.748 140.117Z" fill="#E28F20"/>
<path d="M128.626 128.203C122.659 104.136 120.869 77.5274 124.151 49.7272C124.449 47.3444 124.599 46.5501 124.673 46.4707C124.748 46.3912 124.673 47.1855 124.375 49.489C121.019 77.3685 122.734 104.057 128.626 128.203Z" fill="#E28F20"/>
<path d="M135.189 162.834C137.129 185.392 141.977 205.646 149.286 222.883C149.883 224.392 150.106 224.868 149.957 224.868C149.808 224.868 149.584 224.471 148.988 222.962C141.827 205.646 137.054 185.392 135.189 162.834Z" fill="#E28F20"/>
<path d="M131.311 156.798C116.394 172.604 101.626 188.331 87.0079 203.899C85.7399 205.249 85.2924 205.646 85.2179 205.567C85.1433 205.488 85.5162 205.011 86.7095 203.74C101.403 188.172 116.245 172.525 131.311 156.798Z" fill="#E28F20"/>
<path d="M120.795 144.486C104.834 133.843 90.961 121.928 79.7734 109.299C78.8038 108.187 78.5054 107.79 78.58 107.71C78.6546 107.552 78.9529 107.869 79.9225 108.981C91.0356 121.769 104.834 133.763 120.795 144.486Z" fill="#E28F20"/>
<path d="M131.982 146.154C111.845 111.205 103.118 68.2342 111.024 23.9128C111.695 20.1002 111.994 18.8294 112.143 18.7499C112.292 18.6705 111.994 19.8619 111.323 23.5951C103.267 67.9959 111.845 111.046 131.982 146.154Z" fill="#E28F20"/>
<path d="M138.024 156.639C155.551 176.019 177.553 191.826 202.539 202.231C204.702 203.105 205.374 203.422 205.299 203.502C205.224 203.581 204.553 203.343 202.39 202.469C177.479 191.985 155.551 176.099 138.024 156.639Z" fill="#E28F20"/>
<path d="M143.543 136.305C152.493 120.101 162.04 103.501 172.258 86.5029C173.153 85.0732 173.451 84.5966 173.526 84.676C173.601 84.7554 173.377 85.232 172.482 86.6617C162.264 103.58 152.568 120.181 143.543 136.305Z" fill="#E28F20"/>
<path d="M121.466 149.887C106.922 147.822 92.9002 145.36 79.5496 142.659C78.4308 142.421 78.0579 142.341 78.0579 142.183C78.0579 142.024 78.4308 142.103 79.5496 142.341C92.9002 145.121 106.847 147.663 121.466 149.887Z" fill="#E28F20"/>
<path d="M134.295 146.631C134.369 126.297 136.607 104.374 141.306 81.4194C141.679 79.4337 141.902 78.7983 141.977 78.7983C142.051 78.7983 141.977 79.4337 141.529 81.4194C136.831 104.374 134.518 126.217 134.295 146.631Z" fill="#E28F20"/>
<path d="M146.303 159.18C167.186 170.857 190.755 180.15 216.188 185.789C218.351 186.266 219.097 186.425 219.097 186.504C219.097 186.583 218.351 186.504 216.263 186.027C190.755 180.309 167.186 171.015 146.303 159.18Z" fill="#E28F20"/>
<path d="M143.469 151.317C161.145 148.775 179.045 145.995 197.02 142.897C198.586 142.659 199.109 142.58 199.109 142.739C199.109 142.897 198.661 142.977 197.169 143.215C179.12 146.154 161.22 148.855 143.469 151.317Z" fill="#E28F20"/>
<path d="M139.366 137.576C143.543 121.293 148.69 104.295 154.955 86.6617C155.477 85.1526 155.7 84.676 155.775 84.7554C155.85 84.8349 155.7 85.3115 155.178 86.8206C148.839 104.295 143.618 121.293 139.366 137.576Z" fill="#E28F20"/>
<path d="M168.902 29.6317C168.306 28.6786 167.112 28.4403 166.217 29.0757C165.322 29.7112 165.098 30.982 165.695 31.9352C166.292 32.8883 167.485 33.1266 168.38 32.4912C169.275 31.8558 169.499 30.5849 168.902 29.6317Z" fill="#FFC061"/>
<path d="M55.9811 74.0326C56.2048 71.0143 52.6247 70.2994 51.7297 73.0794C51.506 76.0977 55.0115 76.8126 55.9811 74.0326Z" fill="#FFC061"/>
<path d="M141.679 34.7946C141.231 34.0798 140.336 33.8415 139.59 34.3181C138.919 34.7946 138.695 35.7478 139.143 36.5421C139.59 37.2569 140.485 37.4952 141.231 37.0186C141.977 36.4626 142.126 35.5095 141.679 34.7946Z" fill="#FFC061"/>
<path d="M70.7489 87.7738C70.3014 87.0589 69.4064 86.8206 68.6606 87.2972C67.9893 87.7738 67.7655 88.7269 68.213 89.5212C68.6605 90.2361 69.5556 90.4744 70.3014 89.9978C70.9727 89.5212 71.1964 88.4887 70.7489 87.7738Z" fill="#FFC061"/>
<path d="M38.3793 148.537C38.0809 147.981 37.3351 147.822 36.8876 148.219C36.3655 148.537 36.2163 149.331 36.5892 149.808C36.8876 150.364 37.6334 150.523 38.0809 150.126C38.603 149.808 38.7522 149.093 38.3793 148.537Z" fill="#FFC061"/>
<path d="M162.935 274.273C162.488 273.558 161.593 273.32 160.847 273.796C160.176 274.273 159.952 275.226 160.4 276.021C160.847 276.735 161.742 276.974 162.488 276.497C163.234 276.021 163.383 275.067 162.935 274.273Z" fill="#FFC061"/>
<path d="M29.1305 195.559C28.683 194.844 27.788 194.606 27.0421 195.082C26.3709 195.559 26.1471 196.512 26.5946 197.306C27.0421 198.021 27.9372 198.26 28.683 197.783C29.4288 197.306 29.578 196.353 29.1305 195.559Z" fill="#FFC061"/>
<path d="M59.6359 220.976C59.1884 220.261 58.2934 220.023 57.5475 220.5C56.8763 220.976 56.6525 221.929 57.1 222.724C57.5475 223.439 58.4425 223.677 59.1884 223.2C59.8596 222.644 60.0834 221.691 59.6359 220.976Z" fill="#FFC061"/>
<path d="M63.9618 247.029C63.6635 246.473 62.9923 246.394 62.4702 246.711C61.9481 247.029 61.8735 247.744 62.1718 248.3C62.4701 248.856 63.1414 248.935 63.6635 248.618C64.1856 248.3 64.3348 247.585 63.9618 247.029Z" fill="#FFC061"/>
<path d="M122.212 280.786C121.914 280.23 121.242 280.151 120.72 280.469C120.198 280.786 120.124 281.501 120.422 282.057C120.72 282.613 121.392 282.693 121.914 282.375C122.361 282.057 122.51 281.342 122.212 280.786Z" fill="#FFC061"/>
<path d="M94.9889 262.518C94.5414 261.803 93.6464 261.564 92.9005 262.041C92.2293 262.518 92.0055 263.471 92.453 264.265C92.9005 264.98 93.7956 265.218 94.5414 264.742C95.2873 264.265 95.4364 263.232 94.9889 262.518Z" fill="#FFC061"/>
<path d="M100.657 245.043C100.135 244.249 99.1654 244.011 98.4195 244.567C97.6737 245.123 97.4499 246.155 97.972 246.95C98.4941 247.744 99.4637 247.982 100.21 247.426C100.881 246.87 101.105 245.838 100.657 245.043Z" fill="#FFC061"/>
<path d="M139.143 253.383C138.695 252.668 137.8 252.43 137.055 252.907C136.383 253.383 136.16 254.336 136.607 255.131C137.055 255.846 137.95 256.084 138.695 255.607C139.367 255.051 139.59 254.098 139.143 253.383Z" fill="#FFC061"/>
<path d="M180.612 273.717C180.164 273.002 179.269 272.764 178.524 273.241C177.852 273.717 177.629 274.67 178.076 275.465C178.524 276.259 179.419 276.418 180.164 275.941C180.836 275.465 181.059 274.511 180.612 273.717Z" fill="#FFC061"/>
<path d="M199.183 242.819C198.736 242.104 197.841 241.866 197.095 242.343C196.424 242.819 196.2 243.772 196.648 244.567C197.095 245.282 197.99 245.52 198.736 245.043C199.407 244.487 199.631 243.534 199.183 242.819Z" fill="#FFC061"/>
<path d="M232.448 235.353C232.001 234.638 231.106 234.4 230.36 234.876C229.688 235.353 229.465 236.306 229.912 237.1C230.36 237.815 231.255 238.053 232.001 237.577C232.746 237.021 232.896 236.068 232.448 235.353Z" fill="#FFC061"/>
<path d="M237.147 209.856C236.7 209.141 235.805 208.903 235.059 209.38C234.387 209.856 234.164 210.809 234.611 211.604C235.059 212.318 235.954 212.557 236.7 212.08C237.371 211.604 237.595 210.65 237.147 209.856Z" fill="#FFC061"/>
<path d="M244.606 109.14C244.158 108.425 243.263 108.187 242.517 108.664C241.846 109.14 241.622 110.093 242.07 110.888C242.517 111.602 243.412 111.841 244.158 111.364C244.904 110.808 245.053 109.855 244.606 109.14Z" fill="#FFC061"/>
<path d="M194.858 44.4055C194.41 43.6907 193.515 43.4524 192.769 43.929C192.098 44.4055 191.874 45.3587 192.322 46.153C192.769 46.8678 193.664 47.1061 194.41 46.6296C195.081 46.0736 195.305 45.1204 194.858 44.4055Z" fill="#FFC061"/>
<path d="M226.109 82.2138C225.661 81.4989 224.766 81.2606 224.02 81.7372C223.349 82.2138 223.125 83.1669 223.573 83.9612C224.02 84.6761 224.915 84.9143 225.661 84.4378C226.407 83.8818 226.556 82.9286 226.109 82.2138Z" fill="#FFC061"/>
<path d="M271.456 138.291C271.008 137.576 270.113 137.338 269.368 137.814C268.696 138.291 268.473 139.244 268.92 140.038C269.368 140.753 270.263 140.991 271.008 140.515C271.68 140.038 271.903 139.005 271.456 138.291Z" fill="#FFC061"/>
<path d="M255.942 154.653C255.495 153.938 254.6 153.7 253.854 154.176C253.183 154.653 252.959 155.606 253.406 156.4C253.854 157.115 254.749 157.354 255.495 156.877C256.166 156.321 256.39 155.368 255.942 154.653Z" fill="#FFC061"/>
<path d="M250.572 201.834C249.826 200.642 248.335 200.325 247.216 201.119C246.097 201.913 245.799 203.502 246.545 204.693C247.291 205.885 248.782 206.202 249.901 205.408C251.02 204.693 251.318 203.025 250.572 201.834Z" fill="#FFC061"/>
<path d="M251.169 91.9835C251.392 88.4887 247.29 87.6149 246.246 90.8715C246.022 94.3664 250.125 95.2401 251.169 91.9835Z" fill="#FFC061"/>
<path d="M209.998 40.3547C209.252 39.1632 207.761 38.8455 206.642 39.6398C205.523 40.4341 205.225 42.0227 205.971 43.2141C206.717 44.4055 208.208 44.7233 209.327 43.929C210.446 43.2141 210.744 41.5461 209.998 40.3547Z" fill="#FFC061"/>
<path d="M235.953 199.769C235.73 199.372 235.282 199.292 234.909 199.53C234.536 199.769 234.462 200.245 234.685 200.642C234.909 201.04 235.357 201.119 235.73 200.881C236.103 200.563 236.177 200.086 235.953 199.769Z" fill="#FFC061"/>
<path d="M188.667 260.055C188.443 259.658 187.996 259.579 187.623 259.817C187.25 260.055 187.175 260.532 187.399 260.929C187.623 261.326 188.07 261.406 188.443 261.167C188.816 260.929 188.891 260.452 188.667 260.055Z" fill="#FFC061"/>
<path d="M235.059 81.1017C234.835 80.7046 234.387 80.6252 234.014 80.8635C233.641 81.1018 233.567 81.5783 233.791 81.9755C234.014 82.3726 234.462 82.452 234.835 82.2138C235.133 81.9755 235.282 81.4989 235.059 81.1017Z" fill="#FFC061"/>
<path d="M209.029 49.0124C208.805 48.6153 208.357 48.5359 207.984 48.7741C207.611 49.0124 207.537 49.489 207.761 49.8862C207.984 50.2833 208.432 50.3627 208.805 50.1244C209.178 49.8861 209.327 49.3301 209.029 49.0124Z" fill="#FFC061"/>
<path d="M147.049 27.8049C146.825 27.4077 146.378 27.3283 146.005 27.5666C145.632 27.8049 145.557 28.2815 145.781 28.6786C146.005 29.0757 146.452 29.1552 146.825 28.9169C147.198 28.6786 147.273 28.202 147.049 27.8049Z" fill="#FFC061"/>
<path d="M86.71 41.6255C86.4862 41.2284 86.0387 41.149 85.6658 41.3872C85.2928 41.6255 85.2183 42.1021 85.442 42.4992C85.6658 42.8964 86.1133 42.9758 86.4862 42.7375C86.8591 42.4992 86.9337 42.0227 86.71 41.6255Z" fill="#FFC061"/>
<path d="M215.89 243.852C215.517 243.296 214.846 243.137 214.324 243.534C213.802 243.931 213.653 244.646 214.026 245.202C214.399 245.758 215.07 245.917 215.592 245.52C216.114 245.123 216.263 244.408 215.89 243.852Z" fill="#FFC061"/>
<path d="M103.268 47.7416C102.82 47.0267 101.925 46.7884 101.179 47.265C100.508 47.7416 100.284 48.6947 100.732 49.489C101.179 50.2039 102.074 50.4421 102.82 49.9656C103.491 49.489 103.715 48.4564 103.268 47.7416Z" fill="#FFC061"/>
<path d="M109.98 49.8067C109.533 49.0919 108.638 48.8536 107.892 49.3301C107.221 49.8067 106.997 50.7599 107.444 51.5542C107.892 52.269 108.787 52.5073 109.533 52.0307C110.279 51.4747 110.428 50.5216 109.98 49.8067Z" fill="#FFC061"/>
<path d="M21.6723 135.749C21.2247 135.034 20.3297 134.796 19.5839 135.272C18.9126 135.749 18.6889 136.702 19.1364 137.496C19.5839 138.211 20.4789 138.449 21.2247 137.973C21.9706 137.496 22.1198 136.464 21.6723 135.749Z" fill="#FFC061"/>
<path d="M168.082 267.839C167.634 267.124 166.739 266.886 165.993 267.363C165.322 267.839 165.098 268.793 165.546 269.587C165.993 270.302 166.888 270.54 167.634 270.063C168.305 269.587 168.529 268.554 168.082 267.839Z" fill="#FFC061"/>
<path d="M16.3021 150.284C15.8546 149.57 14.9596 149.331 14.2138 149.808C13.5425 150.284 13.3188 151.238 13.7663 152.032C14.2138 152.747 15.1088 152.985 15.8546 152.508C16.6005 152.032 16.7497 150.999 16.3021 150.284Z" fill="#FFC061"/>
<path d="M32.6362 175.861C32.0395 174.907 30.8462 174.669 30.0258 175.305C29.1307 175.94 28.907 177.211 29.5037 178.085C30.1003 179.038 31.2937 179.276 32.1141 178.641C33.0091 178.085 33.2329 176.814 32.6362 175.861Z" fill="#FFC061"/>
<path d="M48.8955 230.667C48.3734 229.872 47.3292 229.634 46.5834 230.19C45.8375 230.746 45.6138 231.858 46.1359 232.652C46.6579 233.447 47.7021 233.685 48.448 233.129C49.1938 232.573 49.4176 231.461 48.8955 230.667Z" fill="#FFC061"/>
<path d="M67.9147 62.9919C67.4672 62.2771 66.5722 62.0388 65.8263 62.5154C65.1551 62.9919 64.9313 63.9451 65.3788 64.7394C65.8263 65.4542 66.7213 65.6925 67.4672 65.2159C68.213 64.6599 68.3622 63.7068 67.9147 62.9919Z" fill="#FFC061"/>
<path d="M40.7659 109.855C40.0947 108.822 38.8267 108.505 37.8571 109.22C36.8875 109.934 36.5892 111.285 37.2605 112.317C37.9317 113.35 39.1997 113.668 40.1693 112.953C41.1389 112.238 41.4372 110.888 40.7659 109.855Z" fill="#FFC061"/>
<path d="M113.187 25.1837C113.187 25.0248 113.113 24.9454 112.964 24.9454C112.889 24.9454 112.74 25.0248 112.74 25.1043V25.1837C112.74 25.1837 112.591 25.8986 112.591 26.1368C112.591 26.1368 112.442 27.3283 112.442 27.4077L111.696 26.4546L111.099 25.7397C111.024 25.6603 110.875 25.6603 110.801 25.7397L110.726 25.8191C110.651 25.8986 110.651 25.978 110.726 26.0574L111.248 26.8517L111.994 27.8843C111.919 27.8843 110.801 27.7254 110.801 27.7254C110.651 27.7254 109.906 27.646 109.906 27.646C109.831 27.646 109.756 27.7254 109.682 27.8049V27.8843C109.682 28.0431 109.756 28.1226 109.906 28.202C109.906 28.202 110.577 28.3609 110.801 28.3609L111.994 28.5197L111.77 28.6786L111.099 29.314L110.428 29.9494C110.428 29.9494 110.428 30.0289 110.353 30.0289C110.279 30.1083 110.279 30.1877 110.353 30.3466C110.428 30.426 110.577 30.5054 110.651 30.426L111.397 29.87C111.397 29.87 112.292 29.1551 112.367 29.0757C112.367 29.1551 112.218 30.3466 112.218 30.3466C112.218 30.5054 112.143 31.2997 112.143 31.2997C112.143 31.4586 112.218 31.538 112.367 31.538C112.442 31.538 112.591 31.4586 112.591 31.3792V31.2997C112.591 31.2997 112.74 30.5849 112.74 30.3466C112.74 30.3466 112.889 29.1551 112.889 29.0757L113.635 30.0289C113.784 30.1877 114.232 30.7437 114.232 30.7437C114.306 30.8232 114.455 30.8232 114.53 30.7437L114.604 30.6643C114.679 30.5849 114.679 30.5054 114.604 30.426C114.604 30.426 114.232 29.7906 114.082 29.6317L113.337 28.5991L114.232 28.6786L115.425 28.758C115.499 28.758 115.574 28.6786 115.649 28.5991V28.5197C115.649 28.3609 115.574 28.2814 115.425 28.202L114.53 28.0431C114.53 28.0431 113.411 27.8843 113.337 27.8843C113.411 27.8049 114.232 27.09 114.232 27.09C114.381 26.9311 114.903 26.4546 114.903 26.4546C114.903 26.4546 114.903 26.3751 114.977 26.3751C115.052 26.2957 115.052 26.2163 114.977 26.0574C114.903 25.978 114.754 25.8986 114.679 25.978L113.933 26.534C113.933 26.534 113.038 27.2488 112.964 27.3283C112.964 27.2488 113.113 26.0574 113.113 26.0574L113.187 25.1837Z" fill="#FFC061"/>
<path d="M90.8868 79.5926C90.8868 79.4337 90.8122 79.3543 90.6631 79.3543C90.5885 79.3543 90.4393 79.4337 90.4393 79.5131V79.5926C90.4393 79.5926 90.2901 80.3074 90.2901 80.5457C90.2901 80.5457 90.141 81.7372 90.141 81.8166L89.3951 80.8635L88.7985 80.1486C88.7239 80.0692 88.5747 80.0692 88.5001 80.1486L88.4255 80.228C88.3509 80.3074 88.3509 80.3869 88.4255 80.4663L88.9476 81.2606L89.6935 82.2932C89.6189 82.2932 88.5001 82.1343 88.5001 82.1343C88.3509 82.1343 87.6051 82.0549 87.6051 82.0549C87.5305 82.0549 87.4559 82.1343 87.3813 82.2137V82.2932C87.3813 82.452 87.4559 82.5315 87.6051 82.6109C87.6051 82.6109 88.2764 82.7697 88.5001 82.7697L89.6935 82.9286L89.4697 83.0875L88.7985 83.7229L88.1272 84.3583C88.1272 84.3583 88.1272 84.4378 88.0526 84.4378C87.978 84.5172 87.978 84.5966 88.0526 84.7555C88.1272 84.8349 88.2764 84.9143 88.3509 84.8349L89.0968 84.2789C89.0968 84.2789 89.9918 83.564 90.0664 83.4846C90.0664 83.564 89.9172 84.7555 89.9172 84.7555C89.9172 84.9143 89.8426 85.7086 89.8426 85.7086C89.8426 85.8675 89.9172 85.9469 90.0664 85.9469C90.141 85.9469 90.2901 85.8675 90.2901 85.7881V85.7086C90.2901 85.7086 90.4393 84.9938 90.4393 84.7555C90.4393 84.7555 90.5885 83.564 90.5885 83.4846L91.3343 84.4378C91.4835 84.5966 91.931 85.1526 91.931 85.1526C92.0056 85.232 92.1548 85.232 92.2293 85.1526L92.3039 85.0732C92.3785 84.9938 92.3785 84.9143 92.3039 84.8349C92.3039 84.8349 91.931 84.1995 91.7818 84.0406L91.036 83.008L91.931 83.0875L93.1243 83.1669C93.1989 83.1669 93.2735 83.0875 93.3481 83.008V82.9286C93.3481 82.7697 93.2735 82.6903 93.1243 82.6109L92.2293 82.452C92.2293 82.452 91.1106 82.2932 91.036 82.2932C91.1106 82.2137 91.931 81.4989 91.931 81.4989C92.0802 81.34 92.6023 80.8635 92.6023 80.8635C92.6023 80.8635 92.6023 80.784 92.6769 80.784C92.7514 80.7046 92.7514 80.6252 92.6769 80.4663C92.6023 80.3869 92.4531 80.3074 92.3785 80.3869L91.6327 80.9429C91.6327 80.9429 90.7376 81.6577 90.6631 81.7372C90.6631 81.6577 90.8122 80.4663 90.8122 80.4663L90.8868 79.5926Z" fill="#FFC061"/>
<path d="M83.0553 233.605C83.0553 233.447 82.9807 233.367 82.8315 233.367C82.7569 233.367 82.6078 233.447 82.6078 233.526V233.605C82.6078 233.605 82.4586 234.32 82.4586 234.559C82.4586 234.559 82.3094 235.75 82.3094 235.829L81.5636 234.876L80.9669 234.161C80.8923 234.082 80.7432 234.082 80.6686 234.161L80.594 234.241C80.5194 234.32 80.5194 234.4 80.594 234.479L81.1161 235.273L81.8619 236.306C81.7873 236.306 80.6686 236.147 80.6686 236.147C80.5194 236.147 79.7735 236.068 79.7735 236.068C79.699 236.068 79.6244 236.147 79.5498 236.227V236.306C79.5498 236.465 79.6244 236.544 79.7735 236.624C79.7735 236.624 80.4448 236.783 80.6686 236.783L81.8619 236.941L81.6382 237.1L80.9669 237.736L80.2956 238.371C80.2956 238.371 80.2956 238.451 80.2211 238.451C80.1465 238.53 80.1465 238.609 80.2211 238.768C80.2956 238.848 80.4448 238.927 80.5194 238.848L81.2652 238.292C81.2652 238.292 82.1603 237.577 82.2349 237.497C82.2349 237.577 82.0857 238.768 82.0857 238.768C82.0857 238.927 82.0111 239.721 82.0111 239.721C82.0111 239.88 82.0857 239.96 82.2349 239.96C82.3094 239.96 82.4586 239.88 82.4586 239.801V239.721C82.4586 239.721 82.6078 239.007 82.6078 238.768C82.6078 238.768 82.7569 237.577 82.7569 237.497L83.5028 238.451C83.6519 238.609 84.0995 239.165 84.0995 239.165C84.174 239.245 84.3232 239.245 84.3978 239.165L84.4724 239.086C84.547 239.007 84.547 238.927 84.4724 238.848C84.4724 238.848 84.0995 238.212 83.9503 238.053L83.2044 237.021L84.0995 237.1L85.2928 237.18C85.3674 237.18 85.442 237.1 85.5166 237.021V236.941C85.5166 236.783 85.442 236.703 85.2928 236.624L84.3978 236.465C84.3978 236.465 83.279 236.306 83.2044 236.306C83.279 236.227 84.0995 235.512 84.0995 235.512C84.2486 235.353 84.7707 234.876 84.7707 234.876C84.7707 234.876 84.7707 234.797 84.8453 234.797C84.9199 234.717 84.9199 234.638 84.8453 234.479C84.7707 234.4 84.6215 234.32 84.547 234.4L83.8011 234.956C83.8011 234.956 82.9061 235.671 82.8315 235.75C82.8315 235.671 82.9807 234.479 82.9807 234.479L83.0553 233.605Z" fill="#FFC061"/>
<path d="M246.992 127.329C246.992 127.171 246.918 127.091 246.769 127.091C246.694 127.091 246.545 127.171 246.545 127.25V127.329C246.545 127.329 246.396 128.044 246.396 128.283C246.396 128.283 246.246 129.474 246.246 129.553L245.501 128.6L244.904 127.885C244.829 127.806 244.68 127.806 244.606 127.885L244.531 127.965C244.456 128.044 244.456 128.124 244.531 128.203L245.053 128.997L245.799 130.03C245.724 130.03 244.606 129.871 244.606 129.871C244.456 129.871 243.711 129.792 243.711 129.792C243.636 129.792 243.561 129.871 243.487 129.951V130.03C243.487 130.189 243.561 130.268 243.711 130.348C243.711 130.348 244.382 130.507 244.606 130.507L245.799 130.665L245.575 130.824L244.904 131.46L244.233 132.095C244.233 132.095 244.233 132.175 244.158 132.175C244.083 132.254 244.083 132.333 244.158 132.492C244.233 132.572 244.382 132.651 244.456 132.572L245.202 132.016C245.202 132.016 246.097 131.301 246.172 131.221C246.172 131.301 246.023 132.492 246.023 132.492C246.023 132.651 245.948 133.445 245.948 133.445C245.948 133.604 246.023 133.684 246.172 133.684C246.246 133.684 246.396 133.604 246.396 133.525V133.445C246.396 133.445 246.545 132.731 246.545 132.492C246.545 132.492 246.694 131.301 246.694 131.221L247.44 132.175C247.589 132.333 248.036 132.889 248.036 132.889C248.111 132.969 248.26 132.969 248.335 132.889L248.409 132.81C248.484 132.731 248.484 132.651 248.409 132.572C248.409 132.572 248.036 131.936 247.887 131.777L247.141 130.745L248.036 130.824L249.23 130.904C249.304 130.904 249.379 130.824 249.454 130.745V130.665C249.454 130.507 249.379 130.427 249.23 130.348L248.335 130.189C248.335 130.189 247.216 130.03 247.141 130.03C247.216 129.951 248.036 129.236 248.036 129.236C248.186 129.077 248.708 128.6 248.708 128.6C248.708 128.6 248.708 128.521 248.782 128.521C248.857 128.441 248.857 128.362 248.782 128.203C248.708 128.124 248.559 128.044 248.484 128.124L247.738 128.68C247.738 128.68 246.843 129.395 246.769 129.474C246.769 129.395 246.918 128.203 246.918 128.203L246.992 127.329Z" fill="#FFC061"/>
<path d="M240.205 52.9839C240.205 52.7456 240.056 52.5867 239.907 52.5867C239.758 52.5867 239.608 52.6661 239.534 52.7456C239.534 52.7456 239.534 52.825 239.459 52.9044C239.459 52.9044 239.235 54.0959 239.235 54.3342C239.235 54.3342 239.012 56.161 238.937 56.3199L237.744 54.8107L236.849 53.6987C236.7 53.5399 236.476 53.5399 236.327 53.6193C236.252 53.6193 236.252 53.6987 236.252 53.6987C236.177 53.8576 236.177 54.0164 236.252 54.0959L237.072 55.2873L238.191 56.8759C238.042 56.8759 236.327 56.717 236.327 56.717C236.028 56.717 234.984 56.6376 234.984 56.6376C234.835 56.6376 234.686 56.717 234.611 56.8759C234.611 56.9553 234.611 56.9553 234.537 57.0347C234.537 57.273 234.611 57.4319 234.835 57.4319C234.835 57.4319 235.879 57.6702 236.177 57.6702L238.042 57.9879L237.669 58.3056L236.625 59.2587L235.581 60.2119L235.506 60.2913C235.432 60.4502 235.432 60.609 235.506 60.6885C235.655 60.8473 235.879 60.8473 236.028 60.7679L237.147 59.8942C237.147 59.8942 238.49 58.7822 238.639 58.7027C238.639 58.8616 238.49 60.6885 238.49 60.6885C238.49 61.0062 238.415 62.1182 238.415 62.1182C238.415 62.3565 238.564 62.5153 238.713 62.5153C238.863 62.5153 239.012 62.4359 239.086 62.3565C239.086 62.3565 239.086 62.2771 239.161 62.2771C239.161 62.2771 239.385 61.165 239.385 60.8473C239.385 60.8473 239.608 59.0205 239.683 58.8616L240.876 60.3708C241.1 60.609 241.771 61.4828 241.771 61.4828C241.92 61.6416 242.144 61.6416 242.293 61.5622C242.368 61.5622 242.368 61.4828 242.368 61.4033C242.443 61.2445 242.443 61.0856 242.368 61.0062C242.368 61.0062 241.771 60.053 241.548 59.8148L240.429 58.2262L241.846 58.385L243.636 58.5439C243.785 58.5439 243.934 58.4645 244.009 58.3056C244.009 58.2262 244.083 58.2262 244.083 58.1467C244.083 57.9085 244.009 57.7496 243.785 57.7496L242.443 57.5113C242.443 57.5113 240.802 57.273 240.578 57.1936C240.727 57.1142 241.995 55.9227 241.995 55.9227C242.219 55.7639 243.039 54.9696 243.039 54.9696L243.114 54.8902C243.188 54.7313 243.188 54.5724 243.114 54.493C242.965 54.3341 242.741 54.3342 242.592 54.4136L241.473 55.2873C241.473 55.2873 240.13 56.3993 239.981 56.4787C239.981 56.3199 240.13 54.493 240.13 54.493L240.205 52.9839Z" fill="#FFC061"/>
<path d="M143.17 282.613C143.17 282.454 143.096 282.295 142.947 282.295C142.797 282.295 142.723 282.375 142.648 282.454V282.534C142.648 282.534 142.499 283.407 142.499 283.646C142.499 283.646 142.275 285.075 142.275 285.155L141.38 283.963L140.634 283.09C140.56 282.931 140.336 282.931 140.261 283.09L140.187 283.169C140.112 283.249 140.112 283.407 140.187 283.487L140.784 284.44L141.679 285.711C141.529 285.711 140.261 285.552 140.261 285.552C140.038 285.552 139.217 285.473 139.217 285.473C139.068 285.473 138.994 285.552 138.919 285.631V285.711C138.919 285.87 138.994 286.029 139.143 286.029C139.143 286.029 139.963 286.187 140.187 286.187L141.604 286.426L141.306 286.664L140.485 287.379L139.665 288.173L139.59 288.253C139.516 288.332 139.516 288.491 139.59 288.57C139.665 288.729 139.889 288.729 139.963 288.65L140.858 288.014C140.858 288.014 141.902 287.141 142.051 287.061C142.051 287.22 141.902 288.57 141.902 288.57C141.902 288.809 141.828 289.682 141.828 289.682C141.828 289.841 141.902 290 142.051 290C142.201 290 142.275 289.921 142.35 289.841V289.762C142.35 289.762 142.499 288.888 142.499 288.65C142.499 288.65 142.723 287.22 142.723 287.141L143.618 288.332C143.767 288.491 144.289 289.206 144.289 289.206C144.364 289.365 144.587 289.365 144.662 289.285L144.737 289.206C144.811 289.126 144.811 288.967 144.737 288.888C144.737 288.888 144.214 288.173 144.14 287.935L143.245 286.664L144.364 286.743L145.781 286.823C145.93 286.823 146.004 286.743 146.079 286.664V286.585C146.079 286.426 146.004 286.267 145.855 286.267L144.811 286.108C144.811 286.108 143.469 285.87 143.394 285.87C143.469 285.79 144.513 284.917 144.513 284.917C144.662 284.758 145.333 284.122 145.333 284.122L145.408 284.043C145.482 283.963 145.482 283.805 145.408 283.725C145.333 283.566 145.109 283.566 145.035 283.646L144.14 284.281C144.14 284.281 143.096 285.155 142.947 285.234C142.947 285.075 143.096 283.725 143.096 283.725L143.17 282.613Z" fill="#FFC061"/>
<path d="M257.434 173.557C257.434 173.398 257.359 173.239 257.21 173.239C257.061 173.239 256.986 173.319 256.912 173.398V173.478C256.912 173.478 256.763 174.351 256.763 174.59C256.763 174.59 256.539 176.019 256.539 176.099L255.644 174.907L254.898 174.034C254.823 173.875 254.6 173.875 254.525 174.034L254.451 174.113C254.376 174.193 254.376 174.351 254.451 174.431L255.047 175.384L255.942 176.655C255.793 176.655 254.525 176.496 254.525 176.496C254.301 176.496 253.481 176.417 253.481 176.417C253.332 176.417 253.257 176.496 253.183 176.575V176.655C253.183 176.814 253.257 176.973 253.406 176.973C253.406 176.973 254.227 177.131 254.451 177.131L255.868 177.37L255.569 177.608L254.749 178.323L253.928 179.117L253.854 179.197C253.779 179.276 253.779 179.435 253.854 179.514C253.928 179.673 254.152 179.673 254.227 179.594L255.122 178.958C255.122 178.958 256.166 178.085 256.315 178.005C256.315 178.164 256.166 179.514 256.166 179.514C256.166 179.753 256.091 180.626 256.091 180.626C256.091 180.785 256.166 180.944 256.315 180.944C256.464 180.944 256.539 180.865 256.613 180.785V180.706C256.613 180.706 256.763 179.832 256.763 179.594C256.763 179.594 256.986 178.164 256.986 178.085L257.881 179.276C258.031 179.435 258.553 180.15 258.553 180.15C258.627 180.309 258.851 180.309 258.926 180.229L259 180.15C259.075 180.07 259.075 179.911 259 179.832C259 179.832 258.478 179.117 258.404 178.879L257.509 177.608L258.627 177.687L260.044 177.767C260.194 177.767 260.268 177.687 260.343 177.608V177.529C260.343 177.37 260.268 177.211 260.119 177.211L259.075 177.052C259.075 177.052 257.732 176.814 257.658 176.814C257.732 176.734 258.776 175.861 258.776 175.861C258.926 175.702 259.597 175.066 259.597 175.066L259.671 174.987C259.746 174.907 259.746 174.749 259.671 174.669C259.597 174.51 259.373 174.51 259.298 174.59L258.404 175.225C258.404 175.225 257.359 176.099 257.21 176.178C257.21 176.019 257.359 174.669 257.359 174.669L257.434 173.557Z" fill="#FFC061"/>
<path d="M45.6886 125.423C45.6886 125.344 45.614 125.264 45.5394 125.264C45.4648 125.264 45.3902 125.264 45.3902 125.344C45.3902 125.344 45.3902 125.344 45.3902 125.423C45.3902 125.423 45.3157 125.979 45.3157 126.059C45.3157 126.059 45.1665 126.853 45.1665 126.932L44.6444 126.217L44.1969 125.741C44.1223 125.661 44.0477 125.661 43.9731 125.741C43.9731 125.741 43.9731 125.741 43.8986 125.82C43.8986 125.9 43.8986 125.979 43.8986 125.979L44.2715 126.535L44.7936 127.25C44.719 127.25 43.9731 127.171 43.9731 127.171C43.824 127.171 43.3765 127.091 43.3765 127.091C43.3019 127.091 43.2273 127.091 43.2273 127.171V127.25C43.2273 127.329 43.3019 127.409 43.3765 127.409C43.3765 127.409 43.8986 127.488 43.9731 127.488L44.7936 127.647L44.6444 127.806L44.1223 128.283L43.6748 128.759C43.6748 128.759 43.6748 128.759 43.6748 128.839C43.6748 128.918 43.6748 128.997 43.6748 129.077C43.7494 129.156 43.824 129.156 43.8986 129.077L44.4207 128.68C44.4207 128.68 45.0173 128.203 45.0919 128.124C45.0919 128.203 45.0173 128.997 45.0173 128.997C45.0173 129.156 44.9428 129.633 44.9428 129.633C44.9428 129.712 45.0173 129.792 45.0919 129.792C45.1665 129.792 45.2411 129.792 45.2411 129.712C45.2411 129.712 45.2411 129.712 45.2411 129.633C45.2411 129.633 45.3157 129.077 45.3157 128.997C45.3157 128.997 45.4648 128.203 45.4648 128.124L45.9869 128.839C46.0615 128.918 46.4344 129.315 46.4344 129.315C46.509 129.395 46.5836 129.395 46.6582 129.315C46.6582 129.315 46.6582 129.315 46.7328 129.236C46.7328 129.156 46.7328 129.077 46.7328 129.077C46.7328 129.077 46.4344 128.68 46.3599 128.521L45.8378 127.806L46.509 127.885L47.3294 127.965C47.404 127.965 47.4786 127.965 47.4786 127.885V127.806C47.4786 127.727 47.404 127.647 47.3294 127.647L46.7328 127.568C46.7328 127.568 45.9869 127.409 45.9123 127.409C45.9869 127.329 46.5836 126.853 46.5836 126.853C46.6582 126.773 47.0311 126.376 47.0311 126.376C47.0311 126.376 47.0311 126.376 47.0311 126.297C47.0311 126.217 47.0311 126.138 47.0311 126.059C46.9565 125.979 46.882 125.979 46.8074 126.059L46.2853 126.456C46.2853 126.456 45.6886 126.932 45.614 127.012C45.614 126.932 45.6886 126.138 45.6886 126.138V125.423Z" fill="#FFC061"/>
<defs>
<radialGradient id="paint0_radial_44_982" cx="0" cy="0" r="1" gradientUnits="userSpaceOnUse" gradientTransform="translate(135.497 152.863) scale(41.245 43.924)">
<stop offset="0.3527" stop-color="white" stop-opacity="0"/>
<stop offset="0.4581" stop-color="#FFFFE5" stop-opacity="0.1819"/>
<stop offset="0.6839" stop-color="#FFFFA2" stop-opacity="0.5715"/>
<stop offset="0.9324" stop-color="#FFFF52"/>
</radialGradient>
<radialGradient id="paint1_radial_44_982" cx="0" cy="0" r="1" gradientUnits="userSpaceOnUse" gradientTransform="translate(135.497 152.863) scale(41.2451 43.9241)">
<stop offset="0.3527" stop-color="white" stop-opacity="0"/>
<stop offset="0.4581" stop-color="#FFFFE5" stop-opacity="0.1819"/>
<stop offset="0.6839" stop-color="#FFFFA2" stop-opacity="0.5715"/>
<stop offset="0.9324" stop-color="#FFFF52"/>
</radialGradient>
<radialGradient id="paint2_radial_44_982" cx="0" cy="0" r="1" gradientUnits="userSpaceOnUse" gradientTransform="translate(135.497 152.863) scale(41.2451 43.9241)">
<stop offset="0.3527" stop-color="white" stop-opacity="0"/>
<stop offset="0.4581" stop-color="#FFFFE5" stop-opacity="0.1819"/>
<stop offset="0.6839" stop-color="#FFFFA2" stop-opacity="0.5715"/>
<stop offset="0.9324" stop-color="#FFFF52"/>
</radialGradient>
<radialGradient id="paint3_radial_44_982" cx="0" cy="0" r="1" gradientUnits="userSpaceOnUse" gradientTransform="translate(135.497 152.863) scale(41.2453 43.9243)">
<stop offset="0.3527" stop-color="white" stop-opacity="0"/>
<stop offset="0.4581" stop-color="#FFFFE5" stop-opacity="0.1819"/>
<stop offset="0.6839" stop-color="#FFFFA2" stop-opacity="0.5715"/>
<stop offset="0.9324" stop-color="#FFFF52"/>
</radialGradient>
<radialGradient id="paint4_radial_44_982" cx="0" cy="0" r="1" gradientUnits="userSpaceOnUse" gradientTransform="translate(135.497 152.863) scale(41.2451 43.9241)">
<stop offset="0.3527" stop-color="white" stop-opacity="0"/>
<stop offset="0.4581" stop-color="#FFFFE5" stop-opacity="0.1819"/>
<stop offset="0.6839" stop-color="#FFFFA2" stop-opacity="0.5715"/>
<stop offset="0.9324" stop-color="#FFFF52"/>
</radialGradient>
<radialGradient id="paint5_radial_44_982" cx="0" cy="0" r="1" gradientUnits="userSpaceOnUse" gradientTransform="translate(135.497 152.863) scale(41.2451 43.924)">
<stop offset="0.3527" stop-color="white" stop-opacity="0"/>
<stop offset="0.4581" stop-color="#FFFFE5" stop-opacity="0.1819"/>
<stop offset="0.6839" stop-color="#FFFFA2" stop-opacity="0.5715"/>
<stop offset="0.9324" stop-color="#FFFF52"/>
</radialGradient>
<radialGradient id="paint6_radial_44_982" cx="0" cy="0" r="1" gradientUnits="userSpaceOnUse" gradientTransform="translate(135.497 152.863) scale(41.245 43.924)">
<stop offset="0.3527" stop-color="white" stop-opacity="0"/>
<stop offset="0.4581" stop-color="#FFFFE5" stop-opacity="0.1819"/>
<stop offset="0.6839" stop-color="#FFFFA2" stop-opacity="0.5715"/>
<stop offset="0.9324" stop-color="#FFFF52"/>
</radialGradient>
<radialGradient id="paint7_radial_44_982" cx="0" cy="0" r="1" gradientUnits="userSpaceOnUse" gradientTransform="translate(135.497 152.863) scale(41.2451 43.9241)">
<stop offset="0.3527" stop-color="white" stop-opacity="0"/>
<stop offset="0.4581" stop-color="#FFFFE5" stop-opacity="0.1819"/>
<stop offset="0.6839" stop-color="#FFFFA2" stop-opacity="0.5715"/>
<stop offset="0.9324" stop-color="#FFFF52"/>
</radialGradient>
<radialGradient id="paint8_radial_44_982" cx="0" cy="0" r="1" gradientUnits="userSpaceOnUse" gradientTransform="translate(135.497 152.863) scale(41.2451 43.9241)">
<stop offset="0.3527" stop-color="white" stop-opacity="0"/>
<stop offset="0.4581" stop-color="#FFFFE5" stop-opacity="0.1819"/>
<stop offset="0.6839" stop-color="#FFFFA2" stop-opacity="0.5715"/>
<stop offset="0.9324" stop-color="#FFFF52"/>
</radialGradient>
<radialGradient id="paint9_radial_44_982" cx="0" cy="0" r="1" gradientUnits="userSpaceOnUse" gradientTransform="translate(135.497 152.863) scale(41.2453 43.9242)">
<stop offset="0.3527" stop-color="white" stop-opacity="0"/>
<stop offset="0.4581" stop-color="#FFFFE5" stop-opacity="0.1819"/>
<stop offset="0.6839" stop-color="#FFFFA2" stop-opacity="0.5715"/>
<stop offset="0.9324" stop-color="#FFFF52"/>
</radialGradient>
<radialGradient id="paint10_radial_44_982" cx="0" cy="0" r="1" gradientUnits="userSpaceOnUse" gradientTransform="translate(135.497 152.863) scale(41.2451 43.9241)">
<stop offset="0.3527" stop-color="white" stop-opacity="0"/>
<stop offset="0.4581" stop-color="#FFFFE5" stop-opacity="0.1819"/>
<stop offset="0.6839" stop-color="#FFFFA2" stop-opacity="0.5715"/>
<stop offset="0.9324" stop-color="#FFFF52"/>
</radialGradient>
<radialGradient id="paint11_radial_44_982" cx="0" cy="0" r="1" gradientUnits="userSpaceOnUse" gradientTransform="translate(135.497 152.863) scale(41.2452 43.9242)">
<stop offset="0.3527" stop-color="white" stop-opacity="0"/>
<stop offset="0.4581" stop-color="#FFFFE5" stop-opacity="0.1819"/>
<stop offset="0.6839" stop-color="#FFFFA2" stop-opacity="0.5715"/>
<stop offset="0.9324" stop-color="#FFFF52"/>
</radialGradient>
<radialGradient id="paint12_radial_44_982" cx="0" cy="0" r="1" gradientUnits="userSpaceOnUse" gradientTransform="translate(135.497 152.863) scale(41.2452 43.9242)">
<stop offset="0.3527" stop-color="white" stop-opacity="0"/>
<stop offset="0.4581" stop-color="#FFFFE5" stop-opacity="0.1819"/>
<stop offset="0.6839" stop-color="#FFFFA2" stop-opacity="0.5715"/>
<stop offset="0.9324" stop-color="#FFFF52"/>
</radialGradient>
<radialGradient id="paint13_radial_44_982" cx="0" cy="0" r="1" gradientUnits="userSpaceOnUse" gradientTransform="translate(135.496 152.863) scale(41.245 43.924)">
<stop offset="0.3527" stop-color="white" stop-opacity="0"/>
<stop offset="0.4581" stop-color="#FFFFE5" stop-opacity="0.1819"/>
<stop offset="0.6839" stop-color="#FFFFA2" stop-opacity="0.5715"/>
<stop offset="0.9324" stop-color="#FFFF52"/>
</radialGradient>
<radialGradient id="paint14_radial_44_982" cx="0" cy="0" r="1" gradientUnits="userSpaceOnUse" gradientTransform="translate(135.497 152.863) scale(41.245 43.9237)">
<stop offset="0.3527" stop-color="white" stop-opacity="0"/>
<stop offset="0.4581" stop-color="#FFFFE5" stop-opacity="0.1819"/>
<stop offset="0.6839" stop-color="#FFFFA2" stop-opacity="0.5715"/>
<stop offset="0.9324" stop-color="#FFFF52"/>
</radialGradient>
<radialGradient id="paint15_radial_44_982" cx="0" cy="0" r="1" gradientUnits="userSpaceOnUse" gradientTransform="translate(135.497 152.863) scale(41.245 43.9239)">
<stop offset="0.3527" stop-color="white" stop-opacity="0"/>
<stop offset="0.4581" stop-color="#FFFFE5" stop-opacity="0.1819"/>
<stop offset="0.6839" stop-color="#FFFFA2" stop-opacity="0.5715"/>
<stop offset="0.9324" stop-color="#FFFF52"/>
</radialGradient>
<radialGradient id="paint16_radial_44_982" cx="0" cy="0" r="1" gradientUnits="userSpaceOnUse" gradientTransform="translate(135.497 152.863) scale(41.245 43.924)">
<stop offset="0.3527" stop-color="white" stop-opacity="0"/>
<stop offset="0.4581" stop-color="#FFFFE5" stop-opacity="0.1819"/>
<stop offset="0.6839" stop-color="#FFFFA2" stop-opacity="0.5715"/>
<stop offset="0.9324" stop-color="#FFFF52"/>
</radialGradient>
<radialGradient id="paint17_radial_44_982" cx="0" cy="0" r="1" gradientUnits="userSpaceOnUse" gradientTransform="translate(135.497 152.863) scale(41.245 43.9239)">
<stop offset="0.3527" stop-color="white" stop-opacity="0"/>
<stop offset="0.4581" stop-color="#FFFFE5" stop-opacity="0.1819"/>
<stop offset="0.6839" stop-color="#FFFFA2" stop-opacity="0.5715"/>
<stop offset="0.9324" stop-color="#FFFF52"/>
</radialGradient>
<radialGradient id="paint18_radial_44_982" cx="0" cy="0" r="1" gradientUnits="userSpaceOnUse" gradientTransform="translate(135.497 152.863) scale(41.245 43.9239)">
<stop offset="0.3527" stop-color="white" stop-opacity="0"/>
<stop offset="0.4581" stop-color="#FFFFE5" stop-opacity="0.1819"/>
<stop offset="0.6839" stop-color="#FFFFA2" stop-opacity="0.5715"/>
<stop offset="0.9324" stop-color="#FFFF52"/>
</radialGradient>
<radialGradient id="paint19_radial_44_982" cx="0" cy="0" r="1" gradientUnits="userSpaceOnUse" gradientTransform="translate(135.497 152.863) scale(41.2449 43.924)">
<stop offset="0.3527" stop-color="white" stop-opacity="0"/>
<stop offset="0.4581" stop-color="#FFFFE5" stop-opacity="0.1819"/>
<stop offset="0.6839" stop-color="#FFFFA2" stop-opacity="0.5715"/>
<stop offset="0.9324" stop-color="#FFFF52"/>
</radialGradient>
<radialGradient id="paint20_radial_44_982" cx="0" cy="0" r="1" gradientUnits="userSpaceOnUse" gradientTransform="translate(135.497 152.863) scale(41.2451 43.9241)">
<stop offset="0.3527" stop-color="white" stop-opacity="0"/>
<stop offset="0.4581" stop-color="#FFFFE5" stop-opacity="0.1819"/>
<stop offset="0.6839" stop-color="#FFFFA2" stop-opacity="0.5715"/>
<stop offset="0.9324" stop-color="#FFFF52"/>
</radialGradient>
<radialGradient id="paint21_radial_44_982" cx="0" cy="0" r="1" gradientUnits="userSpaceOnUse" gradientTransform="translate(135.497 152.863) scale(41.2449 43.9241)">
<stop offset="0.3527" stop-color="white" stop-opacity="0"/>
<stop offset="0.4581" stop-color="#FFFFE5" stop-opacity="0.1819"/>
<stop offset="0.6839" stop-color="#FFFFA2" stop-opacity="0.5715"/>
<stop offset="0.9324" stop-color="#FFFF52"/>
</radialGradient>
<radialGradient id="paint22_radial_44_982" cx="0" cy="0" r="1" gradientUnits="userSpaceOnUse" gradientTransform="translate(135.497 152.863) scale(41.2452 43.9241)">
<stop offset="0.3527" stop-color="white" stop-opacity="0"/>
<stop offset="0.4581" stop-color="#FFFFE5" stop-opacity="0.1819"/>
<stop offset="0.6839" stop-color="#FFFFA2" stop-opacity="0.5715"/>
<stop offset="0.9324" stop-color="#FFFF52"/>
</radialGradient>
<radialGradient id="paint23_radial_44_982" cx="0" cy="0" r="1" gradientUnits="userSpaceOnUse" gradientTransform="translate(135.497 152.863) scale(41.2451 43.9241)">
<stop offset="0.3527" stop-color="white" stop-opacity="0"/>
<stop offset="0.4581" stop-color="#FFFFE5" stop-opacity="0.1819"/>
<stop offset="0.6839" stop-color="#FFFFA2" stop-opacity="0.5715"/>
<stop offset="0.9324" stop-color="#FFFF52"/>
</radialGradient>
<radialGradient id="paint24_radial_44_982" cx="0" cy="0" r="1" gradientUnits="userSpaceOnUse" gradientTransform="translate(135.497 152.863) scale(41.245 43.924)">
<stop offset="0.3527" stop-color="white" stop-opacity="0"/>
<stop offset="0.4581" stop-color="#FFFFE5" stop-opacity="0.1819"/>
<stop offset="0.6839" stop-color="#FFFFA2" stop-opacity="0.5715"/>
<stop offset="0.9324" stop-color="#FFFF52"/>
</radialGradient>
<radialGradient id="paint25_radial_44_982" cx="0" cy="0" r="1" gradientUnits="userSpaceOnUse" gradientTransform="translate(135.497 152.863) scale(41.245 43.9237)">
<stop offset="0.3527" stop-color="white" stop-opacity="0"/>
<stop offset="0.4581" stop-color="#FFFFE5" stop-opacity="0.1819"/>
<stop offset="0.6839" stop-color="#FFFFA2" stop-opacity="0.5715"/>
<stop offset="0.9324" stop-color="#FFFF52"/>
</radialGradient>
<radialGradient id="paint26_radial_44_982" cx="0" cy="0" r="1" gradientUnits="userSpaceOnUse" gradientTransform="translate(135.497 152.863) scale(41.245 43.924)">
<stop offset="0.3527" stop-color="white" stop-opacity="0"/>
<stop offset="0.4581" stop-color="#FFFFE5" stop-opacity="0.1819"/>
<stop offset="0.6839" stop-color="#FFFFA2" stop-opacity="0.5715"/>
<stop offset="0.9324" stop-color="#FFFF52"/>
</radialGradient>
<radialGradient id="paint27_radial_44_982" cx="0" cy="0" r="1" gradientUnits="userSpaceOnUse" gradientTransform="translate(135.497 152.863) scale(41.2452 43.9237)">
<stop offset="0.3527" stop-color="white" stop-opacity="0"/>
<stop offset="0.4581" stop-color="#FFFFE5" stop-opacity="0.1819"/>
<stop offset="0.6839" stop-color="#FFFFA2" stop-opacity="0.5715"/>
<stop offset="0.9324" stop-color="#FFFF52"/>
</radialGradient>
<radialGradient id="paint28_radial_44_982" cx="0" cy="0" r="1" gradientUnits="userSpaceOnUse" gradientTransform="translate(135.497 152.863) scale(41.2451 43.9243)">
<stop offset="0.3527" stop-color="white" stop-opacity="0"/>
<stop offset="0.4581" stop-color="#FFFFE5" stop-opacity="0.1819"/>
<stop offset="0.6839" stop-color="#FFFFA2" stop-opacity="0.5715"/>
<stop offset="0.9324" stop-color="#FFFF52"/>
</radialGradient>
<radialGradient id="paint29_radial_44_982" cx="0" cy="0" r="1" gradientUnits="userSpaceOnUse" gradientTransform="translate(135.497 152.863) scale(41.245 43.924)">
<stop offset="0.3527" stop-color="white" stop-opacity="0"/>
<stop offset="0.4581" stop-color="#FFFFE5" stop-opacity="0.1819"/>
<stop offset="0.6839" stop-color="#FFFFA2" stop-opacity="0.5715"/>
<stop offset="0.9324" stop-color="#FFFF52"/>
</radialGradient>
<radialGradient id="paint30_radial_44_982" cx="0" cy="0" r="1" gradientUnits="userSpaceOnUse" gradientTransform="translate(135.497 152.863) scale(41.2449 43.9239)">
<stop offset="0.3527" stop-color="white" stop-opacity="0"/>
<stop offset="0.4581" stop-color="#FFFFE5" stop-opacity="0.1819"/>
<stop offset="0.6839" stop-color="#FFFFA2" stop-opacity="0.5715"/>
<stop offset="0.9324" stop-color="#FFFF52"/>
</radialGradient>
<radialGradient id="paint31_radial_44_982" cx="0" cy="0" r="1" gradientUnits="userSpaceOnUse" gradientTransform="translate(135.497 152.863) scale(41.2451 43.924)">
<stop offset="0.3527" stop-color="white" stop-opacity="0"/>
<stop offset="0.4581" stop-color="#FFFFE5" stop-opacity="0.1819"/>
<stop offset="0.6839" stop-color="#FFFFA2" stop-opacity="0.5715"/>
<stop offset="0.9324" stop-color="#FFFF52"/>
</radialGradient>
<radialGradient id="paint32_radial_44_982" cx="0" cy="0" r="1" gradientUnits="userSpaceOnUse" gradientTransform="translate(135.496 152.863) scale(41.245 43.924)">
<stop offset="0.3527" stop-color="white" stop-opacity="0"/>
<stop offset="0.4581" stop-color="#FFFFE5" stop-opacity="0.1819"/>
<stop offset="0.6839" stop-color="#FFFFA2" stop-opacity="0.5715"/>
<stop offset="0.9324" stop-color="#FFFF52"/>
</radialGradient>
<radialGradient id="paint33_radial_44_982" cx="0" cy="0" r="1" gradientUnits="userSpaceOnUse" gradientTransform="translate(135.497 152.863) scale(41.245 43.924)">
<stop offset="0.3527" stop-color="white" stop-opacity="0"/>
<stop offset="0.4581" stop-color="#FFFFE5" stop-opacity="0.1819"/>
<stop offset="0.6839" stop-color="#FFFFA2" stop-opacity="0.5715"/>
<stop offset="0.9324" stop-color="#FFFF52"/>
</radialGradient>
<radialGradient id="paint34_radial_44_982" cx="0" cy="0" r="1" gradientUnits="userSpaceOnUse" gradientTransform="translate(135.497 152.863) scale(41.2451 43.924)">
<stop offset="0.3527" stop-color="white" stop-opacity="0"/>
<stop offset="0.4581" stop-color="#FFFFE5" stop-opacity="0.1819"/>
<stop offset="0.6839" stop-color="#FFFFA2" stop-opacity="0.5715"/>
<stop offset="0.9324" stop-color="#FFFF52"/>
</radialGradient>
<radialGradient id="paint35_radial_44_982" cx="0" cy="0" r="1" gradientUnits="userSpaceOnUse" gradientTransform="translate(135.497 152.863) scale(41.2454 43.9244)">
<stop offset="0.3527" stop-color="white" stop-opacity="0"/>
<stop offset="0.4581" stop-color="#FFFFE5" stop-opacity="0.1819"/>
<stop offset="0.6839" stop-color="#FFFFA2" stop-opacity="0.5715"/>
<stop offset="0.9324" stop-color="#FFFF52"/>
</radialGradient>
<radialGradient id="paint36_radial_44_982" cx="0" cy="0" r="1" gradientUnits="userSpaceOnUse" gradientTransform="translate(135.497 152.863) scale(41.2451 43.9242)">
<stop offset="0.3527" stop-color="white" stop-opacity="0"/>
<stop offset="0.4581" stop-color="#FFFFE5" stop-opacity="0.1819"/>
<stop offset="0.6839" stop-color="#FFFFA2" stop-opacity="0.5715"/>
<stop offset="0.9324" stop-color="#FFFF52"/>
</radialGradient>
<radialGradient id="paint37_radial_44_982" cx="0" cy="0" r="1" gradientUnits="userSpaceOnUse" gradientTransform="translate(135.497 152.863) scale(41.245 43.924)">
<stop offset="0.3527" stop-color="white" stop-opacity="0"/>
<stop offset="0.4581" stop-color="#FFFFE5" stop-opacity="0.1819"/>
<stop offset="0.6839" stop-color="#FFFFA2" stop-opacity="0.5715"/>
<stop offset="0.9324" stop-color="#FFFF52"/>
</radialGradient>
<radialGradient id="paint38_radial_44_982" cx="0" cy="0" r="1" gradientUnits="userSpaceOnUse" gradientTransform="translate(135.497 152.863) scale(41.245 43.924)">
<stop offset="0.3527" stop-color="white" stop-opacity="0"/>
<stop offset="0.4581" stop-color="#FFFFE5" stop-opacity="0.1819"/>
<stop offset="0.6839" stop-color="#FFFFA2" stop-opacity="0.5715"/>
<stop offset="0.9324" stop-color="#FFFF52"/>
</radialGradient>
<radialGradient id="paint39_radial_44_982" cx="0" cy="0" r="1" gradientUnits="userSpaceOnUse" gradientTransform="translate(135.497 152.863) scale(41.2451 43.9241)">
<stop offset="0.3527" stop-color="white" stop-opacity="0"/>
<stop offset="0.4581" stop-color="#FFFFE5" stop-opacity="0.1819"/>
<stop offset="0.6839" stop-color="#FFFFA2" stop-opacity="0.5715"/>
<stop offset="0.9324" stop-color="#FFFF52"/>
</radialGradient>
<radialGradient id="paint40_radial_44_982" cx="0" cy="0" r="1" gradientUnits="userSpaceOnUse" gradientTransform="translate(135.497 152.863) scale(41.245 43.924)">
<stop offset="0.3527" stop-color="white" stop-opacity="0"/>
<stop offset="0.4581" stop-color="#FFFFE5" stop-opacity="0.1819"/>
<stop offset="0.6839" stop-color="#FFFFA2" stop-opacity="0.5715"/>
<stop offset="0.9324" stop-color="#FFFF52"/>
</radialGradient>
<radialGradient id="paint41_radial_44_982" cx="0" cy="0" r="1" gradientUnits="userSpaceOnUse" gradientTransform="translate(135.497 152.863) scale(41.245 43.9242)">
<stop offset="0.3527" stop-color="white" stop-opacity="0"/>
<stop offset="0.4581" stop-color="#FFFFE5" stop-opacity="0.1819"/>
<stop offset="0.6839" stop-color="#FFFFA2" stop-opacity="0.5715"/>
<stop offset="0.9324" stop-color="#FFFF52"/>
</radialGradient>
<radialGradient id="paint42_radial_44_982" cx="0" cy="0" r="1" gradientUnits="userSpaceOnUse" gradientTransform="translate(135.497 152.863) scale(41.245 43.9239)">
<stop offset="0.3527" stop-color="white" stop-opacity="0"/>
<stop offset="0.4581" stop-color="#FFFFE5" stop-opacity="0.1819"/>
<stop offset="0.6839" stop-color="#FFFFA2" stop-opacity="0.5715"/>
<stop offset="0.9324" stop-color="#FFFF52"/>
</radialGradient>
<radialGradient id="paint43_radial_44_982" cx="0" cy="0" r="1" gradientUnits="userSpaceOnUse" gradientTransform="translate(135.497 152.863) scale(41.2451 43.9241)">
<stop offset="0.3527" stop-color="white" stop-opacity="0"/>
<stop offset="0.4581" stop-color="#FFFFE5" stop-opacity="0.1819"/>
<stop offset="0.6839" stop-color="#FFFFA2" stop-opacity="0.5715"/>
<stop offset="0.9324" stop-color="#FFFF52"/>
</radialGradient>
<radialGradient id="paint44_radial_44_982" cx="0" cy="0" r="1" gradientUnits="userSpaceOnUse" gradientTransform="translate(135.497 152.863) scale(41.2451 43.9241)">
<stop offset="0.3527" stop-color="white" stop-opacity="0"/>
<stop offset="0.4581" stop-color="#FFFFE5" stop-opacity="0.1819"/>
<stop offset="0.6839" stop-color="#FFFFA2" stop-opacity="0.5715"/>
<stop offset="0.9324" stop-color="#FFFF52"/>
</radialGradient>
<radialGradient id="paint45_radial_44_982" cx="0" cy="0" r="1" gradientUnits="userSpaceOnUse" gradientTransform="translate(135.497 152.863) scale(41.2451 43.9241)">
<stop offset="0.3527" stop-color="white" stop-opacity="0"/>
<stop offset="0.4581" stop-color="#FFFFE5" stop-opacity="0.1819"/>
<stop offset="0.6839" stop-color="#FFFFA2" stop-opacity="0.5715"/>
<stop offset="0.9324" stop-color="#FFFF52"/>
</radialGradient>
<radialGradient id="paint46_radial_44_982" cx="0" cy="0" r="1" gradientUnits="userSpaceOnUse" gradientTransform="translate(135.497 152.863) scale(41.245 43.9239)">
<stop offset="0.3527" stop-color="white" stop-opacity="0"/>
<stop offset="0.4581" stop-color="#FFFFE5" stop-opacity="0.1819"/>
<stop offset="0.6839" stop-color="#FFFFA2" stop-opacity="0.5715"/>
<stop offset="0.9324" stop-color="#FFFF52"/>
</radialGradient>
<radialGradient id="paint47_radial_44_982" cx="0" cy="0" r="1" gradientUnits="userSpaceOnUse" gradientTransform="translate(135.497 152.863) scale(41.2451 43.9241)">
<stop offset="0.3527" stop-color="white" stop-opacity="0"/>
<stop offset="0.4581" stop-color="#FFFFE5" stop-opacity="0.1819"/>
<stop offset="0.6839" stop-color="#FFFFA2" stop-opacity="0.5715"/>
<stop offset="0.9324" stop-color="#FFFF52"/>
</radialGradient>
<radialGradient id="paint48_radial_44_982" cx="0" cy="0" r="1" gradientUnits="userSpaceOnUse" gradientTransform="translate(135.497 152.863) scale(41.2449 43.9238)">
<stop offset="0.3527" stop-color="white" stop-opacity="0"/>
<stop offset="0.4581" stop-color="#FFFFE5" stop-opacity="0.1819"/>
<stop offset="0.6839" stop-color="#FFFFA2" stop-opacity="0.5715"/>
<stop offset="0.9324" stop-color="#FFFF52"/>
</radialGradient>
<radialGradient id="paint49_radial_44_982" cx="0" cy="0" r="1" gradientUnits="userSpaceOnUse" gradientTransform="translate(135.497 152.863) scale(41.2451 43.9241)">
<stop offset="0.3527" stop-color="white" stop-opacity="0"/>
<stop offset="0.4581" stop-color="#FFFFE5" stop-opacity="0.1819"/>
<stop offset="0.6839" stop-color="#FFFFA2" stop-opacity="0.5715"/>
<stop offset="0.9324" stop-color="#FFFF52"/>
</radialGradient>
<radialGradient id="paint50_radial_44_982" cx="0" cy="0" r="1" gradientUnits="userSpaceOnUse" gradientTransform="translate(135.497 152.863) scale(41.2449 43.9239)">
<stop offset="0.3527" stop-color="white" stop-opacity="0"/>
<stop offset="0.4581" stop-color="#FFFFE5" stop-opacity="0.1819"/>
<stop offset="0.6839" stop-color="#FFFFA2" stop-opacity="0.5715"/>
<stop offset="0.9324" stop-color="#FFFF52"/>
</radialGradient>
<radialGradient id="paint51_radial_44_982" cx="0" cy="0" r="1" gradientUnits="userSpaceOnUse" gradientTransform="translate(135.497 152.863) scale(41.245 43.924)">
<stop offset="0.3527" stop-color="white" stop-opacity="0"/>
<stop offset="0.4581" stop-color="#FFFFE5" stop-opacity="0.1819"/>
<stop offset="0.6839" stop-color="#FFFFA2" stop-opacity="0.5715"/>
<stop offset="0.9324" stop-color="#FFFF52"/>
</radialGradient>
<radialGradient id="paint52_radial_44_982" cx="0" cy="0" r="1" gradientUnits="userSpaceOnUse" gradientTransform="translate(135.497 152.863) scale(41.2452 43.9234)">
<stop offset="0.3527" stop-color="white" stop-opacity="0"/>
<stop offset="0.4581" stop-color="#FFFFE5" stop-opacity="0.1819"/>
<stop offset="0.6839" stop-color="#FFFFA2" stop-opacity="0.5715"/>
<stop offset="0.9324" stop-color="#FFFF52"/>
</radialGradient>
<radialGradient id="paint53_radial_44_982" cx="0" cy="0" r="1" gradientUnits="userSpaceOnUse" gradientTransform="translate(135.497 152.863) scale(41.245 43.924)">
<stop offset="0.3527" stop-color="white" stop-opacity="0"/>
<stop offset="0.4581" stop-color="#FFFFE5" stop-opacity="0.1819"/>
<stop offset="0.6839" stop-color="#FFFFA2" stop-opacity="0.5715"/>
<stop offset="0.9324" stop-color="#FFFF52"/>
</radialGradient>
<radialGradient id="paint54_radial_44_982" cx="0" cy="0" r="1" gradientUnits="userSpaceOnUse" gradientTransform="translate(135.497 152.863) scale(41.245 43.9239)">
<stop offset="0.3527" stop-color="white" stop-opacity="0"/>
<stop offset="0.4581" stop-color="#FFFFE5" stop-opacity="0.1819"/>
<stop offset="0.6839" stop-color="#FFFFA2" stop-opacity="0.5715"/>
<stop offset="0.9324" stop-color="#FFFF52"/>
</radialGradient>
<radialGradient id="paint55_radial_44_982" cx="0" cy="0" r="1" gradientUnits="userSpaceOnUse" gradientTransform="translate(135.497 152.863) scale(41.245 43.924)">
<stop offset="0.3527" stop-color="white" stop-opacity="0"/>
<stop offset="0.4581" stop-color="#FFFFE5" stop-opacity="0.1819"/>
<stop offset="0.6839" stop-color="#FFFFA2" stop-opacity="0.5715"/>
<stop offset="0.9324" stop-color="#FFFF52"/>
</radialGradient>
<radialGradient id="paint56_radial_44_982" cx="0" cy="0" r="1" gradientUnits="userSpaceOnUse" gradientTransform="translate(135.497 152.863) scale(41.245 43.9238)">
<stop offset="0.3527" stop-color="white" stop-opacity="0"/>
<stop offset="0.4581" stop-color="#FFFFE5" stop-opacity="0.1819"/>
<stop offset="0.6839" stop-color="#FFFFA2" stop-opacity="0.5715"/>
<stop offset="0.9324" stop-color="#FFFF52"/>
</radialGradient>
<radialGradient id="paint57_radial_44_982" cx="0" cy="0" r="1" gradientUnits="userSpaceOnUse" gradientTransform="translate(135.497 152.863) scale(41.2451 43.9241)">
<stop offset="0.3527" stop-color="white" stop-opacity="0"/>
<stop offset="0.4581" stop-color="#FFFFE5" stop-opacity="0.1819"/>
<stop offset="0.6839" stop-color="#FFFFA2" stop-opacity="0.5715"/>
<stop offset="0.9324" stop-color="#FFFF52"/>
</radialGradient>
<radialGradient id="paint58_radial_44_982" cx="0" cy="0" r="1" gradientUnits="userSpaceOnUse" gradientTransform="translate(135.497 152.863) scale(41.2438 43.924)">
<stop offset="0.3527" stop-color="white" stop-opacity="0"/>
<stop offset="0.4581" stop-color="#FFFFE5" stop-opacity="0.1819"/>
<stop offset="0.6839" stop-color="#FFFFA2" stop-opacity="0.5715"/>
<stop offset="0.9324" stop-color="#FFFF52"/>
</radialGradient>
<radialGradient id="paint59_radial_44_982" cx="0" cy="0" r="1" gradientUnits="userSpaceOnUse" gradientTransform="translate(135.497 152.863) scale(41.2451 43.9241)">
<stop offset="0.3527" stop-color="white" stop-opacity="0"/>
<stop offset="0.4581" stop-color="#FFFFE5" stop-opacity="0.1819"/>
<stop offset="0.6839" stop-color="#FFFFA2" stop-opacity="0.5715"/>
<stop offset="0.9324" stop-color="#FFFF52"/>
</radialGradient>
<radialGradient id="paint60_radial_44_982" cx="0" cy="0" r="1" gradientUnits="userSpaceOnUse" gradientTransform="translate(135.497 152.863) scale(41.245 43.9239)">
<stop offset="0.3527" stop-color="white" stop-opacity="0"/>
<stop offset="0.4581" stop-color="#FFFFE5" stop-opacity="0.1819"/>
<stop offset="0.6839" stop-color="#FFFFA2" stop-opacity="0.5715"/>
<stop offset="0.9324" stop-color="#FFFF52"/>
</radialGradient>
<radialGradient id="paint61_radial_44_982" cx="0" cy="0" r="1" gradientUnits="userSpaceOnUse" gradientTransform="translate(135.497 152.863) scale(41.245 43.924)">
<stop offset="0.3527" stop-color="white" stop-opacity="0"/>
<stop offset="0.4581" stop-color="#FFFFE5" stop-opacity="0.1819"/>
<stop offset="0.6839" stop-color="#FFFFA2" stop-opacity="0.5715"/>
<stop offset="0.9324" stop-color="#FFFF52"/>
</radialGradient>
<radialGradient id="paint62_radial_44_982" cx="0" cy="0" r="1" gradientUnits="userSpaceOnUse" gradientTransform="translate(135.497 152.863) scale(41.2451 43.9241)">
<stop offset="0.3527" stop-color="white" stop-opacity="0"/>
<stop offset="0.4581" stop-color="#FFFFE5" stop-opacity="0.1819"/>
<stop offset="0.6839" stop-color="#FFFFA2" stop-opacity="0.5715"/>
<stop offset="0.9324" stop-color="#FFFF52"/>
</radialGradient>
<radialGradient id="paint63_radial_44_982" cx="0" cy="0" r="1" gradientUnits="userSpaceOnUse" gradientTransform="translate(135.496 152.863) scale(41.2451 43.9241)">
<stop offset="0.3527" stop-color="white" stop-opacity="0"/>
<stop offset="0.4581" stop-color="#FFFFE5" stop-opacity="0.1819"/>
<stop offset="0.6839" stop-color="#FFFFA2" stop-opacity="0.5715"/>
<stop offset="0.9324" stop-color="#FFFF52"/>
</radialGradient>
<radialGradient id="paint64_radial_44_982" cx="0" cy="0" r="1" gradientUnits="userSpaceOnUse" gradientTransform="translate(135.497 152.863) scale(41.2451 43.9241)">
<stop offset="0.3527" stop-color="white" stop-opacity="0"/>
<stop offset="0.4581" stop-color="#FFFFE5" stop-opacity="0.1819"/>
<stop offset="0.6839" stop-color="#FFFFA2" stop-opacity="0.5715"/>
<stop offset="0.9324" stop-color="#FFFF52"/>
</radialGradient>
<radialGradient id="paint65_radial_44_982" cx="0" cy="0" r="1" gradientUnits="userSpaceOnUse" gradientTransform="translate(135.497 152.863) scale(41.245 43.924)">
<stop offset="0.3527" stop-color="white" stop-opacity="0"/>
<stop offset="0.4581" stop-color="#FFFFE5" stop-opacity="0.1819"/>
<stop offset="0.6839" stop-color="#FFFFA2" stop-opacity="0.5715"/>
<stop offset="0.9324" stop-color="#FFFF52"/>
</radialGradient>
<radialGradient id="paint66_radial_44_982" cx="0" cy="0" r="1" gradientUnits="userSpaceOnUse" gradientTransform="translate(135.497 152.863) scale(41.2451 43.924)">
<stop offset="0.3527" stop-color="white" stop-opacity="0"/>
<stop offset="0.4581" stop-color="#FFFFE5" stop-opacity="0.1819"/>
<stop offset="0.6839" stop-color="#FFFFA2" stop-opacity="0.5715"/>
<stop offset="0.9324" stop-color="#FFFF52"/>
</radialGradient>
<radialGradient id="paint67_radial_44_982" cx="0" cy="0" r="1" gradientUnits="userSpaceOnUse" gradientTransform="translate(135.497 152.863) scale(41.2451 43.9241)">
<stop offset="0.3527" stop-color="white" stop-opacity="0"/>
<stop offset="0.4581" stop-color="#FFFFE5" stop-opacity="0.1819"/>
<stop offset="0.6839" stop-color="#FFFFA2" stop-opacity="0.5715"/>
<stop offset="0.9324" stop-color="#FFFF52"/>
</radialGradient>
<radialGradient id="paint68_radial_44_982" cx="0" cy="0" r="1" gradientUnits="userSpaceOnUse" gradientTransform="translate(135.497 152.863) scale(41.2451 43.924)">
<stop offset="0.3527" stop-color="white" stop-opacity="0"/>
<stop offset="0.4581" stop-color="#FFFFE5" stop-opacity="0.1819"/>
<stop offset="0.6839" stop-color="#FFFFA2" stop-opacity="0.5715"/>
<stop offset="0.9324" stop-color="#FFFF52"/>
</radialGradient>
<radialGradient id="paint69_radial_44_982" cx="0" cy="0" r="1" gradientUnits="userSpaceOnUse" gradientTransform="translate(135.497 152.863) scale(41.2451 43.9241)">
<stop offset="0.3527" stop-color="white" stop-opacity="0"/>
<stop offset="0.4581" stop-color="#FFFFE5" stop-opacity="0.1819"/>
<stop offset="0.6839" stop-color="#FFFFA2" stop-opacity="0.5715"/>
<stop offset="0.9324" stop-color="#FFFF52"/>
</radialGradient>
</defs>
</svg>
