<svg width="602" height="416" viewBox="0 0 602 416" fill="none" xmlns="http://www.w3.org/2000/svg">
<rect width="601.714" height="416" rx="14" fill="black" fill-opacity="0.05"/>
<path d="M71.5847 161.917H49.7645V145.945H110.624V161.917H89.1683V248.887H71.2658L71.5847 161.917Z" fill="#280F01"/>
<mask id="mask0_25_240" style="mask-type:luminance" maskUnits="userSpaceOnUse" x="395" y="145" width="62" height="104">
<path d="M417.518 161.917H395.698V145.945H456.557V161.917H435.102V248.887H417.199L417.518 161.917Z" fill="white"/>
</mask>
<g mask="url(#mask0_25_240)">
<path d="M435.102 197.618H405.993L375.244 134.672L466.078 139.458L460.703 177.173L435.102 197.618Z" fill="#FFBC45"/>
</g>
<mask id="mask1_25_240" style="mask-type:luminance" maskUnits="userSpaceOnUse" x="395" y="145" width="62" height="104">
<path d="M417.518 161.917H395.698V145.945H456.557V161.917H435.102V248.887H417.199L417.518 161.917Z" fill="white"/>
</mask>
<g mask="url(#mask1_25_240)">
<path d="M461.432 197.618H391.962V250.319H461.432V197.618Z" fill="#ED4860"/>
</g>
<path d="M160.915 161.604C172.987 161.604 182.781 171.222 182.781 183.078C182.781 194.933 172.987 204.552 160.915 204.552C148.843 204.552 139.049 194.933 139.049 183.078C139.049 171.222 148.843 161.604 160.915 161.604ZM160.915 146.84C140.598 146.84 124.017 163.08 124.017 183.078C124.017 203.076 140.553 219.316 160.915 219.316C181.278 219.316 197.813 203.076 197.813 183.078C197.813 163.08 181.278 146.84 160.915 146.84Z" fill="#FFBC45"/>
<path d="M195.581 232.424H126.112V248.887H195.581V232.424Z" fill="#ED4860"/>
<path d="M248.651 145.945H221.638V248.887H248.651C277.578 248.887 301.038 225.847 301.038 197.439C301.038 168.985 277.578 145.945 248.651 145.945ZM282.497 197.618C282.497 216.721 269.378 232.155 253.161 232.155H238.037V163.035H253.161C269.378 163.035 282.497 178.515 282.497 197.618Z" fill="#280F01"/>
<path d="M350.281 143.53L308.873 248.843H327.094L331.65 236.853H368.776L373.331 248.843H391.689L350.281 143.53ZM337.162 222.671L350.281 187.686L364.038 222.671H337.162Z" fill="#280F01"/>
<path d="M541.97 163.527V145.945H471.18V160.664V163.527V189.118V206.699V231.305V238.329V248.887H541.97V231.305H489.083V206.699H533.178V189.118H489.083V163.527H541.97Z" fill="#280F01"/>
<path d="M427.995 257.745H407.041C407.041 257.745 372.329 321.184 301.038 321.229C229.746 321.273 198.497 286.736 184.375 257.745H162.555C162.555 257.745 182.006 310.178 245.144 331.787C279.491 343.553 316.981 342.121 350.873 329.237C395.333 312.326 413.828 283.022 427.995 257.745Z" fill="#FFBC45"/>
<path d="M427.995 134.672H407.041C407.041 134.672 372.329 71.2332 301.038 71.1885C229.746 71.1437 198.497 105.681 184.375 134.672H162.555C162.555 134.672 182.006 82.2387 245.144 60.6303C279.491 48.8642 316.981 50.2959 350.873 63.1804C395.333 80.0913 413.828 109.395 427.995 134.672Z" fill="#ED4860"/>
</svg>
