<?xml version="1.0" encoding="utf-8"?>
<!-- Generator: Adobe Illustrator 27.8.1, SVG Export Plug-In . SVG Version: 6.00 Build 0)  -->
<svg version="1.1" id="OBJECTS" xmlns="http://www.w3.org/2000/svg" xmlns:xlink="http://www.w3.org/1999/xlink" x="0px" y="0px"
	 viewBox="0 0 750 500" style="enable-background:new 0 0 750 500;" xml:space="preserve">
<style type="text/css">
	.st0{fill:#FFFFFF;stroke:#000000;stroke-miterlimit:10;}
	.st1{fill:#FCE207;stroke:#000000;stroke-miterlimit:10;}
	.st2{fill:none;stroke:#000000;stroke-miterlimit:10;}
	.st3{fill:#762AE2;stroke:#000000;stroke-miterlimit:10;}
	.st4{fill:#FFFFFF;}
	.st5{fill:#FF739E;}
	.st6{fill:none;stroke:#000000;stroke-width:2;stroke-miterlimit:10;}
	.st7{fill:#FF739E;stroke:#1C191B;stroke-miterlimit:10;}
	.st8{fill:#0C0C0C;}
	.st9{fill:#FFFDFD;}
	.st10{fill:#F9B4CD;}
	.st11{fill:#FF6989;}
	.st12{fill:#020202;}
	.st13{fill:none;stroke:#1C191B;stroke-miterlimit:10;}
</style>
<g>
	<g>
		<g>
			<g>
				<g>
					<g>
						<polygon class="st0" points="167.9,323 133.6,322.5 134.8,302.3 169.8,302.8 						"/>
						<g>
							<path class="st1" d="M163.6,306.9c2.1,0,3.8,1.8,3.8,3.9c0,2.1-1.8,3.8-3.9,3.8c-2.1,0-3.8-1.8-3.8-3.9
								C159.7,308.6,161.5,306.9,163.6,306.9z"/>
							<path class="st1" d="M153.8,302.6c2,0,3.5,1.6,3.5,3.6c0,2-1.6,3.5-3.6,3.5c-2,0-3.5-1.6-3.5-3.6
								C150.2,304.1,151.8,302.6,153.8,302.6z"/>
							<path class="st1" d="M145.9,310c1.9,0,3.4,1.6,3.4,3.5c0,1.9-1.6,3.4-3.5,3.4c-1.9,0-3.4-1.6-3.4-3.5
								C142.5,311.5,144,309.9,145.9,310z"/>
							<path class="st1" d="M151.6,321c0,0.6,0.1,1.2,0.4,1.8l7.3,0.1c0.3-0.5,0.4-1.1,0.4-1.7c0-2.2-1.8-4.1-4-4.1
								C153.5,317,151.6,318.7,151.6,321z"/>
							<path class="st1" d="M139.7,322.6c0-0.2,0.1-0.5,0.1-0.7c0-2.3-1.8-4.2-4.1-4.3c-0.6,0-1.2,0.1-1.8,0.4l-0.3,4.5L139.7,322.6
								z"/>
							<path class="st1" d="M135.1,302.3c-0.2,0.2-0.3,0.5-0.4,0.8l-0.1,2c0.4,1.6,1.7,2.7,3.4,2.7c2,0,3.6-1.5,3.6-3.5
								c0-0.7-0.2-1.4-0.6-2L135.1,302.3z"/>
						</g>
					</g>
					<g>
						<polygon class="st0" points="200.9,363.7 201.3,297.4 162.1,298.7 164,329.8 179.3,330.8 						"/>
						<g>
							<g>
								<line class="st2" x1="184.5" y1="344.2" x2="193.6" y2="340.2"/>
								<line class="st2" x1="181.2" y1="338.1" x2="190.3" y2="334"/>
							</g>
							<g>
								<path class="st2" d="M179.9,333.4c0,0-7,17-11.9,14.2C160.3,343.1,179.9,333.4,179.9,333.4z"/>
								<line class="st2" x1="163.4" y1="337.2" x2="180.2" y2="333"/>
							</g>
						</g>
						<path class="st3" d="M179.7,307.6c4.3,0,7.8,3.5,7.7,7.8c0,4.3-3.5,7.8-7.8,7.7c-4.3,0-7.8-3.5-7.7-7.8
							C171.9,311.1,175.4,307.6,179.7,307.6z"/>
					</g>
				</g>
				<g>
					<path class="st0" d="M148.7,297.7l-3,30.5c0,0-42.4,2.4-59.8-14.7c-17.4-17.1-13.4-40.7,10.1-63.8
						c23.5-23.1,42.9-31.9,42.9-31.9l43.3,2c0,0-58.1,41.4-62.3,61.4C117.3,293.8,130,294.7,148.7,297.7z"/>
					<g>
						<path d="M177.6,219.6l-0.9,0v4.3c0.3-0.2,0.6-0.5,0.9-0.7V219.6z"/>
						<path d="M158.1,234.5v3.9c0.3-0.3,0.6-0.5,0.9-0.8v-3.2h3.9c0.4-0.3,0.8-0.6,1.2-0.9h-5.1v-14.8l-0.9,0v14.9h-17.6v-15.7
							l-0.9,0v15.7H122V228c-0.3,0.2-0.6,0.4-0.9,0.6v4.9h-6.6c-0.4,0.3-0.8,0.6-1.2,0.9h7.8v17.6h-17.6v-9.4
							c-0.3,0.3-0.6,0.5-0.9,0.8v8.5h-8.9c-0.3,0.3-0.6,0.6-0.9,0.9h9.7v17.6H84.9v-8c-0.3,0.5-0.6,0.9-0.9,1.4v6.6h-3.9
							c-0.2,0.3-0.3,0.6-0.5,0.9H84v17.6h-8.8c0,0.3,0,0.6,0,0.9H84v17.6h-3c0.2,0.3,0.4,0.6,0.6,0.9H84v2.9c0.3,0.3,0.6,0.7,0.9,1
							v-3.9h17.6V323c0.3,0.1,0.6,0.2,0.9,0.3v-14.7h17.6v17.6h-5.8c2.3,0.4,4.5,0.7,6.7,1v-0.1h17.6v1.2c0.3,0,0.6,0,0.9,0v-1.2
							h5.3l0.1-0.9h-5.4v-17.6h7.1l0.1-0.9h-7.2v-11.3c-0.3,0-0.6-0.1-0.9-0.1v11.4H122v-17.4c-0.4-0.4-0.7-0.7-1-1.1h-17.6v-17.6
							h17.6v6.2c0.3-0.6,0.6-1.3,0.9-1.9v-4.3h2.7c0.2-0.3,0.4-0.6,0.7-0.9H122V253h17.6v1.8c0.3-0.3,0.6-0.6,0.9-0.9V253h0.9
							c0.3-0.3,0.7-0.6,1-0.9h-1.9v-17.6H158.1z M102.6,307.7H84.9v-17.6h17.6V307.7z M102.6,289.2H84.9v-17.6h17.6V289.2z
							 M122,308.6h17.6v17.6H122V308.6z M121.1,290.1v17.6h-17.6v-17.6H121.1z M121.1,270.6h-17.6V253h17.6V270.6z M139.6,252.1H122
							v-17.6h17.6V252.1z"/>
					</g>
				</g>
			</g>
			<g>
				<g>
					<g>
						<polygon class="st0" points="136.3,403.8 136.7,369.5 156.8,370.5 156.5,405.6 						"/>
						<g>
							<path class="st1" d="M152.3,399.4c0,2.1-1.7,3.8-3.9,3.8c-2.1,0-3.8-1.7-3.8-3.9c0-2.1,1.7-3.8,3.9-3.8
								C150.7,395.5,152.4,397.2,152.3,399.4z"/>
							<path class="st1" d="M156.6,389.5c0,2-1.6,3.5-3.6,3.5c-2,0-3.5-1.6-3.5-3.6c0-2,1.6-3.5,3.6-3.5
								C155.1,386,156.7,387.6,156.6,389.5z"/>
							<path class="st1" d="M149.2,381.7c0,1.9-1.6,3.4-3.5,3.4c-1.9,0-3.4-1.6-3.4-3.5c0-1.9,1.6-3.4,3.5-3.4
								C147.7,378.2,149.2,379.8,149.2,381.7z"/>
							<path class="st1" d="M138.2,387.4c-0.6,0-1.2,0.1-1.8,0.4l-0.1,7.3c0.5,0.3,1.1,0.4,1.7,0.4c2.2,0,4.1-1.8,4.1-4
								C142.3,389.3,140.5,387.5,138.2,387.4z"/>
							<path class="st1" d="M136.6,375.5c0.2,0,0.5,0.1,0.7,0.1c2.3,0,4.2-1.8,4.2-4.2c0-0.6-0.1-1.2-0.4-1.8l-4.5-0.2L136.6,375.5z
								"/>
							<path class="st1" d="M156.8,370.9c-0.2-0.2-0.5-0.3-0.8-0.4l-2-0.1c-1.5,0.4-2.7,1.8-2.7,3.4c0,2,1.6,3.6,3.5,3.6
								c0.7,0,1.4-0.2,2-0.6L156.8,370.9z"/>
						</g>
					</g>
					<g>
						<polygon class="st0" points="96,438.7 162.3,438.8 160.9,399.6 129.8,401.6 128.8,416.9 						"/>
						<g>
							<g>
								<line class="st2" x1="115.5" y1="422.2" x2="119.6" y2="431.3"/>
								<line class="st2" x1="121.6" y1="418.9" x2="125.7" y2="427.9"/>
							</g>
							<g>
								<path class="st2" d="M126.2,417.5c0,0-17.1-7-14.2-11.8C116.5,397.9,126.2,417.5,126.2,417.5z"/>
								<line class="st2" x1="122.5" y1="401" x2="126.7" y2="417.8"/>
							</g>
						</g>
						
							<ellipse transform="matrix(0.1602 -0.9871 0.9871 0.1602 -290.6547 492.7626)" class="st3" cx="144.3" cy="417.2" rx="7.8" ry="7.8"/>
					</g>
				</g>
				<g>
					<g>
						<polygon class="st0" points="130,383.1 162.3,383.6 184.9,214.9 134.6,216.2 						"/>
						<path d="M179.7,244.2v9.5l0.9-6.9v-2.6h0.4l0.1-0.9h-0.5v-17.6h2.8l0.1-0.9h-3V215l-0.9,0v9.7h-17.6v-9.3l-0.9,0v9.2h-17.6
							v-8.8l-0.9,0v8.8h-8.2l0,0.9h8.3v17.6h-8.8l0,0.9h8.8v17.6h-9.3l0,0.9h9.3v17.6h-9.8l0,0.9h9.8v17.6h-10.3l0,0.9h10.3v17.6
							h-10.8l0,0.9h10.8v17.6h-11.3l0,0.9h11.3v17.6h-11.8l0,0.9h11.8V373h-12.3l0,0.9h12.4v9.4l0.9,0v-9.4h17.6v9.7l0.9,0v-9.7h1.6
							l0.1-0.9h-1.7v-17.6h4l0.1-0.9h-4.2v-17.6h6.5l0.1-0.9h-6.6v-17.6h9l0.1-0.9h-9.1v-17.6h11.5l0.1-0.9h-11.6v-17.6H176l0.1-0.9
							h-14.1v-17.6h16.4l0.1-0.9h-16.5v-17.6H179.7z M162.1,225.7h17.6v17.6h-17.6V225.7z M161.1,373h-17.6v-17.6h17.6V373z
							 M161.1,354.5h-17.6v-17.6h17.6V354.5z M161.1,335.9h-17.6v-17.6h17.6V335.9z M161.1,317.4h-17.6v-17.6h17.6V317.4z
							 M161.1,298.9h-17.6v-17.6h17.6V298.9z M161.1,280.3h-17.6v-17.6h17.6V280.3z M161.1,261.8h-17.6v-17.6h17.6V261.8z
							 M161.1,243.3h-17.6v-17.6h17.6V243.3z"/>
					</g>
					<path class="st3" d="M169.9,247.2L169.9,247.2c-0.7,1.2-2.3,1.7-3.5,0.9l-13.2-7.6c-1.2-0.7-1.7-2.3-0.9-3.5l0,0
						c0.7-1.2,2.3-1.7,3.5-0.9l13.2,7.6C170.2,244.4,170.7,246,169.9,247.2z"/>
				</g>
			</g>
		</g>
		<g>
			<g>
				<path class="st4" d="M117.4,213c0,0-11.2,3.7-19.5-0.8c-8.3-4.5,4.5-16.8,4.5-16.8l11.9-10.9l4.2-1.3l5.2-26.6
					c2.2-5.6,2.9-7.8,6.6-10.9c3.7-3.1,13.9-8.6,13.9-8.6s1.9-1.1,2.9,0c1.1,1.1,7.4,3.5,10.8,1.5c3.4-2,3.3-1.2,3.3-1.2l1.4-1.5
					c0,0,4.8,0.2,7.3,1.5c2.6,1.3,22.3,10.1,33.3,25.6c11,15.6,12.7,17.1,14.6,23.1c1.9,6.1-12.1,20.2-17.8,25.1
					c-5.7,4.9-16.9,9.4-16.9,9.4l-60.1-1.7l-0.2-6.6c0,0,0.5-1.7-1.8-0.7C118.7,212.6,117.4,213,117.4,213z"/>
				<g>
					<g>
						<path class="st5" d="M123,219.4c0,0-0.7-2.3,1-2.5c1.7-0.2,48.4-0.1,48.4-0.1l5.2,0.2c0,0,1.8-0.3,3.9,0.3
							c1.8,0.6,3.8,2.1,4.5,2.2c1.3,0.2,3.3,1.8,3.3,1.8v4.6h-65.9L123,219.4z"/>
						<g>
							<line class="st2" x1="122.9" y1="216.9" x2="180.6" y2="216.7"/>
							<g>
								<line class="st2" x1="129.1" y1="216.9" x2="129.1" y2="226"/>
								<line class="st2" x1="136.2" y1="217.1" x2="136.2" y2="226.2"/>
								<line class="st2" x1="142.9" y1="216.9" x2="142.9" y2="226"/>
								<line class="st2" x1="149" y1="217.1" x2="149" y2="226.2"/>
								<line class="st2" x1="156.1" y1="217.1" x2="156.1" y2="226.2"/>
								<line class="st2" x1="162.6" y1="217.1" x2="162.6" y2="226.2"/>
								<line class="st2" x1="168.3" y1="216.9" x2="168.3" y2="226"/>
								<line class="st2" x1="173.9" y1="216.8" x2="173.9" y2="226"/>
								<line class="st2" x1="179.4" y1="216.8" x2="179.4" y2="226"/>
							</g>
						</g>
					</g>
					<g>
						<path class="st2" d="M162.1,135.7c0,0-14.3-2.6-18.7,2.3"/>
						<path class="st2" d="M145.8,137.5c0,0-26.6,23.8-22.4,88.5h65.9v-5.3"/>
					</g>
				</g>
			</g>
			<g>
				<path class="st6" d="M171.3,110.3c0,3.5-2.9,6.4-6.5,6.4c-3.6,0-6.5-2.9-6.5-6.4c0-3.5,2.9-6.4,6.5-6.4
					C168.4,103.9,171.3,106.7,171.3,110.3z"/>
				<path class="st7" d="M145.2,136c0,3,4.1,5.4,9.2,5.4c5.1,0,9.2-2.4,9.2-5.4s-4.1-5.4-9.2-5.4C149.4,130.6,145.2,133.1,145.2,136
					z"/>
				<path class="st0" d="M143.1,90.4h8.1c5.4,0,9.8,5,9.8,11.2v12.6c0,0.4,0,0.7,0,1.1c0.1,0.4,0.1,0.8,0.1,1.2v7.7v0.4v7.7
					c0,2.8-2.3,5.1-5.1,5.1h-3.2c-2.8,0-5.1-2.3-5.1-5.1v-6.8h-4.7c-5.4,0-9.8-5-9.8-11.2v-12.6C133.3,95.4,137.7,90.4,143.1,90.4z"
					/>
				<g>
					<g>
						<circle class="st8" cx="147.7" cy="105.7" r="1.8"/>
						<path class="st8" d="M137.6,105.4c0,0.9-0.7,1.6-1.6,1.6c-0.9,0-1.6-0.7-1.6-1.6c0-0.9,0.7-1.6,1.6-1.6
							C136.9,103.9,137.6,104.6,137.6,105.4z"/>
					</g>
					<g>
						<path class="st9" d="M139.3,112.9c0,0,0.9,2.7,2.9,2.9c1.9,0.2,3.5-2,3.6-3.7L139.3,112.9z"/>
						<g>
							<path class="st8" d="M138.8,113c0.3,1,1,2,1.8,2.6c1.5,1.1,3.4,0.6,4.6-0.8c0.6-0.8,1.1-1.8,1.2-2.8c0-0.3-0.3-0.6-0.6-0.6
								c-1.9,0.2-3.8,0.5-5.6,0.7c-0.3,0-0.5,0.1-0.8,0.1c-0.3,0-0.6,0.2-0.6,0.6c0,0.3,0.3,0.6,0.6,0.6c1.9-0.2,3.8-0.5,5.6-0.7
								c0.3,0,0.5-0.1,0.8-0.1c-0.2-0.2-0.4-0.4-0.6-0.6c-0.1,1.3-1,2.7-2.3,3c-1.2,0.3-2.1-0.6-2.7-1.6c-0.1-0.2-0.2-0.4-0.3-0.7
								c0-0.1,0,0.1,0,0c0,0,0-0.1,0-0.1c0,0,0-0.1,0-0.1C139.6,112.1,138.5,112.4,138.8,113z"/>
						</g>
					</g>
					<g>
						<path class="st10" d="M155.9,112.4c0,2.5-2,4.5-4.5,4.5c-2.5,0-4.5-2-4.5-4.5c0-2.5,2-4.5,4.5-4.5
							C153.9,107.9,155.9,109.9,155.9,112.4z"/>
						<path class="st10" d="M134.5,109.3c-0.3,0-0.5,0-0.8,0.1v4.7c0,0.7,0,1.4,0.2,2c0.2,0,0.4,0.1,0.6,0.1c1.9,0,3.5-1.5,3.5-3.5
							C138,110.9,136.4,109.3,134.5,109.3z"/>
					</g>
					<polygon class="st11" points="141.4,103.9 141.7,110.1 138.8,108.3 					"/>
				</g>
				<path d="M158.9,110.1l-1.5-9.9c0,0-27.3,3.4-36.1-9.8s0.4-18.5,4.9-17.7c4.5,0.7,9.7,7.2,9.7,7.2s-4.2-5.7,0-6.6
					c4.2-0.9,8.8,3.4,11.2,7.9c0,0,18-1.7,24,9.2c6.1,10.9,1.2,18.6-10,29.8l-0.7-6.3L158.9,110.1z"/>
				<g>
					<path class="st4" d="M171.3,110.3c0,3.5-2.9,6.4-6.5,6.4c-3.6,0-6.5-2.9-6.5-6.4c0-3.5,2.9-6.4,6.5-6.4
						C168.4,103.9,171.3,106.7,171.3,110.3z"/>
					<g>
						<g>
							<path class="st12" d="M162,111.1c0-0.1,0-0.3,0-0.4c0-0.1,0-0.1,0-0.2c0,0,0-0.1,0-0.1c0-0.2,0,0.2,0,0
								c0-0.2,0.1-0.4,0.1-0.5c0-0.1,0.1-0.2,0.1-0.3c0-0.1,0-0.1,0.1-0.2c0,0,0,0,0-0.1c0-0.1,0,0,0,0.1c0.1-0.2,0.2-0.4,0.3-0.6
								c0,0,0,0,0-0.1c0.1-0.1,0.1,0,0,0c0,0,0.1-0.1,0.1-0.1c0.1-0.1,0.2-0.2,0.3-0.3c0,0,0,0,0.1,0c0.1-0.1,0.1,0,0,0
								c0,0,0.1-0.1,0.1-0.1c0.1-0.1,0.2-0.1,0.4-0.2c0,0,0.1-0.1,0,0c-0.1,0,0,0,0.1,0c0.1,0,0.2-0.1,0.2-0.1c0.1,0,0.2,0,0.3-0.1
								c0,0,0.1,0,0.1,0c0,0,0.1,0,0.1,0c0.1,0,0.1,0,0,0c0.1,0,0.2,0,0.3,0c0.1,0,0.2,0,0.3,0c0.2,0,0.5,0,0.7,0
								c0.4,0,0.7-0.3,0.7-0.7c0-0.4-0.3-0.6-0.7-0.7c-1.4-0.1-2.9,0.2-3.8,1.3c-0.6,0.8-0.9,1.7-1,2.7c0,0.2,0,0.4,0,0.6
								c0,0.4,0.3,0.7,0.7,0.7C161.7,111.8,162,111.5,162,111.1L162,111.1z"/>
						</g>
					</g>
				</g>
			</g>
			<g>
				<path class="st4" d="M197.2,192.2c0,0-9.6-7-12.4-11c-2.8-3.9-5.8-2.7-8.1-1.1c-2.3,1.6-11.2,5.7-11.2,5.7l-2.8,2.4
					c0,0-2.2,0.7,0.8,6.4c3.1,5.7,12.2,21.8,22.5,24.9s17.5,3.4,22.5,0.9c5-2.5,8.5-5,10.9-11.6c2.4-6.6,0.1-18-2.2-24.5
					c-2.3-6.5-14.4-8.2-19.2-5.7S197.2,192.2,197.2,192.2z"/>
				<path class="st5" d="M159.5,186.1l-1.2-2.8c0,0-0.2-0.8,0.9-1.3c1.1-0.5,17.5-8.9,17.5-8.9s1.4-1,1.9,0c0.5,1,3.8,5.4,3.8,5.4
					s0.9,1.1,0,1.7c-0.9,0.6-15.8,8.1-15.8,8.1l-3.8,2.1c0,0-1.2,0.6-1.5,0C161.1,189.7,159.5,186.1,159.5,186.1z"/>
				<path class="st4" d="M152.6,166.1c0,0-2.4-7.8-1.2-9.4c1.1-1.6,2.5-0.1,3.3,1.8c0.8,1.9,2.2,5.7,2.2,5.7l3.2-8.4
					c0,0-9.5-5.6-10-6.7c-0.5-1.1-0.6-1.9,0-2c0.6-0.1,2.6,0.2,2.6,0.2s-3.3-2.6-2.5-3.7s4.3,0.9,4.3,0.9s-1.6-4.3-1.2-5.2
					c0.4-0.9,4.6,3.7,5.8,5.5c1.2,1.8,3.3,4.7,3.3,4.7s1.3,0.8,1.3,1.3c0,0.5,1.6,1.5,1.9,1.6c0.3,0.2,2.5,3.8,4.6,7.5
					c2.1,3.7,5.2,8.7,5.2,8.7l1.5,2.3c0,0,1.5,1.8-1.1,2.9c-2.7,1.1-13.1,6.7-13.1,6.7l-3.3,1.7c0,0-0.9,1.6-2.1-1.7
					C156,177,152.6,166.1,152.6,166.1z"/>
				<g>
					<path class="st2" d="M163.7,136c0,0,18.7,1.9,40.5,28.1c21.8,26.2,18,43.3,11.2,52c-5.2,6.7-28.8,11-42.7-6.7
						c-14-17.7-23-50-21.3-52.7c1.7-2.7,3.4,1.4,5.5,7.5l3.2-8.4c0,0-10.2-5.5-10.5-8.1c-0.3-2.6,15.5,3.2,17.1,5.8
						c1.6,2.6,16.6,34.5,36.5,41.8"/>
					<path class="st2" d="M153.6,147.4c0,0-4.2-2-3.5-3.8c0.7-1.8,13.6,5.4,13.5,7.7"/>
					<path class="st2" d="M154.9,144.6c0,0-3-4.6-1.6-5.4c1.3-0.7,7.2,6.9,8.1,9.3"/>
				</g>
				<g>
					<g>
						<line class="st2" x1="158" y1="182.6" x2="178" y2="172.4"/>
						<line class="st2" x1="161.6" y1="190.9" x2="183.2" y2="179.3"/>
					</g>
					<g>
						<line class="st2" x1="160.6" y1="181.2" x2="164.7" y2="189.3"/>
						<line class="st2" x1="164.4" y1="179.3" x2="168.5" y2="187.2"/>
						<line class="st2" x1="168" y1="177.3" x2="172" y2="185.2"/>
						<line class="st2" x1="172" y1="175.4" x2="175.7" y2="183.2"/>
						<line class="st2" x1="175.3" y1="173.7" x2="179.5" y2="181.2"/>
					</g>
				</g>
			</g>
			<g>
				<g>
					<g>
						
							<rect x="125.7" y="119.1" transform="matrix(0.9975 -7.072734e-02 7.072734e-02 0.9975 -9.2098 9.8463)" class="st0" width="17.4" height="31.7"/>
					</g>
					<path class="st0" d="M128.5,127.3L128.5,127.3c-0.8,0.1-1.5-0.5-1.6-1.3l-0.3-3.1c-0.1-0.8,0.5-1.5,1.3-1.6l0,0
						c0.8-0.1,1.5,0.5,1.6,1.3l0.3,3.1C129.8,126.6,129.3,127.3,128.5,127.3z"/>
				</g>
				<g>
					<path class="st4" d="M106.9,148.5c0,0,6.6-11.1,10.7-14.2c4.1-3.1,6.7-4,10-4.6c3.2-0.6,8.2-1.2,10.4-0.3
						c2.1,0.9,1.1,1.2,0.7,1.6c-0.4,0.3-4.9,2-4.9,2s5.9-0.9,6.5,0.1c0.6,1-1.3,2-2,2.3c-0.8,0.3-3.8,1.4-3.8,1.4s6-0.7,6.6,0.4
						c0.6,1-1.8,2-1.8,2l-3.5,1.4c0,0,5.2-0.5,5.3,0.8c0.1,1.2-1.3,1.3-2.6,1.7c-1.3,0.4-8.3,2.1-9.8,3.9c-1.5,1.9-5.6,8.7-8.1,23.9
						c-2.5,15.3-2.9,19.6-2.9,19.6l-2.5,15.9c0,0-11.7,11.5-19.7,3.9c-8-7.5-7.2-21.6-3.6-31.5c3.6-9.9,11.1-23.6,11.1-23.6
						L106.9,148.5z"/>
					<g>
						<path class="st5" d="M102.3,160.9c0,0-2.4-0.1-1.3-2.2s3.1-5.4,3.1-5.4s0.3-1.3,2.2-0.6c1.9,0.7,15.1,5.7,15.1,5.7
							s2.2,0.8,1.8,1.6c-0.4,0.8-1.5,5.3-1.6,5.9c-0.1,0.6-0.4,2.6-1.4,2.2C119.1,167.7,102.3,160.9,102.3,160.9z"/>
						<line class="st0" x1="104.7" y1="152.2" x2="123" y2="159.2"/>
						<g>
							<line class="st0" x1="100.2" y1="160.1" x2="121" y2="168.2"/>
							<g>
								<line class="st0" x1="103.6" y1="161.4" x2="107.7" y2="153.4"/>
								<line class="st0" x1="108.5" y1="163.3" x2="111.9" y2="154.9"/>
								<line class="st0" x1="113.1" y1="165.1" x2="116.5" y2="156.7"/>
								<line class="st0" x1="117.6" y1="166.8" x2="120.1" y2="158"/>
							</g>
						</g>
						<path class="st13" d="M117,192.5c0,0,3.9-25,5.3-30.5c1.4-5.5,2.7-10.8,6-14.6c3.3-3.8,13.4-4,12.8-6c-0.5-2-10.9,0-10.9,0
							c5.1-0.6,11.6-2.6,10.8-4.3c-0.8-1.6-11.9,0.7-11.9,0.7c8.6-1.8,12-3.4,11.1-4.8c-0.9-1.4-12.2,0.9-12.2,0.9
							c9.6-1.8,11.5-2.8,10.7-4.1c-0.8-1.3-10.9-1.9-19.3,3c-8.4,4.9-24.1,36.2-24.1,36.2s-15.3,33.2,1.3,42.1
							c10.2,5.5,19.9,2.6,25.9-0.4"/>
					</g>
				</g>
			</g>
		</g>
	</g>
	<g>
		<g>
			<line class="st0" x1="63" y1="439.2" x2="220.7" y2="439.2"/>
		</g>
	</g>
</g>
</svg>
