<?xml version="1.0" encoding="utf-8"?>
<!-- Generator: Adobe Illustrator 27.8.1, SVG Export Plug-In . SVG Version: 6.00 Build 0)  -->
<svg version="1.1" xmlns="http://www.w3.org/2000/svg" xmlns:xlink="http://www.w3.org/1999/xlink" x="0px" y="0px"
	 viewBox="0 0 500 500" style="enable-background:new 0 0 500 500;" xml:space="preserve">
<style type="text/css">
	.st0{fill:#FFFFFF;}
	.st1{fill:none;stroke:#000000;stroke-miterlimit:10;}
	.st2{fill:#FFFFFF;stroke:#000000;stroke-miterlimit:10;}
	.st3{fill:#672ED6;}
	.st4{fill:#672ED6;stroke:#000000;stroke-miterlimit:10;}
	.st5{fill:none;stroke:#000000;stroke-width:2;stroke-miterlimit:10;}
	.st6{fill:#672ED6;stroke:#211F21;stroke-miterlimit:10;}
	.st7{fill:#141414;}
	.st8{fill:#F7F6F6;}
	.st9{fill:#E4B0C8;}
	.st10{fill:#D96980;}
	.st11{fill:#090909;}
	.st12{fill:#DB7294;stroke:#000000;stroke-miterlimit:10;}
	.st13{fill:#EEDA36;}
	.st14{fill:#DB7294;}
	.st15{fill:#E4B0C8;stroke:#211F21;stroke-miterlimit:10;}
	.st16{fill:none;stroke:#211F21;stroke-miterlimit:10;}
</style>
<g id="BACKGROUND">
	<rect class="st0" width="500" height="500"/>
</g>
<g id="OBJECTS">
	<g>
		<g>
			<g>
				<g>
				</g>
			</g>
		</g>
		<g>
			<line class="st1" x1="34.8" y1="412.1" x2="465.2" y2="412.1"/>
			<g>
				<rect x="141.5" y="407.6" class="st2" width="92.8" height="19.7"/>
				<g>
					<g>
						<path class="st2" d="M167.4,285.1c0,0,7.6,5,17.7,16.9c12.7,15,29.3,38.2,39.6,43.8c23.4,12.9,61.2,14.8,61.2,14.8l-17.7,35.8
							l-84.4-10.8L167.4,285.1z"/>
						<g>
							<path class="st3" d="M216,369.1L216,369.1c-1.8,0.3-3.5-0.9-3.8-2.8l-1.9-10.4c-0.3-1.9,0.8-3.6,2.6-3.9h0
								c1.8-0.3,3.5,0.9,3.8,2.8l1.9,10.4C218.9,367,217.7,368.8,216,369.1z"/>
							<path class="st3" d="M199.9,340.6L199.9,340.6c-1.8,0.3-3.5-0.9-3.8-2.8l-1.9-10.4c-0.3-1.9,0.8-3.6,2.6-3.9h0
								c1.8-0.3,3.5,0.9,3.8,2.8l1.9,10.4C202.8,338.5,201.7,340.3,199.9,340.6z"/>
							<path class="st3" d="M229.4,387.4L229.4,387.4c-1.8,0.3-3.5-0.9-3.8-2.8l-1.9-10.4c-0.3-1.9,0.8-3.6,2.6-3.9h0
								c1.8-0.3,3.5,0.9,3.8,2.8l1.9,10.4C232.3,385.3,231.1,387.1,229.4,387.4z"/>
							<path class="st3" d="M240,374.8L240,374.8c-1.8,0.3-3.5-0.9-3.8-2.8l-1.9-10.4c-0.3-1.9,0.8-3.6,2.6-3.9h0
								c1.8-0.3,3.5,0.9,3.8,2.8l1.9,10.4C242.9,372.7,241.7,374.5,240,374.8z"/>
							<path class="st3" d="M257.2,392.8L257.2,392.8c-1.8,0.3-3.5-0.9-3.8-2.8l-1.9-10.4c-0.3-1.9,0.8-3.6,2.6-3.9h0
								c1.8-0.3,3.5,0.9,3.8,2.8l1.9,10.4C260.1,390.7,258.9,392.5,257.2,392.8z"/>
							<path class="st3" d="M269.6,378.6L269.6,378.6c-1.8,0.3-3.5-0.9-3.8-2.8l-1.9-10.4c-0.3-1.9,0.8-3.6,2.6-3.9h0
								c1.8-0.3,3.5,0.9,3.8,2.8l1.9,10.4C272.5,376.5,271.4,378.3,269.6,378.6z"/>
						</g>
					</g>
					<g>
						<path class="st2" d="M150.8,283.5c0,0,24.4-12.2,46,44.8c15,39.7,10.1,68,10.1,68l-123.2-1.5
							C83.7,394.8,107.3,299.2,150.8,283.5z"/>
						<g>
							<path class="st3" d="M134.3,374.3L134.3,374.3c-1.8,0.3-3.5-0.9-3.8-2.8l-1.9-10.4c-0.3-1.9,0.8-3.6,2.6-3.9h0
								c1.8-0.3,3.5,0.9,3.8,2.8l1.9,10.4C137.3,372.2,136.1,374,134.3,374.3z"/>
							<path class="st3" d="M155.5,359.5L155.5,359.5c-1.8,0.3-3.5-0.9-3.8-2.8l-1.9-10.4c-0.3-1.9,0.8-3.6,2.6-3.9h0
								c1.8-0.3,3.5,0.9,3.8,2.8l1.9,10.4C158.5,357.4,157.3,359.1,155.5,359.5z"/>
							<path class="st3" d="M174.6,377.7L174.6,377.7c-1.8,0.3-3.5-0.9-3.8-2.8l-1.9-10.4c-0.3-1.9,0.8-3.6,2.6-3.9h0
								c1.8-0.3,3.5,0.9,3.8,2.8l1.9,10.4C177.5,375.6,176.3,377.4,174.6,377.7z"/>
							<path class="st3" d="M191.6,355.6L191.6,355.6c-1.8,0.3-3.5-0.9-3.8-2.8l-1.9-10.4c-0.3-1.9,0.8-3.6,2.6-3.9h0
								c1.8-0.3,3.5,0.9,3.8,2.8l1.9,10.4C194.5,353.5,193.4,355.3,191.6,355.6z"/>
							<path class="st3" d="M173.3,337.7L173.3,337.7c-1.8,0.3-3.5-0.9-3.8-2.8l-1.9-10.4c-0.3-1.9,0.8-3.6,2.6-3.9h0
								c1.8-0.3,3.5,0.9,3.8,2.8l1.9,10.4C176.2,335.6,175.1,337.3,173.3,337.7z"/>
							<path class="st3" d="M154.3,316.4L154.3,316.4c-1.8,0.3-3.5-0.9-3.8-2.8l-1.9-10.4c-0.3-1.9,0.8-3.6,2.6-3.9h0
								c1.8-0.3,3.5,0.9,3.8,2.8l1.9,10.4C157.2,314.3,156.1,316.1,154.3,316.4z"/>
							<path class="st3" d="M172.8,307.8L172.8,307.8c-1.8,0.3-3.5-0.9-3.8-2.8l-1.9-10.4c-0.3-1.9,0.8-3.6,2.6-3.9h0
								c1.8-0.3,3.5,0.9,3.8,2.8l1.9,10.4C175.7,305.7,174.5,307.5,172.8,307.8z"/>
							<path class="st3" d="M202,386.8L202,386.8c-1.8,0.3-3.5-0.9-3.8-2.8l-1.9-10.4c-0.3-1.9,0.8-3.6,2.6-3.9h0
								c1.8-0.3,3.5,0.9,3.8,2.8l1.9,10.4C204.9,384.7,203.8,386.4,202,386.8z"/>
							<path class="st3" d="M137.9,336.6L137.9,336.6c-1.8,0.3-3.5-0.9-3.8-2.8l-1.9-10.4c-0.3-1.9,0.8-3.6,2.6-3.9h0
								c1.8-0.3,3.5,0.9,3.8,2.8l1.9,10.4C140.8,334.5,139.6,336.3,137.9,336.6z"/>
						</g>
					</g>
					<g>
						<g>
							<path class="st0" d="M155.7,373.3l-4.5,37.6c0,0,27.4-1.3,42.5,0.6c15.1,1.9,24.3,3.1,24.3,3.1s5,0,4.4-2.9
								c-0.6-2.9-0.5-2.4,1.9-1.7c2.4,0.7,5.9-0.8,6.1-2.7c0.2-1.9-0.7-4.2-0.7-4.2s3.1,0.6,4.7,0.4c1.6-0.2,6.6-2.5,6.1-4.9
								c-0.5-2.4-2.4-11.2-30-17.9C182.9,374,155.7,373.3,155.7,373.3z"/>
							<g>
								<path class="st1" d="M149.2,411c0,0,34.9-2.5,63.6,3.1c2.4,0.5,11.9,2,9.1-4c-2.8-6-17.1-9.3-24-10.2"/>
								<path class="st1" d="M200.4,388.3c0,0,8.4,1.8,15.1,5c4.9,2.4,9.8,5.5,12.5,8c6.1,5.5,0.5,11-6.6,8"/>
								<path class="st1" d="M154,373.3c0,0,36,0.2,66.4,10.3c30.4,10.2,20.2,24,8.7,18.7"/>
							</g>
						</g>
						<path class="st0" d="M149.1,284.8c0,0-46.3-1.3-81.4,51C32.7,388,37,441.4,113.6,423.8c10.7-2.5,42.3-11.9,42.3-11.9l3.8-39.8
							c0,0-35.8-3-60.5-4.5L149.1,284.8z"/>
						<g>
							<path class="st4" d="M135.4,417.9c10.6-3,20.5-6,20.5-6l3.8-39.8c0,0-8.1-0.7-19.2-1.5L135.4,417.9z"/>
							<g>
								<line class="st1" x1="139.6" y1="378.2" x2="158.9" y2="379.5"/>
								<line class="st1" x1="138.5" y1="388.2" x2="157.7" y2="388.3"/>
								<line class="st1" x1="137.6" y1="398.1" x2="157.4" y2="396.6"/>
								<line class="st1" x1="136.3" y1="407.6" x2="156.4" y2="404.2"/>
							</g>
						</g>
						<g>
							<path class="st1" d="M149.1,284.8c0,0-46.3-1.3-81.4,51C32.7,388,37,441.4,113.6,423.8c10.7-2.5,42.3-11.9,42.3-11.9
								l3.8-39.8c0,0-35.8-3-60.5-4.5"/>
							<line class="st1" x1="111.9" y1="368.5" x2="123.8" y2="345.6"/>
						</g>
						<g>
							<path class="st3" d="M73.5,379.2L73.5,379.2c-1.8,0.3-3.5-0.9-3.8-2.8L67.8,366c-0.3-1.9,0.8-3.6,2.6-3.9h0
								c1.8-0.3,3.5,0.9,3.8,2.8l1.9,10.4C76.4,377.1,75.3,378.9,73.5,379.2z"/>
							<path class="st3" d="M63.2,412L63.2,412c-1.8,0.3-3.5-0.9-3.8-2.8l-1.9-10.4c-0.3-1.9,0.8-3.6,2.6-3.9h0
								c1.8-0.3,3.5,0.9,3.8,2.8l1.9,10.4C66.1,409.9,65,411.7,63.2,412z"/>
							<path class="st3" d="M93.6,416.1L93.6,416.1c-1.8,0.3-3.5-0.9-3.8-2.8L87.9,403c-0.3-1.9,0.8-3.6,2.6-3.9h0
								c1.8-0.3,3.5,0.9,3.8,2.8l1.9,10.4C96.5,414.1,95.3,415.8,93.6,416.1z"/>
							<path class="st3" d="M109.7,390.5L109.7,390.5c-1.8,0.3-3.5-0.9-3.8-2.8l-1.9-10.4c-0.3-1.9,0.8-3.6,2.6-3.9h0
								c1.8-0.3,3.5,0.9,3.8,2.8l1.9,10.4C112.6,388.4,111.5,390.1,109.7,390.5z"/>
							<path class="st3" d="M103,359.5L103,359.5c-1.8,0.3-3.5-0.9-3.8-2.8l-1.9-10.4c-0.3-1.9,0.8-3.6,2.6-3.9h0
								c1.8-0.3,3.5,0.9,3.8,2.8l1.9,10.4C105.9,357.4,104.7,359.1,103,359.5z"/>
							<path class="st3" d="M115.5,333.7L115.5,333.7c-1.8,0.3-3.5-0.9-3.8-2.8l-1.9-10.4c-0.3-1.9,0.8-3.6,2.6-3.9h0
								c1.8-0.3,3.5,0.9,3.8,2.8l1.9,10.4C118.4,331.6,117.2,333.3,115.5,333.7z"/>
							<path class="st3" d="M132.2,307.8L132.2,307.8c-1.8,0.3-3.5-0.9-3.8-2.8l-1.9-10.4c-0.3-1.9,0.8-3.6,2.6-3.9h0
								c1.8-0.3,3.5,0.9,3.8,2.8l1.9,10.4C135.1,305.7,133.9,307.5,132.2,307.8z"/>
							<path class="st3" d="M83.5,342.3L83.5,342.3c-1.8,0.3-3.5-0.9-3.8-2.8l-1.9-10.4c-0.3-1.9,0.8-3.6,2.6-3.9h0
								c1.8-0.3,3.5,0.9,3.8,2.8l1.9,10.4C86.4,340.2,85.2,341.9,83.5,342.3z"/>
							<path class="st3" d="M128,412L128,412c-1.8,0.3-3.5-0.9-3.8-2.8l-1.9-10.4c-0.3-1.9,0.8-3.6,2.6-3.9h0
								c1.8-0.3,3.5,0.9,3.8,2.8l1.9,10.4C130.9,409.9,129.7,411.7,128,412z"/>
						</g>
					</g>
					<g>
						<path class="st5" d="M133.6,250.7c0,4.5,3.7,8.2,8.3,8.2c4.6,0,8.3-3.7,8.3-8.2c0-4.5-3.7-8.2-8.3-8.2
							C137.4,242.4,133.6,246.1,133.6,250.7z"/>
						<path class="st6" d="M167,283.7c0,3.8-5.3,6.9-11.8,6.9s-11.8-3.1-11.8-6.9c0-3.8,5.3-6.9,11.8-6.9S167,279.9,167,283.7z"/>
						<path class="st2" d="M169.8,225.1h-10.4c-6.9,0-12.6,6.5-12.6,14.3v16.1c0,0.5,0,0.9,0.1,1.3c-0.1,0.5-0.2,1-0.2,1.5v9.8v0.5
							v9.8c0,3.6,2.9,6.5,6.5,6.5h4.1c3.6,0,6.5-2.9,6.5-6.5v-8.7h6c6.9,0,12.6-6.4,12.6-14.3v-16.1
							C182.4,231.6,176.7,225.1,169.8,225.1z"/>
						<g>
							<g>
								<path class="st7" d="M161.5,244.7c0,1.3,1.1,2.3,2.3,2.3s2.3-1.1,2.3-2.3s-1.1-2.3-2.3-2.3S161.5,243.4,161.5,244.7z"/>
								<path class="st7" d="M176.9,244.4c0,1.1,0.9,2,2,2c1.1,0,2-0.9,2-2c0-1.1-0.9-2-2-2C177.8,242.4,176.9,243.3,176.9,244.4z"
									/>
							</g>
							<g>
								<path class="st8" d="M174.6,254c0,0-1.2,3.4-3.7,3.7c-2.5,0.2-4.4-2.5-4.6-4.7L174.6,254z"/>
								<g>
									<path class="st7" d="M174.1,253.9c0,0.1-0.1,0.2-0.1,0.3c0.1-0.1-0.1,0.2-0.1,0.2c-0.1,0.1-0.1,0.3-0.2,0.4
										c-0.3,0.6-0.7,1.2-1.2,1.7c-0.6,0.5-1.3,0.8-2.2,0.7c-0.9-0.1-1.6-0.7-2.2-1.4c-0.6-0.8-1.1-1.8-1.2-2.8
										c-0.2,0.2-0.4,0.4-0.6,0.6c2.4,0.3,4.8,0.6,7.2,0.9c0.3,0,0.7,0.1,1,0.1c0.3,0,0.6-0.3,0.6-0.6c0-0.3-0.3-0.5-0.6-0.6
										c-2.4-0.3-4.8-0.6-7.2-0.9c-0.3,0-0.7-0.1-1-0.1c-0.3,0-0.6,0.3-0.6,0.6c0.2,2.1,1.6,4.4,3.7,5.1c2.1,0.7,3.9-0.7,4.9-2.4
										c0.3-0.5,0.6-1,0.7-1.5C175.4,253.5,174.3,253.2,174.1,253.9z"/>
								</g>
							</g>
							<g>
								<path class="st9" d="M153.4,253.4c0,3.2,2.6,5.8,5.8,5.8c3.2,0,5.8-2.6,5.8-5.8c0-3.2-2.6-5.8-5.8-5.8
									C156,247.5,153.4,250.2,153.4,253.4z"/>
								<path class="st9" d="M180.8,249.4c0.4,0,0.7,0,1,0.1v6.1c0,0.9,0,1.8-0.2,2.6c-0.2,0-0.6,0.1-0.8,0.1c-2.5,0-4.4-2-4.4-4.4
									C176.3,251.4,178.3,249.4,180.8,249.4z"/>
							</g>
							<polygon class="st10" points="172,242.4 171.5,250.4 175.3,248.1 							"/>
						</g>
						<path d="M149.5,250.4l1.9-12.6c0,0,35,4.4,46.3-12.6c11.3-17-0.6-23.7-6.3-22.8c-5.8,1-12.5,9.2-12.5,9.2s5.4-7.3,0-8.5
							c-5.4-1.2-11.3,4.4-14.4,10.2c0,0-23.1-2.2-30.9,11.8c-7.8,14-1.5,23.9,12.8,38.3l1-8.1L149.5,250.4z"/>
						<g>
							<path class="st0" d="M133.6,250.7c0,4.5,3.7,8.2,8.3,8.2c4.6,0,8.3-3.7,8.3-8.2c0-4.5-3.7-8.2-8.3-8.2
								C137.4,242.4,133.6,246.1,133.6,250.7z"/>
							<g>
								<g>
									<path class="st11" d="M147.1,251.7c0-0.7-0.1-1.4-0.3-2.1c-0.4-1.3-1.2-2.5-2.5-3.1c-1-0.5-2.2-0.6-3.3-0.5
										c-0.4,0-0.7,0.3-0.7,0.7c0,0.3,0.3,0.7,0.7,0.7c0.5-0.1,1-0.1,1.5,0c0.1,0,0.1,0,0.2,0c-0.2,0,0,0,0.1,0
										c0.1,0,0.2,0,0.3,0.1c0.2,0,0.4,0.1,0.6,0.2c0,0,0.1,0,0.1,0c-0.2-0.1,0,0,0,0c0.1,0,0.1,0.1,0.2,0.1
										c0.1,0.1,0.3,0.2,0.4,0.3c-0.2-0.1,0,0,0.1,0.1c0.1,0,0.1,0.1,0.2,0.1c0.1,0.1,0.2,0.2,0.3,0.3c-0.1-0.2,0,0,0,0.1
										c0,0.1,0.1,0.1,0.1,0.2c0.1,0.1,0.1,0.3,0.2,0.4c0,0.1,0.1,0.1,0.1,0.2c0,0.1-0.1-0.2,0,0c0,0,0,0.1,0,0.1
										c0.1,0.1,0.1,0.3,0.1,0.4c0.1,0.2,0.1,0.5,0.2,0.7c0,0.1,0,0.1,0,0.2c0,0.2,0-0.2,0,0c0,0.1,0,0.2,0,0.3c0,0.2,0,0.4,0,0.7
										c0,0.4,0.3,0.7,0.7,0.7C146.8,252.4,147.1,252.1,147.1,251.7L147.1,251.7z"/>
								</g>
							</g>
						</g>
					</g>
				</g>
			</g>
			<g>
				<g>
					<polygon class="st2" points="244.4,342.3 368.8,342.3 346.2,427.3 222.4,427.3 					"/>
					
						<ellipse transform="matrix(0.2308 -0.973 0.973 0.2308 -147.0093 583.611)" class="st12" cx="295.6" cy="384.8" rx="10.5" ry="10.5"/>
				</g>
				<g>
					<g>
						<g>
							<g>
								<path class="st13" d="M398.5,410.3L398.5,410.3c-3.7,0.8-6.9,0.4-7.2-1.1l-8.6-37.6c-0.3-1.4,2.4-3.3,6-4.1l0,0
									c3.7-0.8,7.5-0.4,7.8,1l8.1,37.7C404.8,407.6,402.1,409.5,398.5,410.3z"/>
								<g>
									<path d="M398.3,409.7c-1.4,0.3-5.8,1.2-6.5-0.8c-0.2-0.7-0.3-1.4-0.5-2.1c-0.7-3.2-1.5-6.4-2.2-9.7
										c-1.7-7.6-3.5-15.2-5.2-22.8c-0.2-0.8-0.4-1.7-0.6-2.5c-0.3-1.6,1.9-2.5,3.1-3c1.8-0.7,3.8-1.1,5.7-1.2c1,0,3.2-0.1,3.8,1
										c0.2,0.4,0.2,1,0.3,1.5c1.5,7.1,3,14.2,4.6,21.4c0.8,3.6,1.6,7.3,2.3,10.9c0.2,1,0.4,2.1,0.7,3.1c0.2,0.9,0.3,1.3-0.6,2
										C401.8,408.7,400,409.3,398.3,409.7c-0.8,0.2-0.5,1.4,0.3,1.2c2-0.5,6.5-1.7,6.5-4.5c0-0.6-0.2-1.2-0.3-1.8
										c-0.7-3.3-1.4-6.5-2.1-9.8c-1.7-8.1-3.5-16.2-5.2-24.4c-0.2-0.7-0.2-1.5-0.5-2.1c-0.6-2.1-3.9-2-5.6-1.9
										c-2.9,0.2-7.2,1-9,3.6c-0.6,0.8-0.5,1.5-0.3,2.4c1.7,7.4,3.4,14.8,5.1,22.2c0.9,3.8,1.8,7.7,2.6,11.5
										c0.2,0.9,0.4,1.9,0.7,2.8c0.3,1.4,1.5,1.9,2.9,2.2c1.7,0.3,3.5,0,5.2-0.3C399.4,410.8,399.1,409.6,398.3,409.7z"/>
								</g>
							</g>
							<g>
								
									<rect x="389" y="396.7" transform="matrix(0.9747 -0.2234 0.2234 0.9747 -79.1046 98.5019)" class="st3" width="13.7" height="4.4"/>
								<g>
									<path d="M402.9,399c-3.9,0.9-7.8,1.8-11.6,2.7c-0.6,0.1-1.1,0.3-1.7,0.4c0.3,0.1,0.5,0.3,0.8,0.4c-0.3-1.4-0.7-2.9-1-4.3
										c-0.1,0.3-0.3,0.5-0.4,0.8c3.9-0.9,7.8-1.8,11.6-2.7c0.6-0.1,1.1-0.3,1.7-0.4c-0.3-0.1-0.5-0.3-0.8-0.4
										c0.3,1.4,0.7,2.9,1,4.3c0.2,0.8,1.4,0.5,1.2-0.3c-0.3-1.4-0.7-2.9-1-4.3c-0.1-0.3-0.5-0.5-0.8-0.4
										c-3.9,0.9-7.8,1.8-11.6,2.7c-0.6,0.1-1.1,0.3-1.7,0.4c-0.3,0.1-0.5,0.5-0.4,0.8c0.3,1.4,0.7,2.9,1,4.3
										c0.1,0.3,0.5,0.5,0.8,0.4c3.9-0.9,7.8-1.8,11.6-2.7c0.6-0.1,1.1-0.3,1.7-0.4C404,400,403.6,398.8,402.9,399z"/>
								</g>
							</g>
							<g>
								<g>
									<path class="st0" d="M382.9,370.9l3.3-14.6l9.7,11.7c0.3,0.3-0.4,0.8-1.3,1l-10.2,2.2C383.5,371.4,382.8,371.3,382.9,370.9
										z"/>
									<g>
										<path d="M383.5,371.1c1-4.2,1.9-8.5,2.9-12.7c0.1-0.6,0.3-1.2,0.4-1.8c-0.3,0.1-0.7,0.2-1,0.3c2.4,2.9,4.9,5.9,7.3,8.8
											c0.6,0.7,1.2,1.4,1.8,2.1c0.2,0.2,0.3,0.4,0.5,0.6c0,0,0.1,0.1,0.1,0.1c0,0,0,0,0,0c-0.1,0-0.1-0.3-0.2-0.3
											c-0.1,0-0.3,0.2-0.4,0.2c-0.6,0.2-1.2,0.3-1.8,0.4c-1.1,0.2-2.3,0.5-3.4,0.7c-1.3,0.3-2.6,0.6-3.9,0.8
											c-0.4,0.1-0.8,0.2-1.2,0.3c-0.1,0-0.2,0-0.3,0.1c0,0,0,0,0,0c-0.1,0-0.3,0.1-0.5,0.1c-0.3,0-0.3-0.1-0.3,0.2
											c0-0.8-1.2-0.8-1.2,0c0,2,4.7,0.4,5.7,0.2c2.2-0.5,4.4-0.9,6.6-1.4c0.9-0.2,2.5-0.9,1.7-2.1c-0.3-0.4-0.7-0.8-1-1.2
											c-1.6-2-3.3-4-4.9-6c-1.2-1.5-2.5-3-3.7-4.5c-0.3-0.4-0.9-0.2-1,0.3c-1,4.2-1.9,8.5-2.9,12.7c-0.1,0.6-0.3,1.2-0.4,1.8
											C382.1,371.5,383.3,371.9,383.5,371.1z"/>
									</g>
								</g>
								<polygon points="385,363.9 391.3,362.5 386.2,356.3 								"/>
							</g>
							<g>
								<path class="st14" d="M390.1,404.2l1.5,6.4c0.4,1.8,3.7,2.6,7.4,1.8l0,0c3.7-0.8,6.3-3,5.9-4.8l-1.4-6.5L390.1,404.2z"/>
								<g>
									<path d="M389.5,404.3c0.4,1.6,0.7,3.2,1.1,4.9c0.1,0.6,0.2,1.2,0.4,1.7c0.4,1.2,1.6,1.8,2.7,2.1c1.6,0.4,3.5,0.4,5.2,0
										c1.6-0.4,3.2-0.9,4.6-1.9c0.9-0.7,1.8-1.6,2-2.7c0.1-0.6-0.1-1.3-0.2-1.9c-0.4-1.9-0.8-3.7-1.2-5.6
										c-0.1-0.3-0.5-0.5-0.8-0.4c-3.9,0.9-7.8,1.8-11.7,2.7c-0.6,0.1-1.1,0.3-1.7,0.4c-0.8,0.2-0.5,1.4,0.3,1.2
										c3.9-0.9,7.8-1.8,11.7-2.7c0.6-0.1,1.1-0.3,1.7-0.4c-0.3-0.1-0.5-0.3-0.8-0.4c0.3,1.4,0.6,2.8,0.9,4.2
										c0.2,0.7,0.3,1.4,0.5,2.1c0.1,0.8-0.2,1.3-0.8,1.9c-2.1,2.1-5.9,3-8.8,2.5c-1-0.2-2.2-0.5-2.5-1.5c-0.1-0.5-0.2-1-0.3-1.5
										c-0.4-1.6-0.8-3.3-1.1-4.9C390.5,403.2,389.3,403.5,389.5,404.3z"/>
								</g>
							</g>
							<g>
								
									<rect x="390" y="401" transform="matrix(0.9747 -0.2234 0.2234 0.9747 -80.0322 98.8307)" class="st3" width="13.7" height="4.3"/>
								<g>
									<path d="M403.8,403.1c-3.9,0.9-7.8,1.8-11.6,2.7c-0.6,0.1-1.1,0.3-1.7,0.4c0.3,0.1,0.5,0.3,0.8,0.4c-0.3-1.4-0.6-2.8-1-4.2
										c-0.1,0.3-0.3,0.5-0.4,0.8c3.9-0.9,7.8-1.8,11.6-2.7c0.6-0.1,1.1-0.3,1.7-0.4c-0.3-0.1-0.5-0.3-0.8-0.4
										c0.3,1.4,0.6,2.8,1,4.2c0.2,0.8,1.4,0.5,1.2-0.3c-0.3-1.4-0.6-2.8-1-4.2c-0.1-0.3-0.5-0.5-0.8-0.4
										c-3.9,0.9-7.8,1.8-11.6,2.7c-0.6,0.1-1.1,0.3-1.7,0.4c-0.3,0.1-0.5,0.5-0.4,0.8c0.3,1.4,0.6,2.8,1,4.2
										c0.1,0.3,0.5,0.5,0.8,0.4c3.9-0.9,7.8-1.8,11.6-2.7c0.6-0.1,1.1-0.3,1.7-0.4C404.9,404.2,404.6,403,403.8,403.1z"/>
								</g>
							</g>
						</g>
						<g>
							<g>
								<path class="st14" d="M409.8,403L409.8,403c-3.7-0.7-6.4-2.5-6.2-3.9l7.6-37.8c0.3-1.4,3.5-2,7.2-1.3l0,0
									c3.7,0.7,7,2.7,6.7,4.1l-8.1,37.7C416.7,403.2,413.5,403.8,409.8,403z"/>
								<g>
									<path d="M409.9,402.4c-1.7-0.4-3.5-0.9-4.9-2c-0.4-0.4-0.8-0.7-0.8-1.3c0-0.7,0.3-1.4,0.4-2c0.6-3.2,1.3-6.4,1.9-9.6
										c1.5-7.7,3.1-15.3,4.6-23c0.2-0.9,0.3-1.8,0.5-2.7c0.3-1.5,2.1-1.6,3.4-1.6c2,0,4,0.4,5.8,1.1c1,0.4,3.4,1.3,3.5,2.5
										c0,0.4-0.2,1-0.3,1.4c-1.5,7.1-3.1,14.2-4.6,21.3c-0.8,3.6-1.6,7.2-2.4,10.9c-0.2,1.1-0.5,2.1-0.7,3.2
										c-0.2,0.9-0.2,1.3-1.2,1.7C413.7,403,411.7,402.8,409.9,402.4c-0.8-0.1-1.1,1.1-0.3,1.2c2,0.4,6.8,1.1,7.9-1.5
										c0.2-0.5,0.3-1.1,0.4-1.7c0.7-3.3,1.4-6.6,2.1-9.9c1.7-8.1,3.5-16.2,5.2-24.2c0.1-0.7,0.3-1.3,0.4-2
										c0.3-2.2-2.6-3.4-4.2-4.1c-1.8-0.7-3.8-1.1-5.7-1.2c-1.4,0-3.1,0-4.2,0.8c-0.8,0.5-0.9,1.2-1.1,2c-1.5,7.5-3,15.1-4.5,22.6
										c-0.8,3.8-1.5,7.6-2.3,11.4c-0.2,0.9-0.4,1.8-0.6,2.8c-0.3,1.4,0.5,2.4,1.7,3.1c1.4,1,3.2,1.5,4.9,1.9
										C410.4,403.8,410.7,402.6,409.9,402.4z"/>
								</g>
							</g>
							<g>
								
									<rect x="409.9" y="384.7" transform="matrix(0.1969 -0.9804 0.9804 0.1969 -52.9416 718.5292)" class="st3" width="4.4" height="13.7"/>
								<g>
									<path d="M418.5,394.5c-3.9-0.8-7.8-1.6-11.7-2.3c-0.6-0.1-1.1-0.2-1.7-0.3c0.1,0.3,0.3,0.5,0.4,0.8
										c0.3-1.4,0.6-2.9,0.9-4.3c-0.3,0.1-0.5,0.3-0.8,0.4c3.9,0.8,7.8,1.6,11.7,2.3c0.6,0.1,1.1,0.2,1.7,0.3
										c-0.1-0.3-0.3-0.5-0.4-0.8c-0.3,1.4-0.6,2.9-0.9,4.3c-0.2,0.8,1,1.1,1.2,0.3c0.3-1.4,0.6-2.9,0.9-4.3
										c0.1-0.3-0.1-0.7-0.4-0.8c-3.9-0.8-7.8-1.6-11.7-2.3c-0.6-0.1-1.1-0.2-1.7-0.3c-0.3-0.1-0.7,0.1-0.8,0.4
										c-0.3,1.4-0.6,2.9-0.9,4.3c-0.1,0.3,0.1,0.7,0.4,0.8c3.9,0.8,7.8,1.6,11.7,2.3c0.6,0.1,1.1,0.2,1.7,0.3
										C419,395.9,419.3,394.7,418.5,394.5z"/>
								</g>
							</g>
							<g>
								<g>
									<path class="st0" d="M411.8,360.7l9-11.9l4,14.6c0.1,0.4-0.7,0.6-1.6,0.4l-10.2-2.2C412.1,361.5,411.6,361,411.8,360.7z"/>
									<g>
										<path d="M412.3,361c2.6-3.5,5.3-7,7.9-10.4c0.4-0.5,0.7-1,1.1-1.5c-0.4,0-0.8-0.1-1.1-0.1c1,3.7,2,7.4,3,11.1
											c0.2,0.9,0.5,1.8,0.7,2.6c0.1,0.2,0.1,0.5,0.2,0.7c0,0,0,0.1,0,0.2c0,0,0,0,0,0c0-0.1,0-0.1,0-0.2c0.1-0.2,0-0.2-0.1-0.2
											c-0.1,0-0.4,0-0.5,0c-1.7-0.2-3.4-0.7-5.1-1.1c-1.3-0.3-2.5-0.5-3.8-0.8c-0.4-0.1-0.8-0.2-1.2-0.2c-0.1,0-0.2,0-0.2-0.1
											c-0.1,0-0.2,0-0.3-0.1c-0.1,0-0.2-0.1-0.4-0.1c-0.1,0-0.1-0.1-0.2-0.1C412.2,360.6,412.2,360.7,412.3,361
											c0.3-0.7-0.7-1.4-1.1-0.6c-0.9,1.9,3.9,2.3,5,2.6c2.2,0.5,4.4,1,6.7,1.4c0.9,0.2,2.7,0.3,2.5-1.1
											c-0.1-0.5-0.3-1.1-0.4-1.6c-0.7-2.5-1.4-5-2-7.5c-0.5-1.9-1-3.7-1.5-5.6c-0.2-0.6-0.8-0.6-1.1-0.1
											c-2.6,3.5-5.3,7-7.9,10.4c-0.4,0.5-0.7,1-1.1,1.5C410.8,361,411.8,361.7,412.3,361z"/>
									</g>
								</g>
								<polygon points="416.6,355.2 422.9,356.5 420.8,348.8 								"/>
							</g>
							<g>
								<path class="st14" d="M404.7,394l-1.3,6.5c-0.4,1.8,2.3,3.9,6,4.6h0c3.7,0.7,7-0.1,7.3-2l1.4-6.5L404.7,394z"/>
								<g>
									<path d="M404.1,393.8c-0.3,1.6-0.7,3.3-1,4.9c-0.1,0.6-0.3,1.1-0.3,1.7c-0.2,1.2,0.5,2.2,1.4,3c2.5,2.1,6.4,3,9.5,2.5
										c1.2-0.2,2.5-0.6,3.3-1.7c0.4-0.5,0.5-1.2,0.6-1.8c0.4-1.9,0.8-3.7,1.2-5.6c0.1-0.3-0.1-0.7-0.4-0.8
										c-3.9-0.8-7.8-1.6-11.7-2.4c-0.6-0.1-1.1-0.2-1.7-0.3c-0.8-0.2-1.1,1-0.3,1.2c3.9,0.8,7.8,1.6,11.7,2.4
										c0.6,0.1,1.1,0.2,1.7,0.3c-0.1-0.3-0.3-0.5-0.4-0.8c-0.3,1.4-0.6,2.8-0.9,4.2c-0.1,0.7-0.3,1.4-0.4,2.1
										c-0.2,0.8-0.8,1.2-1.6,1.5c-2.8,1-6.6,0.2-9-1.4c-0.7-0.5-1.7-1.3-1.6-2.3c0.1-0.5,0.2-1,0.3-1.5c0.3-1.7,0.7-3.3,1-5
										C405.4,393.3,404.2,393,404.1,393.8z"/>
								</g>
							</g>
							<g>
								
									<rect x="409.1" y="389" transform="matrix(0.1969 -0.9804 0.9804 0.1969 -57.8231 721.1254)" class="st3" width="4.3" height="13.7"/>
								<g>
									<path d="M417.7,398.7c-3.9-0.8-7.8-1.6-11.7-2.3c-0.6-0.1-1.1-0.2-1.7-0.3c0.1,0.3,0.3,0.5,0.4,0.8
										c0.3-1.4,0.6-2.8,0.8-4.2c-0.3,0.1-0.5,0.3-0.8,0.4c3.9,0.8,7.8,1.6,11.7,2.3c0.6,0.1,1.1,0.2,1.7,0.3
										c-0.1-0.3-0.3-0.5-0.4-0.8c-0.3,1.4-0.6,2.8-0.8,4.2c-0.2,0.8,1,1.1,1.2,0.3c0.3-1.4,0.6-2.8,0.8-4.2
										c0.1-0.3-0.1-0.7-0.4-0.8c-3.9-0.8-7.8-1.6-11.7-2.3c-0.6-0.1-1.1-0.2-1.7-0.3c-0.3-0.1-0.7,0.1-0.8,0.4
										c-0.3,1.4-0.6,2.8-0.8,4.2c-0.1,0.3,0.1,0.7,0.4,0.8c3.9,0.8,7.8,1.6,11.7,2.3c0.6,0.1,1.1,0.2,1.7,0.3
										C418.1,400.1,418.5,398.9,417.7,398.7z"/>
								</g>
							</g>
						</g>
						<g>
							<path class="st15" d="M400.9,408.6L400.9,408.6c-2.4,0-4.4-2-4.4-4.4v-65.3c0-2.4,2-4.4,4.4-4.4l0,0c2.4,0,4.4,2,4.4,4.4
								v65.3C405.3,406.6,403.3,408.6,400.9,408.6z"/>
							<line class="st16" x1="396.5" y1="352.6" x2="405.3" y2="352.6"/>
							<path class="st15" d="M405.9,367.4L405.9,367.4c-1.3,0-2.3-1-2.3-2.3v-19.6c0-1.3,1-2.3,2.3-2.3l0,0c1.3,0,2.3,1,2.3,2.3V365
								C408.2,366.3,407.2,367.4,405.9,367.4z"/>
						</g>
					</g>
					<g>
						<rect x="380.3" y="388.4" class="st3" width="47.8" height="38.9"/>
						<g>
							<path class="st0" d="M428.1,408.6v-1.4c-4.5-3.2-10.9-9.4-11.4-18.8h-1C416.2,398.8,423.3,405.3,428.1,408.6z"/>
							<path class="st0" d="M422.9,427.3c0.5-8-1.3-14.7-4.7-17.8c-2-1.8-5.5-3.2-10.7,0.2c-4.4,2.9-7.8,8.8-9.6,17.1
								c0,0.2-0.1,0.3-0.1,0.5h1c1.4-6.2,4-13.2,9.2-16.5c3.8-2.5,7.2-2.6,9.7-0.3c3.2,2.9,4.8,9.2,4.3,16.8H422.9z"/>
							<path class="st0" d="M384.8,427.3c0.5-5.8,4.4-11.2,11.4-19c6.1-6.8,10.1-13.4,12-19.9h-1c-1.9,6.1-5.7,12.5-11.6,19
								c-7.1,8-11.2,13.7-11.7,19.9H384.8z"/>
							<path class="st0" d="M380.3,402.7c3.2-0.1,7.6-1,10.5-4.7c1.9-2.4,2.8-5.6,2.9-9.7h-1c-0.1,3.7-1,6.7-2.7,8.8
								c-2.7,3.4-6.8,4.2-9.8,4.3V402.7z"/>
						</g>
						<rect x="380.3" y="388.4" class="st16" width="47.8" height="38.9"/>
					</g>
				</g>
			</g>
		</g>
	</g>
</g>
</svg>
