<svg width="22" height="22" viewBox="0 0 22 22" fill="none" xmlns="http://www.w3.org/2000/svg">
<path d="M13.694 0C12.327 0 11.224 -1.49012e-08 10.357 0.117C9.45705 0.237 8.69905 0.497 8.09705 1.098C7.57305 1.623 7.30705 2.268 7.16805 3.026C7.03305 3.763 7.00705 4.664 7.00105 5.746C6.99999 5.94491 7.07799 6.1361 7.21789 6.2775C7.35779 6.4189 7.54814 6.49894 7.74705 6.5C7.94596 6.50106 8.13715 6.42306 8.27855 6.28316C8.41995 6.14326 8.49999 5.95291 8.50105 5.754C8.50705 4.661 8.53505 3.886 8.64305 3.297C8.74805 2.731 8.91505 2.402 9.15805 2.159C9.43505 1.882 9.82405 1.702 10.558 1.603C11.313 1.502 12.314 1.5 13.749 1.5H14.749C16.185 1.5 17.186 1.502 17.941 1.603C18.675 1.702 19.063 1.883 19.341 2.159C19.617 2.436 19.797 2.824 19.896 3.559C19.998 4.313 19.999 5.315 19.999 6.75V14.75C19.999 16.185 19.998 17.186 19.896 17.942C19.797 18.676 19.617 19.064 19.34 19.341C19.063 19.618 18.675 19.798 17.941 19.897C17.186 19.998 16.185 20 14.749 20H13.749C12.314 20 11.313 19.998 10.557 19.897C9.82405 19.798 9.43505 19.617 9.15805 19.341C8.91505 19.097 8.74805 18.769 8.64305 18.203C8.53505 17.614 8.50705 16.839 8.50105 15.746C8.50052 15.6475 8.4806 15.5501 8.44243 15.4593C8.40425 15.3685 8.34857 15.2861 8.27855 15.2168C8.20853 15.1476 8.12556 15.0928 8.03437 15.0556C7.94317 15.0184 7.84554 14.9995 7.74705 15C7.64856 15.0005 7.55113 15.0204 7.46034 15.0586C7.36955 15.0968 7.28716 15.1525 7.21789 15.2225C7.14862 15.2925 7.09381 15.3755 7.05661 15.4667C7.0194 15.5579 7.00052 15.6555 7.00105 15.754C7.00705 16.836 7.03305 17.737 7.16805 18.474C7.30805 19.232 7.57305 19.877 8.09805 20.402C8.69905 21.004 9.45805 21.262 10.358 21.384C11.224 21.5 12.327 21.5 13.694 21.5H14.804C16.172 21.5 17.274 21.5 18.141 21.384C19.041 21.262 19.799 21.004 20.401 20.402C21.003 19.8 21.261 19.042 21.383 18.142C21.499 17.275 21.499 16.172 21.499 14.805V6.695C21.499 5.328 21.499 4.225 21.383 3.358C21.262 2.458 21.003 1.7 20.401 1.098C19.799 0.496 19.041 0.238 18.141 0.117C17.274 -1.49012e-08 16.171 0 14.804 0H13.694Z" fill="#280F01"/>
<path d="M0.75 9.99902C0.551087 9.99902 0.360322 10.078 0.21967 10.2187C0.0790177 10.3593 0 10.5501 0 10.749C0 10.9479 0.0790177 11.1387 0.21967 11.2794C0.360322 11.42 0.551087 11.499 0.75 11.499H12.723L10.762 13.179C10.6871 13.2431 10.6256 13.3213 10.581 13.4092C10.5364 13.497 10.5095 13.5928 10.5019 13.691C10.4865 13.8895 10.5506 14.0858 10.68 14.237C10.8094 14.3882 10.9936 14.4818 11.192 14.4971C11.3904 14.5125 11.5868 14.4484 11.738 14.319L15.238 11.319C15.3203 11.2486 15.3864 11.1612 15.4318 11.0628C15.4771 10.9644 15.5006 10.8574 15.5006 10.749C15.5006 10.6407 15.4771 10.5336 15.4318 10.4352C15.3864 10.3368 15.3203 10.2494 15.238 10.179L11.738 7.17902C11.5868 7.0496 11.3904 6.98552 11.192 7.0009C10.9936 7.01628 10.8094 7.10985 10.68 7.26102C10.5506 7.41219 10.4865 7.60859 10.5019 7.807C10.5173 8.00542 10.6108 8.1896 10.762 8.31902L12.722 9.99902H0.75Z" fill="#280F01"/>
</svg>
