<svg width="104" height="258" viewBox="0 0 104 258" fill="none" xmlns="http://www.w3.org/2000/svg">
<path d="M66.0903 175.926L42.0171 175.575L42.8593 161.398L67.4238 161.749L66.0903 175.926Z" fill="white" stroke="black" stroke-miterlimit="10"/>
<path d="M63.0724 164.627C64.5463 164.627 65.7394 165.89 65.7394 167.364C65.7394 168.838 64.4761 170.031 63.0022 170.031C61.5283 170.031 60.3352 168.768 60.3352 167.294C60.3352 165.82 61.5985 164.627 63.0724 164.627Z" fill="#FCE207" stroke="black" stroke-miterlimit="10"/>
<path d="M56.1944 161.609C57.5981 161.609 58.6508 162.732 58.6508 164.135C58.6508 165.539 57.5279 166.592 56.1242 166.592C54.7205 166.592 53.6677 165.469 53.6677 164.065C53.6677 162.661 54.7907 161.609 56.1944 161.609Z" fill="#FCE207" stroke="black" stroke-miterlimit="10"/>
<path d="M50.6498 166.802C51.9833 166.802 53.0361 167.925 53.0361 169.259C53.0361 170.592 51.9131 171.645 50.5796 171.645C49.2461 171.645 48.1934 170.522 48.1934 169.188C48.2635 167.855 49.3163 166.732 50.6498 166.802Z" fill="#FCE207" stroke="black" stroke-miterlimit="10"/>
<path d="M54.6504 174.523C54.6504 174.944 54.7206 175.365 54.9311 175.786L60.0546 175.856C60.2651 175.505 60.3353 175.084 60.3353 174.663C60.3353 173.119 59.072 171.785 57.5279 171.785C55.9839 171.715 54.6504 172.908 54.6504 174.523Z" fill="#FCE207" stroke="black" stroke-miterlimit="10"/>
<path d="M46.2983 175.645C46.2983 175.505 46.3685 175.295 46.3685 175.154C46.3685 173.54 45.1052 172.206 43.491 172.136C43.0698 172.136 42.6487 172.206 42.2276 172.417L42.0171 175.575L46.2983 175.645Z" fill="#FCE207" stroke="black" stroke-miterlimit="10"/>
<path d="M43.0699 161.398C42.9295 161.539 42.8594 161.749 42.7892 161.96L42.719 163.363C42.9997 164.486 43.9121 165.258 45.1053 165.258C46.5089 165.258 47.6319 164.206 47.6319 162.802C47.6319 162.311 47.4915 161.819 47.2108 161.398H43.0699Z" fill="#FCE207" stroke="black" stroke-miterlimit="10"/>
<path d="M89.2513 204.492L89.5321 157.959L62.0198 158.872L63.3533 180.699L74.0915 181.401L89.2513 204.492Z" fill="white" stroke="black" stroke-miterlimit="10"/>
<path d="M77.741 190.805L84.1278 187.998" stroke="black" stroke-miterlimit="10"/>
<path d="M75.425 186.524L81.8118 183.647" stroke="black" stroke-miterlimit="10"/>
<path d="M74.5126 183.226C74.5126 183.226 69.5997 195.157 66.1606 193.192C60.7564 190.033 74.5126 183.226 74.5126 183.226Z" stroke="black" stroke-miterlimit="10"/>
<path d="M62.9321 185.893L74.7231 182.945" stroke="black" stroke-miterlimit="10"/>
<path d="M74.3721 165.118C77.39 165.118 79.8465 167.574 79.7763 170.592C79.7763 173.61 77.3198 176.067 74.3019 175.997C71.284 175.997 68.8275 173.54 68.8977 170.522C68.8977 167.574 71.3542 165.118 74.3721 165.118Z" fill="#762AE2" stroke="black" stroke-miterlimit="10"/>
<path d="M52.615 158.17L50.5095 179.576C50.5095 179.576 20.7513 181.26 8.53921 169.259C-3.67288 157.257 -0.865504 140.694 15.6278 124.481C32.1212 108.269 45.7369 102.092 45.7369 102.092L76.1268 103.496C76.1268 103.496 35.3497 132.552 32.4019 146.589C30.5771 155.432 39.4905 156.064 52.615 158.17Z" fill="white" stroke="black" stroke-miterlimit="10"/>
<path d="M72.8983 103.356H72.2666V106.374C72.4772 106.233 72.6877 106.023 72.8983 105.882V103.356Z" fill="black"/>
<path d="M59.2124 113.813V116.55C59.423 116.34 59.6335 116.199 59.8441 115.989V113.743H62.5813C62.862 113.532 63.1428 113.322 63.4235 113.111H59.8441V102.724H59.2124V113.182H46.86V102.163H46.2283V113.182H33.8759V109.251C33.6653 109.392 33.4547 109.532 33.2442 109.672V113.111H28.612C28.3313 113.322 28.0505 113.532 27.7698 113.743H33.2442V126.095H20.8917V119.498C20.6812 119.709 20.4706 119.849 20.2601 120.06V126.025H14.0137C13.8031 126.236 13.5926 126.446 13.382 126.657H20.1899V139.009H7.83743V133.395C7.62688 133.746 7.41633 134.026 7.20577 134.377V139.009H4.46858C4.32821 139.22 4.25803 139.431 4.11766 139.641H7.20577V151.994H1.02954C1.02954 152.204 1.02954 152.415 1.02954 152.625H7.20577V164.978H5.10024C5.24061 165.188 5.38098 165.399 5.52134 165.609H7.20577V167.645C7.41633 167.855 7.62688 168.136 7.83743 168.347V165.609H20.1899V175.926C20.4004 175.997 20.611 176.067 20.8216 176.137V165.82H33.174V178.172H29.1033C30.7175 178.453 32.2616 178.664 33.8057 178.874V178.804H46.1581V179.646C46.3687 179.646 46.5792 179.646 46.7898 179.646V178.804H50.5096L50.5797 178.172H46.7898V165.82H51.7729L51.8431 165.188H46.7898V157.257C46.5792 157.257 46.3687 157.187 46.1581 157.187V165.188H33.8759V152.976C33.5951 152.695 33.3846 152.485 33.174 152.204H20.8216V139.852H33.174V144.203C33.3846 143.782 33.5951 143.291 33.8057 142.87V139.852H35.7006C35.841 139.641 35.9814 139.431 36.1919 139.22H33.8759V126.797H46.2283V128.061C46.4389 127.85 46.6494 127.64 46.86 127.429V126.797H47.4916C47.7022 126.587 47.9829 126.376 48.1935 126.166H46.86V113.813H59.2124ZM20.2601 165.188H7.83743V152.836H20.1899V165.188H20.2601ZM20.2601 152.204H7.83743V139.852H20.1899V152.204H20.2601ZM33.8759 165.82H46.2283V178.172H33.8759V165.82ZM33.2442 152.836V165.188H20.8917V152.836H33.2442ZM33.2442 139.15H20.8917V126.797H33.2442V139.15ZM46.2283 126.166H33.8759V113.813H46.2283V126.166Z" fill="black"/>
<path d="M43.9121 232.636L44.1928 208.562L58.2999 209.264L58.0894 233.899L43.9121 232.636Z" fill="white" stroke="black" stroke-miterlimit="10"/>
<path d="M55.1417 229.547C55.1417 231.021 53.9486 232.214 52.4045 232.214C50.9307 232.214 49.7375 231.021 49.7375 229.477C49.7375 228.003 50.9307 226.81 52.4747 226.81C54.0188 226.81 55.2119 228.003 55.1417 229.547Z" fill="#FCE207" stroke="black" stroke-miterlimit="10"/>
<path d="M58.1596 222.599C58.1596 224.003 57.0367 225.055 55.633 225.055C54.2293 225.055 53.1765 223.932 53.1765 222.529C53.1765 221.125 54.2995 220.072 55.7032 220.072C57.1068 220.142 58.2298 221.265 58.1596 222.599Z" fill="#FCE207" stroke="black" stroke-miterlimit="10"/>
<path d="M52.966 217.125C52.966 218.458 51.8431 219.511 50.5096 219.511C49.1761 219.511 48.1233 218.388 48.1233 217.054C48.1233 215.721 49.2462 214.668 50.5797 214.668C51.9132 214.668 52.966 215.791 52.966 217.125Z" fill="#FCE207" stroke="black" stroke-miterlimit="10"/>
<path d="M45.2456 221.125C44.8245 221.125 44.4034 221.195 43.9823 221.406L43.9121 226.529C44.263 226.74 44.6841 226.81 45.1052 226.81C46.6493 226.81 47.9828 225.547 47.9828 224.003C48.1232 222.459 46.8599 221.195 45.2456 221.125Z" fill="#FCE207" stroke="black" stroke-miterlimit="10"/>
<path d="M44.1228 212.773C44.2632 212.773 44.4737 212.843 44.6141 212.843C46.2283 212.843 47.5618 211.58 47.5618 209.896C47.5618 209.475 47.4917 209.053 47.2811 208.632L44.1228 208.492V212.773Z" fill="#FCE207" stroke="black" stroke-miterlimit="10"/>
<path d="M58.3001 209.545C58.1597 209.404 57.9492 209.334 57.7386 209.264L56.3349 209.194C55.2822 209.475 54.4399 210.457 54.4399 211.58C54.4399 212.984 55.5629 214.107 56.8964 214.107C57.3877 214.107 57.879 213.966 58.3001 213.686V209.545Z" fill="#FCE207" stroke="black" stroke-miterlimit="10"/>
<path d="M15.6279 257.13L62.1602 257.2L61.1776 229.688L39.3503 231.091L38.6484 241.829L15.6279 257.13Z" fill="white" stroke="black" stroke-miterlimit="10"/>
<path d="M29.3137 245.549L32.1913 251.936" stroke="black" stroke-miterlimit="10"/>
<path d="M33.5952 243.233L36.4728 249.55" stroke="black" stroke-miterlimit="10"/>
<path d="M36.8236 242.251C36.8236 242.251 24.8221 237.338 26.8574 233.969C30.0157 228.494 36.8236 242.251 36.8236 242.251Z" stroke="black" stroke-miterlimit="10"/>
<path d="M34.2268 230.67L37.1745 242.461" stroke="black" stroke-miterlimit="10"/>
<path d="M54.917 242.889C55.4013 239.904 53.3746 237.092 50.3902 236.608C47.4058 236.123 44.5938 238.15 44.1094 241.135C43.6251 244.119 45.6518 246.931 48.6362 247.415C51.6206 247.9 54.4326 245.873 54.917 242.889Z" fill="#762AE2" stroke="black" stroke-miterlimit="10"/>
<path d="M39.4905 218.107L62.16 218.458L78.0217 100.057L42.719 100.969L39.4905 218.107Z" fill="white" stroke="black" stroke-miterlimit="10"/>
<path d="M74.3722 120.621V127.289L75.0038 122.446V120.621H75.2846L75.3547 119.989H75.0038V107.637H76.969L77.0392 107.005H74.9336V100.127H74.302V106.935H61.9495V100.408H61.3179V106.865H48.9654V100.689H48.3337V106.865H42.5786V107.497H48.4039V119.849H42.2277V120.481H48.4039V132.833H41.8768V133.465H48.4039V145.817H41.5259V146.449H48.4039V158.801H41.1749V159.433H48.4039V171.785H40.824V172.417H48.4039V184.77H40.4731V185.401H48.4039V197.754H40.1222V198.385H48.4039V211.019H39.7712V211.65H48.4741V218.248H49.1058V211.65H61.4582V218.458H62.0899V211.65H63.2128L63.283 211.019H62.0899V198.666H64.8973L64.9675 198.034H62.0197V185.682H66.5817L66.6519 185.05H62.0197V172.698H68.3363L68.4065 172.066H62.0197V159.714H70.0909L70.1611 159.082H62.0197V146.73H71.7753L71.8455 146.098H61.9495V133.746H73.4598L73.5299 133.114H61.9495V120.761H74.3722V120.621ZM62.0197 107.637H74.3722V119.989H62.0197V107.637ZM61.3179 211.019H48.9654V198.666H61.3179V211.019ZM61.3179 198.034H48.9654V185.682H61.3179V198.034ZM61.3179 184.98H48.9654V172.628H61.3179V184.98ZM61.3179 171.996H48.9654V159.644H61.3179V171.996ZM61.3179 159.012H48.9654V146.659H61.3179V159.012ZM61.3179 145.958H48.9654V133.605H61.3179V145.958ZM61.3179 132.973H48.9654V120.621H61.3179V132.973ZM61.3179 119.989H48.9654V107.637H61.3179V119.989Z" fill="black"/>
<path d="M67.494 122.726C67.0028 123.569 65.8798 123.92 65.0376 123.358L55.7732 118.024C54.931 117.533 54.5801 116.41 55.1416 115.568C55.6329 114.725 56.7558 114.375 57.598 114.936L66.8624 120.27C67.7046 120.761 68.0555 121.884 67.494 122.726Z" fill="#762AE2" stroke="black" stroke-miterlimit="10"/>
<path d="M30.6473 98.7235C30.6473 98.7235 22.7867 101.32 16.9614 98.162C11.1361 95.0037 20.1197 86.3711 20.1197 86.3711L28.4716 78.721L31.4194 77.8086L35.0689 59.1395C36.613 55.2092 37.1043 53.6651 39.7011 51.4894C42.2979 49.3137 49.4567 45.4535 49.4567 45.4535C49.4567 45.4535 50.7903 44.6815 51.4921 45.4535C52.2641 46.2256 56.6857 47.91 59.072 46.5063C61.4583 45.1026 61.3881 45.6641 61.3881 45.6641L62.3707 44.6113C62.3707 44.6113 65.7395 44.7517 67.4941 45.6641C69.3189 46.5765 83.1453 52.7527 90.8655 63.6313C98.5858 74.5801 99.779 75.6328 101.112 79.8439C102.446 84.1252 92.6202 94.0212 88.6197 97.4602C84.6191 100.899 76.7585 104.058 76.7585 104.058L34.5777 102.864L34.4373 98.2322C34.4373 98.2322 34.7882 97.0391 33.174 97.7409C31.5597 98.4428 30.6473 98.7235 30.6473 98.7235Z" fill="white"/>
<path d="M34.5777 103.215C34.5777 103.215 34.0864 101.601 35.2796 101.461C36.4727 101.32 69.2488 101.391 69.2488 101.391L72.8984 101.531C72.8984 101.531 74.1617 101.32 75.6356 101.742C76.8989 102.163 78.3026 103.215 78.7939 103.286C79.7063 103.426 81.11 104.549 81.11 104.549V107.777H34.8585L34.5777 103.215Z" fill="#FF739E"/>
<path d="M34.5073 101.461L75.0037 101.32" stroke="black" stroke-miterlimit="10"/>
<path d="M38.8589 101.461V107.848" stroke="black" stroke-miterlimit="10"/>
<path d="M43.842 101.601V107.988" stroke="black" stroke-miterlimit="10"/>
<path d="M48.5442 101.461V107.848" stroke="black" stroke-miterlimit="10"/>
<path d="M52.8254 101.601V107.988" stroke="black" stroke-miterlimit="10"/>
<path d="M57.8086 101.601V107.988" stroke="black" stroke-miterlimit="10"/>
<path d="M62.3706 101.601V107.988" stroke="black" stroke-miterlimit="10"/>
<path d="M66.3711 101.461V107.848" stroke="black" stroke-miterlimit="10"/>
<path d="M70.3015 101.391V107.848" stroke="black" stroke-miterlimit="10"/>
<path d="M74.1616 101.391V107.848" stroke="black" stroke-miterlimit="10"/>
<path d="M62.0198 44.471C62.0198 44.471 51.9834 42.6462 48.8953 46.0852" stroke="black" stroke-miterlimit="10"/>
<path d="M50.5797 45.7344C50.5797 45.7344 31.9106 62.4383 34.8584 107.848H81.1099V104.128" stroke="black" stroke-miterlimit="10"/>
<path d="M68.4768 26.6441C68.4768 29.1006 66.4414 31.1359 63.9148 31.1359C61.3881 31.1359 59.3528 29.1006 59.3528 26.6441C59.3528 24.1877 61.3881 22.1523 63.9148 22.1523C66.4414 22.1523 68.4768 24.1175 68.4768 26.6441Z" stroke="black" stroke-width="2" stroke-miterlimit="10"/>
<path d="M50.1584 44.6816C50.1584 46.7871 53.036 48.4715 56.6154 48.4715C60.1948 48.4715 63.0724 46.7871 63.0724 44.6816C63.0724 42.576 60.1948 40.8916 56.6154 40.8916C53.1062 40.8916 50.1584 42.6462 50.1584 44.6816Z" fill="#FF739E" stroke="#1C191B" stroke-miterlimit="10"/>
<path d="M48.6846 12.6775H54.3695C58.1595 12.6775 61.2476 16.1867 61.2476 20.5381V29.3814C61.2476 29.6621 61.2476 29.8727 61.2476 30.1534C61.3178 30.4342 61.3178 30.7149 61.3178 30.9956V36.3998V36.6806V42.0848C61.3178 44.0499 59.7035 45.6642 57.7384 45.6642H55.4925C53.5273 45.6642 51.9131 44.0499 51.9131 42.0848V37.3122H48.6144C44.8244 37.3122 41.7363 33.803 41.7363 29.4516V20.6083C41.8065 16.1867 44.8946 12.6775 48.6846 12.6775Z" fill="white" stroke="black" stroke-miterlimit="10"/>
<path d="M51.9132 24.679C52.6109 24.679 53.1765 24.1134 53.1765 23.4157C53.1765 22.7179 52.6109 22.1523 51.9132 22.1523C51.2155 22.1523 50.6499 22.7179 50.6499 23.4157C50.6499 24.1134 51.2155 24.679 51.9132 24.679Z" fill="#0C0C0C"/>
<path d="M44.8245 23.2052C44.8245 23.8369 44.3332 24.3282 43.7016 24.3282C43.0699 24.3282 42.5786 23.8369 42.5786 23.2052C42.5786 22.5736 43.0699 22.0823 43.7016 22.0823C44.3332 22.1525 44.8245 22.6437 44.8245 23.2052Z" fill="#0C0C0C"/>
<path d="M46.0176 28.4689C46.0176 28.4689 46.6492 30.3639 48.0529 30.5043C49.3864 30.6447 50.5094 29.1006 50.5796 27.9075L46.0176 28.4689Z" fill="#FFFDFD"/>
<path d="M45.6666 28.5392C45.8772 29.2411 46.3685 29.9429 46.93 30.364C47.9827 31.136 49.3162 30.7851 50.1584 29.8025C50.5795 29.2411 50.9305 28.5392 51.0007 27.8374C51.0007 27.6268 50.7901 27.4163 50.5796 27.4163C49.246 27.5566 47.9125 27.7672 46.6492 27.9075C46.4387 27.9075 46.2983 27.9777 46.0877 27.9777C45.8772 27.9777 45.6666 28.1181 45.6666 28.3988C45.6666 28.6094 45.8772 28.8199 46.0877 28.8199C47.4212 28.6796 48.7548 28.469 50.0181 28.3287C50.2286 28.3287 50.369 28.2585 50.5796 28.2585C50.4392 28.1181 50.2988 27.9777 50.1584 27.8374C50.0883 28.7498 49.4566 29.7323 48.5442 29.9429C47.702 30.1535 47.0703 29.5218 46.6492 28.8199C46.579 28.6796 46.5089 28.5392 46.4387 28.3287C46.4387 28.2585 46.4387 28.3988 46.4387 28.3287V28.2585V28.1883C46.2281 27.9075 45.4561 28.1181 45.6666 28.5392Z" fill="#0C0C0C"/>
<path d="M57.6682 28.118C57.6682 29.8726 56.2645 31.2763 54.5099 31.2763C52.7553 31.2763 51.3516 29.8726 51.3516 28.118C51.3516 26.3634 52.7553 24.9597 54.5099 24.9597C56.2645 24.9597 57.6682 26.3634 57.6682 28.118Z" fill="#F9B4CD"/>
<path d="M42.6489 25.9424C42.4383 25.9424 42.298 25.9424 42.0874 26.0126V29.3112C42.0874 29.8025 42.0874 30.2938 42.2278 30.7149C42.3681 30.7149 42.5085 30.7851 42.6489 30.7851C43.9824 30.7851 45.1053 29.7323 45.1053 28.3286C45.1053 27.0653 43.9824 25.9424 42.6489 25.9424Z" fill="#F9B4CD"/>
<path d="M47.4915 22.1523L47.7021 26.5038L45.6667 25.2405L47.4915 22.1523Z" fill="#FF6989"/>
<path d="M59.7739 26.5038L58.7211 19.5555C58.7211 19.5555 39.5608 21.9418 33.3845 12.6775C27.2083 3.41313 33.6653 -0.306648 36.8236 0.254827C39.9819 0.746118 43.6314 5.30811 43.6314 5.30811C43.6314 5.30811 40.6837 1.3076 43.6314 0.675938C46.5792 0.0442781 49.8077 3.0622 51.4921 6.2205C51.4921 6.2205 64.1253 5.02737 68.3364 12.6775C72.6176 20.3276 69.1786 25.7318 61.3179 33.5924L60.8266 29.1708L59.7739 26.5038Z" fill="black"/>
<path d="M68.4768 26.6441C68.4768 29.1006 66.4414 31.1359 63.9148 31.1359C61.3881 31.1359 59.3528 29.1006 59.3528 26.6441C59.3528 24.1877 61.3881 22.1523 63.9148 22.1523C66.4414 22.1523 68.4768 24.1175 68.4768 26.6441Z" fill="white"/>
<path d="M61.9498 27.2056C61.9498 27.1354 61.9498 26.9951 61.9498 26.9249C61.9498 26.8547 61.9498 26.8547 61.9498 26.7845V26.7143C61.9498 26.574 61.9498 26.8547 61.9498 26.7143C61.9498 26.574 62.02 26.4336 62.02 26.3634C62.02 26.2932 62.0901 26.223 62.0901 26.1528C62.0901 26.0827 62.0901 26.0827 62.1603 26.0125C62.1603 26.0125 62.1603 26.0125 62.1603 25.9423C62.1603 25.8721 62.1603 25.9423 62.1603 26.0125C62.2305 25.8721 62.3007 25.7317 62.3709 25.5914C62.3709 25.5914 62.3709 25.5914 62.3709 25.5212C62.4411 25.451 62.4411 25.5212 62.3709 25.5212L62.4411 25.451C62.5112 25.3808 62.5814 25.3106 62.6516 25.2404C62.6516 25.2404 62.6516 25.2404 62.7218 25.2404C62.792 25.1703 62.792 25.2404 62.7218 25.2404L62.792 25.1703C62.8622 25.1001 62.9324 25.1001 63.0727 25.0299C63.0025 25.0299 63.0727 25.0299 63.1429 25.0299C63.2131 25.0299 63.2833 24.9597 63.2833 24.9597C63.3535 24.9597 63.4236 24.9597 63.4938 24.8895H63.564H63.6342C63.7044 24.8895 63.7044 24.8895 63.6342 24.8895C63.7044 24.8895 63.7746 24.8895 63.8447 24.8895C63.9149 24.8895 63.9851 24.8895 64.0553 24.8895C64.1957 24.8895 64.4062 24.8895 64.5466 24.8895C64.8273 24.8895 65.0379 24.679 65.0379 24.3982C65.0379 24.1175 64.8273 23.9771 64.5466 23.9069C63.564 23.8368 62.5112 24.0473 61.8796 24.8193C61.4585 25.3808 61.2479 26.0125 61.1777 26.7143C61.1777 26.8547 61.1777 26.9951 61.1777 27.1354C61.1777 27.4162 61.3883 27.6267 61.669 27.6267C61.7392 27.6969 61.9498 27.4863 61.9498 27.2056Z" fill="#020202"/>
<path d="M86.6545 84.1252C86.6545 84.1252 79.9168 79.2123 77.9517 76.405C75.9865 73.6678 73.881 74.51 72.2667 75.6329C70.6525 76.7559 64.4061 79.6334 64.4061 79.6334L62.4409 81.3179C62.4409 81.3179 60.8969 81.8092 63.0024 85.8097C65.1781 89.8102 71.5649 101.11 78.7939 103.286C86.0229 105.461 91.0762 105.672 94.5854 103.917C98.0946 102.163 100.551 100.408 102.235 95.7759C103.92 91.1437 102.306 83.1427 100.691 78.5807C99.0772 74.0187 90.5849 72.8256 87.216 74.5802C83.8472 76.3348 86.6545 84.1252 86.6545 84.1252Z" fill="white"/>
<path d="M60.195 79.8439L59.3528 77.8787C59.3528 77.8787 59.2124 77.3172 59.9844 76.9663C60.7564 76.6154 72.2667 70.7199 72.2667 70.7199C72.2667 70.7199 73.2493 70.018 73.6002 70.7199C73.9511 71.4217 76.2672 74.5098 76.2672 74.5098C76.2672 74.5098 76.8989 75.2819 76.2672 75.703C75.6355 76.1241 65.1781 81.3879 65.1781 81.3879L62.5111 82.8618C62.5111 82.8618 61.6688 83.2829 61.4583 82.8618C61.3179 82.3705 60.195 79.8439 60.195 79.8439Z" fill="#FF739E"/>
<path d="M55.3521 65.807C55.3521 65.807 53.6677 60.3326 54.5099 59.2096C55.2819 58.0867 56.2645 59.1395 56.826 60.473C57.3874 61.8065 58.37 64.4735 58.37 64.4735L60.6159 58.578C60.6159 58.578 53.9484 54.6477 53.5975 53.8756C53.2466 53.1036 53.1764 52.5421 53.5975 52.4719C54.0186 52.4018 55.4223 52.6123 55.4223 52.6123C55.4223 52.6123 53.1062 50.7875 53.6677 50.0155C54.2291 49.2435 56.6856 50.6471 56.6856 50.6471C56.6856 50.6471 55.5626 47.6292 55.8434 46.9976C56.1241 46.3659 59.0719 49.5944 59.9141 50.8577C60.7563 52.121 62.2302 54.1564 62.2302 54.1564C62.2302 54.1564 63.1426 54.7178 63.1426 55.0688C63.1426 55.4197 64.2655 56.1215 64.4761 56.1917C64.6866 56.3321 66.2307 58.8587 67.7045 61.4555C69.1784 64.0524 71.3541 67.5616 71.3541 67.5616L72.4069 69.1758C72.4069 69.1758 73.4597 70.4391 71.6349 71.2112C69.7399 71.9832 62.4407 75.9135 62.4407 75.9135L60.1246 77.1067C60.1246 77.1067 59.493 78.2296 58.6508 75.9135C57.7384 73.4571 55.3521 65.807 55.3521 65.807Z" fill="white"/>
<path d="M63.1426 44.6816C63.1426 44.6816 76.2671 46.0151 91.5673 64.4035C106.868 82.7918 104.2 94.7933 99.428 100.899C95.7784 105.602 79.2148 108.62 69.4592 96.197C59.6334 83.7744 53.3168 61.1048 54.5099 59.2098C55.7031 57.3148 56.8962 60.1924 58.3701 64.4736L60.616 58.5782C60.616 58.5782 53.4572 54.718 53.2466 52.8932C53.0361 51.0684 64.1252 55.1391 65.2481 56.9639C66.3711 58.7887 76.8988 81.1775 90.8655 86.301" stroke="black" stroke-miterlimit="10"/>
<path d="M56.0539 52.6825C56.0539 52.6825 53.1062 51.2789 53.5975 50.0155C54.0888 48.7522 63.1425 53.8055 63.0724 55.4197" stroke="black" stroke-miterlimit="10"/>
<path d="M56.9665 50.7173C56.9665 50.7173 54.861 47.4888 55.8435 46.9273C56.7559 46.436 60.8968 51.7701 61.5285 53.4545" stroke="black" stroke-miterlimit="10"/>
<path d="M59.1421 77.3873L73.179 70.2285" stroke="black" stroke-miterlimit="10"/>
<path d="M61.6689 83.2127L76.8288 75.0713" stroke="black" stroke-miterlimit="10"/>
<path d="M60.967 76.4048L63.8446 82.0897" stroke="black" stroke-miterlimit="10"/>
<path d="M63.634 75.0715L66.5116 80.6161" stroke="black" stroke-miterlimit="10"/>
<path d="M66.1606 73.6677L68.968 79.2123" stroke="black" stroke-miterlimit="10"/>
<path d="M68.968 72.3342L71.5648 77.8086" stroke="black" stroke-miterlimit="10"/>
<path d="M71.2842 71.1411L74.2319 76.4049" stroke="black" stroke-miterlimit="10"/>
<path d="M47.882 32.4187L35.7004 33.2825L37.274 55.4753L49.4556 54.6116L47.882 32.4187Z" fill="white" stroke="black" stroke-miterlimit="10"/>
<path d="M38.4378 38.5757C37.8764 38.6458 37.3851 38.2247 37.3149 37.6633L37.1043 35.4875C37.0341 34.9261 37.4553 34.4348 38.0167 34.3646C38.5782 34.2944 39.0695 34.7155 39.1397 35.277L39.3502 37.4527C39.3502 38.0844 38.9993 38.5757 38.4378 38.5757Z" fill="white" stroke="black" stroke-miterlimit="10"/>
<path d="M23.2778 53.4546C23.2778 53.4546 27.91 45.6642 30.7876 43.4884C33.6651 41.3127 35.4899 40.6811 37.806 40.26C40.0519 39.8389 43.5611 39.4177 45.1052 40.0494C46.5791 40.6811 45.8772 40.8916 45.5965 41.1724C45.3157 41.3829 42.1575 42.576 42.1575 42.576C42.1575 42.576 46.2983 41.9444 46.7194 42.6462C47.1405 43.3481 45.807 44.0499 45.3158 44.2605C44.7543 44.471 42.6487 45.2431 42.6487 45.2431C42.6487 45.2431 46.8598 44.7518 47.2809 45.5238C47.702 46.2256 46.0176 46.9275 46.0176 46.9275L43.5611 47.9101C43.5611 47.9101 47.2107 47.5591 47.2809 48.4715C47.3511 49.3137 46.3685 49.3839 45.4561 49.6647C44.5437 49.9454 39.6308 51.1385 38.578 52.4019C37.5253 53.7354 34.6477 58.5079 32.8931 69.1759C31.1385 79.9142 30.8578 82.9321 30.8578 82.9321L29.1031 94.0914C29.1031 94.0914 20.8916 102.163 15.2768 96.8286C9.66207 91.5648 10.2235 81.6688 12.7502 74.7205C15.2768 67.7723 20.5407 58.157 20.5407 58.157L23.2778 53.4546Z" fill="white"/>
<path d="M20.0495 62.1575C20.0495 62.1575 18.365 62.0873 19.1371 60.6134C19.9091 59.1395 21.3128 56.8235 21.3128 56.8235C21.3128 56.8235 21.5233 55.9111 22.8568 56.4023C24.1903 56.8936 33.4547 60.4029 33.4547 60.4029C33.4547 60.4029 34.9987 60.9643 34.718 61.5258C34.4373 62.0873 33.6652 65.2456 33.595 65.6667C33.5249 66.0878 33.3143 67.4915 32.6125 67.2108C31.8404 66.93 20.0495 62.1575 20.0495 62.1575Z" fill="#FF739E"/>
<path d="M21.7339 56.0513L34.5776 60.9642" stroke="black" stroke-miterlimit="10"/>
<path d="M18.5757 61.5959L33.174 67.2809" stroke="black" stroke-miterlimit="10"/>
<path d="M20.9617 62.5086L23.8392 56.8938" stroke="black" stroke-miterlimit="10"/>
<path d="M24.4006 63.842L26.7869 57.9465" stroke="black" stroke-miterlimit="10"/>
<path d="M27.6294 65.1055L30.0157 59.21" stroke="black" stroke-miterlimit="10"/>
<path d="M30.7876 66.2985L32.5422 60.1223" stroke="black" stroke-miterlimit="10"/>
<path d="M30.3666 84.3358C30.3666 84.3358 33.1038 66.7897 34.0864 62.9295C35.0689 59.0694 35.9813 55.3496 38.2974 52.6826C40.6135 50.0156 47.7021 49.8752 47.281 48.4715C46.9301 47.0678 39.6309 48.4715 39.6309 48.4715C43.2103 48.0504 47.7723 46.6467 47.2108 45.4536C46.6494 44.3306 38.8589 45.9449 38.8589 45.9449C44.8948 44.6816 47.281 43.5586 46.6494 42.576C46.0177 41.5934 38.0869 43.2077 38.0869 43.2077C44.8246 41.9444 46.1581 41.2425 45.5966 40.3301C45.0351 39.4177 37.9465 38.9966 32.051 42.4357C26.1555 45.8747 15.1366 67.8424 15.1366 67.8424C15.1366 67.8424 4.39834 91.1436 16.049 97.3901C23.2078 101.25 30.0157 99.2149 34.2267 97.1093" stroke="#1C191B" stroke-miterlimit="10"/>
</svg>
