<?xml version="1.0" encoding="utf-8"?>
<!-- Generator: Adobe Illustrator 27.8.1, SVG Export Plug-In . SVG Version: 6.00 Build 0)  -->
<svg version="1.1" id="Logo_00000129199909956149257780000013732909243967946173_"
	 xmlns="http://www.w3.org/2000/svg" xmlns:xlink="http://www.w3.org/1999/xlink" x="0px" y="0px" viewBox="0 0 1108.9 714"
	 style="enable-background:new 0 0 1108.9 714;" xml:space="preserve">
<style type="text/css">
	.st0{fill:#280F01;}
	.st1{clip-path:url(#SVGID_00000088104077892844029470000015458278618950251424_);fill:#FFBC45;}
	.st2{clip-path:url(#SVGID_00000088104077892844029470000015458278618950251424_);fill:#ED4860;}
	.st3{fill:#FFBC45;}
	.st4{fill:#ED4860;}
</style>
<image style="display:none;overflow:visible;" width="1440" height="900" xlink:href="C:\Users\Friends\OneDrive\Pictures\Screenshots\Screenshot (240).png"  transform="matrix(1 0 0 1 -494.5909 -273.409)">
</image>
<polygon class="st0" points="59.3,278.9 11.4,278.9 11.4,243.2 145,243.2 145,278.9 97.9,278.9 97.9,473.3 58.6,473.3 "/>
<g>
	<defs>
		<polygon id="SVGID_1_" points="818.7,278.9 770.8,278.9 770.8,243.2 904.4,243.2 904.4,278.9 857.3,278.9 857.3,473.3 818,473.3 
					"/>
	</defs>
	<clipPath id="SVGID_00000112631922682895636850000016716827756701464499_">
		<use xlink:href="#SVGID_1_"  style="overflow:visible;"/>
	</clipPath>
	<polygon style="clip-path:url(#SVGID_00000112631922682895636850000016716827756701464499_);fill:#FFBC45;" points="857.3,358.7 
		793.4,358.7 725.9,218 925.3,228.7 913.5,313 	"/>
	
		<rect x="762.6" y="358.7" style="clip-path:url(#SVGID_00000112631922682895636850000016716827756701464499_);fill:#ED4860;" width="152.5" height="117.8"/>
</g>
<g>
	<path class="st3" d="M255.4,278.2c26.5,0,48,21.5,48,48s-21.5,48-48,48c-26.5,0-48-21.5-48-48S228.9,278.2,255.4,278.2
		 M255.4,245.2c-44.6,0-81,36.3-81,81s36.3,81,81,81s81-36.3,81-81S300.1,245.2,255.4,245.2L255.4,245.2z"/>
</g>
<rect x="179" y="436.5" class="st4" width="152.5" height="36.8"/>
<g>
	<path class="st0" d="M448,243.2h-59.3v230.1H448c63.5,0,115-51.5,115-115v0C563,294.7,511.5,243.2,448,243.2z M522.3,358.7
		c0,42.7-28.8,77.2-64.4,77.2h-33.2V281.4h33.2C493.5,281.4,522.3,316,522.3,358.7L522.3,358.7z"/>
</g>
<g>
	<path class="st0" d="M671.1,237.8l-90.9,235.4h40l10-26.8h81.5l10,26.8H762L671.1,237.8z M642.3,414.7l28.8-78.2l30.2,78.2H642.3z"
		/>
</g>
<polygon class="st0" points="1091.9,282.5 1091.9,243.2 936.5,243.2 936.5,276.1 936.5,282.5 936.5,339.7 936.5,379 936.5,434 
	936.5,449.7 936.5,473.3 1091.9,473.3 1091.9,434 975.8,434 975.8,379 1072.6,379 1072.6,339.7 975.8,339.7 975.8,282.5 "/>
<path class="st3" d="M841.7,493.1h-46c0,0-76.2,141.8-232.7,141.9s-225.1-77.1-256.1-141.9H259c0,0,42.7,117.2,181.3,165.5
	c75.4,26.3,157.7,23.1,232.1-5.7C770,615.1,810.6,549.6,841.7,493.1z"/>
<path class="st4" d="M841.7,218h-46c0,0-76.2-141.8-232.7-141.9C406.5,76,337.9,153.2,306.9,218H259c0,0,42.7-117.2,181.3-165.5
	c75.4-26.3,157.7-23.1,232.1,5.7C770,96,810.6,161.5,841.7,218z"/>
</svg>
