<svg width="48" height="48" viewBox="0 0 48 48" fill="none" xmlns="http://www.w3.org/2000/svg">
<path d="M10 48H38.9469C42.8083 48 46.1087 45.2193 46.764 41.4139L46.9769 40.1777C47.2823 38.4041 46.8487 36.5827 45.7768 35.137C44.2644 33.0972 44.0592 30.3696 45.2495 28.1265L46.093 26.5371C47.2549 24.3475 47.0336 21.6814 45.5265 19.7134C44.1495 17.9153 43.8367 15.5192 44.706 13.4279L46.2612 9.68627C47.0261 7.84604 47.0343 5.77837 46.2839 3.93215C45.3178 1.55485 43.0075 0 40.4414 0H10C4.47715 0 0 4.47715 0 10V38C0 43.5229 4.47716 48 10 48Z" fill="#C7C7C7"/>
</svg>
