<?xml version="1.0" encoding="utf-8"?>
<!-- Generator: Adobe Illustrator 27.8.1, SVG Export Plug-In . SVG Version: 6.00 Build 0)  -->
<svg version="1.1" id="Illustration" xmlns="http://www.w3.org/2000/svg" xmlns:xlink="http://www.w3.org/1999/xlink" x="0px"
	 y="0px" viewBox="0 0 2500 2500" style="enable-background:new 0 0 2500 2500;" xml:space="preserve">
<style type="text/css">
	.st0{fill:#FFFFFF;}
	.st1{fill:#FFBC45;}
	.st2{fill:#ED4860;}
</style>
<g>
	<g>
		<g>
			<polygon class="st0" points="1613.3,1566.4 1544.2,2274.3 1494.9,2272.2 1519.4,1528 			"/>
			<path d="M1544,2278.8l-49.3-2.1c-2.5-0.1-4.4-2.2-4.4-4.7l24.5-744.1c0-1.5,0.8-2.9,2.1-3.7c1.3-0.8,2.8-1,4.2-0.4l94,38.4
				c1.9,0.8,3,2.7,2.8,4.7l-69.1,707.9c-0.2,2.3-2.2,4.1-4.5,4.1C1544.1,2278.8,1544.1,2278.8,1544,2278.8z M1523.7,1534.7
				l-24.1,733.1l40.5,1.7l68.4-700.2L1523.7,1534.7z"/>
		</g>
		<g>
			<polygon class="st0" points="686.1,1540.9 753.5,2276 804.5,2272.2 780,1501.2 			"/>
			<path d="M749,2276.4l-67.5-735.1c-0.2-2,0.9-3.8,2.8-4.6l94-39.7c1.4-0.6,3-0.5,4.2,0.4c1.3,0.8,2,2.2,2.1,3.7l24.5,771
				c0.1,2.4-1.8,4.5-4.2,4.7l-51,3.8c-0.1,0-0.2,0-0.3,0C751.2,2280.6,749.2,2278.8,749,2276.4z M775.7,1508l-84.8,35.9l66.7,727.3
				l42.2-3.2L775.7,1508z"/>
		</g>
		<g>
			<polygon class="st0" points="451.2,1368 471.1,2139.9 510.9,2131.2 547.4,1331.3 			"/>
			<path d="M468.3,2143.4c-1.1-0.8-1.7-2.1-1.7-3.5l-19.8-771.9c-0.1-1.9,1.1-3.7,2.9-4.4l96.2-36.7c1.4-0.5,3.1-0.3,4.3,0.6
				c1.2,0.9,1.9,2.4,1.9,3.9l-36.5,800c-0.1,2.1-1.6,3.8-3.6,4.2l-39.8,8.6c-0.3,0.1-0.6,0.1-1,0.1
				C470.1,2144.4,469.1,2144.1,468.3,2143.4z M542.6,1338l-86.7,33.1l19.6,763.2l31-6.7L542.6,1338z"/>
		</g>
		<g>
			<polygon class="st0" points="1229.4,1350.7 1249.2,2122.6 1290.6,2122.8 1325.6,1314 			"/>
			<path d="M1290.6,2127.4l-41.4-0.2c-2.5,0-4.5-2-4.5-4.4l-19.8-771.9c-0.1-1.9,1.1-3.7,2.9-4.4l96.2-36.7c1.4-0.5,3-0.3,4.3,0.6
				c1.2,0.9,2,2.4,1.9,3.9l-35,808.8C1295.1,2125.5,1293,2127.4,1290.6,2127.4C1290.6,2127.4,1290.6,2127.4,1290.6,2127.4z
				 M1234,1353.8l19.6,764.3l32.6,0.2l34.5-797.5L1234,1353.8z"/>
		</g>
		<g>
			<path class="st0" d="M1029.5,747.9v179.6c0,175.7,138.5,318,309.4,318c170.9,0,309.4,142.4,309.4,318c0,15.7-12.7,28.3-28.3,28.3
				H800.9c-256.2,0-463.9-213.5-463.9-476.8V731.9c0-104.7,82.6-189.6,184.5-189.6h307.8C939.9,542.2,1029.5,634.3,1029.5,747.9z"/>
			<path d="M332.5,1115.1V731.9c0-107.1,84.8-194.2,189.1-194.2h307.8c112.8,0,204.6,94.3,204.6,210.2v179.6
				c0,172.9,136.8,313.5,304.9,313.5c173.1,0,314,144.7,314,322.6c0,18.1-14.7,32.9-32.8,32.9H800.9
				C542.7,1596.5,332.5,1380.5,332.5,1115.1z M521.6,546.8c-99.2,0-179.9,83-179.9,185.1v383.2c0,260.4,206.1,472.2,459.3,472.2
				H1620c13.1,0,23.7-10.7,23.7-23.8c0-172.9-136.8-313.5-304.9-313.5c-173.1,0-314-144.7-314-322.6V747.9
				c0-110.9-87.7-201.1-195.5-201.1H521.6z"/>
		</g>
	</g>
	<g>
		<g>
			<g>
				<path class="st0" d="M1087.9,756.3c0,0,44.6,405.9,344.5,432.4l-344.5,4.9c0,0-127.5-258.7-132.7-359.5
					C950,733.4,1087.9,756.3,1087.9,756.3z"/>
				<path d="M1083.8,1195.7c-5.2-10.6-128-260.7-133.2-361.3c-1.3-25.7,6.2-46,22.3-60.4c38.6-34.5,112.6-22.7,115.7-22.2
					c2,0.3,3.6,2,3.8,4c0.1,1,11.7,102.1,59.5,205c43.9,94.4,128.2,209.8,280.8,223.3c2.4,0.2,4.2,2.3,4.1,4.7
					c-0.1,2.4-2.1,4.3-4.5,4.4l-344.5,4.9c0,0,0,0-0.1,0C1086.2,1198.2,1084.6,1197.2,1083.8,1195.7z M1143.6,964.5
					c-43.3-93.4-57.2-185.2-59.8-204.1c-14.6-1.8-73.8-7.3-104.8,20.4c-14,12.5-20.5,30.4-19.3,53.2c4.8,93.3,117.7,327.9,131,355.1
					l291.4-4.1C1280.9,1159.4,1199.1,1084.1,1143.6,964.5z"/>
			</g>
			<path class="st1" d="M661.2,498.4c58.2-13.7,82.4-13.9,293.8-6.2c51.7,1.9,113.1,66.8,119.2,118.2
				c-16.4,49.3-92.2,292.8,40.1,483c18.8,27,44.3,56.6,79.3,85c-19.7,15.9-50.3,36.7-91.4,48.9c-68.2,20.3-102.5-1.6-157.5,0
				c-145.4,4.3-198.7,166.5-292.6,146.1c-25.1-5.4-58.3-25-89.5-90.7c-17.7-54.5-33.4-118.4-42.1-190.7
				c-23.7-195.9,15.1-359.1,49.8-461.5C580.7,598.1,592.7,514.5,661.2,498.4z"/>
			<path class="st1" d="M1127.3,801.8c0,0-34.2-274.4-132.7-297.9l22.6,361L1127.3,801.8z"/>
			<g>
				<g>
					<path class="st0" d="M626.6,728.5c-45,19.1-97.9,41.5-144.4,61.6c0,0.6,0,1.2,0,1.7l144.4-62.3L626.6,728.5z"/>
					<path d="M482.1,796.4c0.6,0,1.2-0.1,1.8-0.4l144.4-62.3c1.6-0.7,2.7-2.2,2.7-4l0-1c0.1-1.6-0.7-3.1-1.9-4
						c-1.3-0.9-2.9-1.1-4.4-0.5c-55,23.3-104.9,44.6-144.4,61.6c-1.6,0.7-2.7,2.3-2.8,4.1l0,1.8c0,1.5,0.7,3,2,3.9
						C480.3,796.1,481.2,796.4,482.1,796.4z"/>
				</g>
			</g>
			<path class="st1" d="M456.9,852.1c0,0,9.6-163,23.7-226c29.6-132.5,201.1-133.9,201.1-133.9l-30,337.3L456.9,852.1z"/>
			<g>
				<g>
					<path class="st0" d="M829.5,469.7l5.8-82.5c3.9-0.3,6.7-0.4,7.5-0.5c23-0.3,30.4-7.7,32.4-26.6c1.2-11.8,1.7-29.4-4.1-51.3
						c-0.6-2.3-0.5-4.8,0.5-7.1l3.9-9.2c0.8-3-0.2-6.3-2.6-8.3l-2.1-1.7c-7.5-6.2-13.7-13.7-18.7-22.1c-4.6-7.7-12.4-22.2-17.8-24.8
						c-15.1-7.2-76.4-39.3-110.6,16.8c-26.7,43.7,16.9,103.9,32.8,123.6c3.8,4.8-25.9,98.2-25.9,98.2l-38.4,9.3
						c0,0,29.6,52.7,119.7,30.9c64.1-15.5,53.9-39.4,53.9-39.4L829.5,469.7z"/>
					<path d="M688.1,485.8c-0.7-1.2-0.8-2.7-0.2-4c0.6-1.3,1.7-2.3,3.1-2.6l35.9-8.7c12.8-40.3,25.3-84.5,25.3-92.3
						c-19.4-24.3-59.6-83.6-32.5-128c23.4-38.3,62-44.8,114.8-19.3l1.6,0.8c5.5,2.6,11,11.6,17.7,23l2.1,3.5
						c4.9,8.3,10.9,15.3,17.7,20.9l2.1,1.7c3.8,3.1,5.4,8.2,4.2,13c-0.1,0.2-0.1,0.4-0.2,0.6l-3.9,9.2c-0.5,1.3-0.6,2.7-0.3,4.1
						c4.7,17.9,6.1,35.2,4.2,53c-2.3,22.1-12.3,30.4-36.9,30.7c-0.5,0-1.6,0.1-3.3,0.2l-5.2,74.3l32.1,4.7c1.6,0.2,2.9,1.3,3.5,2.7
						c0.3,0.7,2.7,6.8-1.4,15c-6.5,13-25.2,23.3-55.6,30.6c-16,3.9-30.1,5.5-42.6,5.5C710.7,524.3,689.2,487.7,688.1,485.8z
						 M828.8,474.2c-2.4-0.3-4-2.4-3.9-4.8l5.8-82.5c0.2-2.3,2-4.1,4.2-4.2c4.1-0.3,6.9-0.5,7.7-0.5c21.9-0.3,26.3-7.2,27.9-22.5
						c1.7-16.6,0.4-32.9-4-49.7c-0.9-3.4-0.6-6.9,0.7-10l3.8-8.9c0.2-1.2-0.2-2.5-1.2-3.3l-2.1-1.7c-7.6-6.3-14.3-14.1-19.7-23.3
						l-2.1-3.6c-3.4-5.8-10.4-17.8-13.7-19.4l-1.6-0.8c-17.8-8.6-72.1-34.9-103.1,15.8c-24.4,40,14.5,96.1,32.4,118.4
						c1.7,2.2,5.4,6.7-25.1,102.4c-0.5,1.5-1.7,2.7-3.3,3l-31.8,7.7c10.1,12.1,42.2,40.3,110.9,23.7c35.8-8.7,46.3-19.7,49.4-25.5
						c1.2-2.3,1.6-4.1,1.6-5.5L828.8,474.2z"/>
				</g>
				<path d="M742.5,181.2c16.6-3.6,35.7-1,43.7-4c13-4.8,13.4-20.4,31.3-24.7c21.8-5.3,30.8,4,39.4,17c1.4,2.2,2.7,4.6,3.7,7.3
					c13.7,36.7-3.6,54.6-11.3,60.5c0,0-49,25.3-57.3,32.6c-7.8,6.8-16.9,22.8-11.2,45.8c0.7,3-0.6,6.1-3.1,7.6
					c-2.9,1.8-6.8,0.9-8.8-2c-6.4-9.2-20.3-27.1-30.2-22.9c-12.4,5.3-8.6,42.6,18.9,46.9c8.4,1.3,15.3,10,14.4,18.8
					c-0.5,5.8-6,12.7-14,14.6c-4.9,1.1-9.8-0.9-14.1-3.6c-17.9-11.4-68.4-60-74.7-103.5C661.7,219.1,720.4,185.9,742.5,181.2z"/>
				<path d="M841.4,391c2.4,0,4.4-1.9,4.5-4.4c0.1-2.5-1.9-4.6-4.4-4.7c-0.2,0-17.7-0.8-29.7-11c-1.9-1.6-4.8-1.4-6.4,0.5
					c-1.6,1.9-1.4,4.8,0.5,6.4c14.4,12.3,34.4,13.1,35.2,13.2C841.3,390.9,841.4,391,841.4,391z"/>
			</g>
		</g>
		<g>
			<g>
				<path class="st0" d="M1234.1,2045.5c8.4-8.5,56.8-159.3,56.8-159.3l95.7,68.3l-104.9,141.1L1234.1,2045.5z"/>
				<path d="M1278.3,2098.8l-47.6-50.2c-1.6-1.7-1.5-4.5,0-6.3c6-7,37.4-100.3,55.7-157.5c0.4-1.4,1.5-2.5,2.9-2.9
					c1.4-0.5,2.9-0.2,4.1,0.6l95.7,68.3c1,0.7,1.7,1.8,1.9,3c0.2,1.2-0.1,2.4-0.8,3.4l-104.9,141.1c-0.8,1.1-2,1.7-3.4,1.8
					c-0.1,0-0.2,0-0.3,0C1280.4,2100.3,1279.2,2099.7,1278.3,2098.8z M1293.3,1893.6c-10.4,32.2-42.2,129.6-53.5,151.3l41.5,43.8
					l98.9-133.1L1293.3,1893.6z"/>
			</g>
			<g>
				<path class="st2" d="M1406.5,2236.2l-63.6-0.4c-42.1-0.2-81.2-21.7-104.2-57l-62.9-99.7c-17.4-27.6-7.7-64.1,21.1-79.4
					c26.3-14,53.8-27.6,60.2-27c13.1,1.2,18.4,63.2,18.4,63.2l56.7,2.2c0,0,28,116.6,52.6,129.8c18,9.7,30.5,23.8,38.9,36.8
					C1432.5,2218.3,1422.6,2236.3,1406.5,2236.2z"/>
				<path class="st0" d="M1400.1,2215.8c2.2,0,4.2-1.6,4.5-3.9c0.4-2.5-1.3-4.8-3.8-5.2l-87-13.1c-18.2-2.8-34.1-13.4-43.6-29.3
					l-76.9-128.6c-1.3-2.2-4.1-2.9-6.2-1.6c-2.2,1.3-2.9,4.1-1.6,6.2l76.9,128.6c10.9,18.2,29.1,30.4,50.1,33.6l87,13.1
					C1399.6,2215.8,1399.9,2215.8,1400.1,2215.8z"/>
				<path class="st0" d="M1292.7,2119.1c0.4,0,0.8-0.1,1.2-0.2l48.5-13.2c2.4-0.7,3.9-3.2,3.2-5.6c-0.7-2.4-3.2-3.9-5.6-3.2
					l-48.5,13.2c-2.4,0.7-3.9,3.2-3.2,5.6C1288.8,2117.8,1290.7,2119.1,1292.7,2119.1z"/>
				<path class="st0" d="M1317.9,2144c0.4,0,0.7,0,1.1-0.1l32.5-8c2.4-0.6,3.9-3.1,3.3-5.5c-0.6-2.4-3.1-3.9-5.5-3.3l-32.5,8
					c-2.4,0.6-3.9,3.1-3.3,5.5C1314,2142.7,1315.9,2144,1317.9,2144z"/>
			</g>
			<g>
				<polygon class="st0" points="1560.5,2016.7 1671.6,2128.5 1730.5,2106.8 1628.1,1963.9 				"/>
				<path d="M1668.3,2131.7l-111.1-111.7c-0.9-0.9-1.4-2.2-1.3-3.5c0.1-1.3,0.7-2.5,1.7-3.3l67.6-52.9c1-0.8,2.2-1.1,3.5-0.9
					c1.2,0.2,2.3,0.8,3.1,1.9l102.4,142.9c0.8,1.2,1.1,2.6,0.6,4c-0.4,1.4-1.4,2.4-2.8,2.9l-58.9,21.6c-0.5,0.2-1,0.3-1.6,0.3
					C1670.4,2133,1669.2,2132.5,1668.3,2131.7z M1627.1,1970.4l-59.8,46.8l105.4,106l50.5-18.6L1627.1,1970.4z"/>
			</g>
			<g>
				<path class="st0" d="M972.6,1191.9c0,0,507.6-62.3,658.6,75.5c150.9,137.8-238.3,730.1-238.3,730.1l-123.1-96.2l116.8-418.7
					l-469.2-140.5L972.6,1191.9z"/>
				<path d="M1390.1,2001.1l-123.1-96.2c-1.5-1.1-2.1-3-1.6-4.8l115.6-414.4l-465-139.2c-1.2-0.4-2.2-1.2-2.8-2.3
					c-0.6-1.1-0.6-2.4-0.2-3.6l55.3-150.2c0.6-1.6,2-2.7,3.7-2.9c20.8-2.6,511.4-61,662.2,76.6c152.1,138.8-221.6,711.7-237.5,736
					c-0.7,1.1-1.8,1.8-3.1,2c-0.2,0-0.5,0.1-0.7,0.1C1391.9,2002.1,1390.9,2001.7,1390.1,2001.1z M975.9,1196.1l-52.6,143
					l464.6,139.1c2.4,0.7,3.7,3.2,3.1,5.6L1275,1899.6l116.8,91.3c34.2-53,376.2-592.5,236.3-720.1c-78-71.2-254.9-88.1-405.2-88.1
					C1099.5,1182.7,994.1,1194,975.9,1196.1z"/>
			</g>
			<g>
				<path class="st0" d="M693.2,1464.6c73.7,24.7,205.7,56.6,390.1,53.9c52.4-0.8,100.8,29.8,124.6,79
					c54.6,112.9,172.8,316.3,365.4,448l92-52.2l-234.7-557.1c-21.4-50.9-61.5-90.4-111.1-109.6l-465.2-179.9
					c0,0-144.3-42.5-215,93.3c-12.6,24.2-36.1-19.1-41.7,0.5C578.4,1307.6,629.9,1443.4,693.2,1464.6z"/>
				<path d="M1570.7,2049.3c-194.3-132.9-313.3-338.9-366.9-449.8c-22.9-47.3-68.2-76.4-118.5-76.4c-0.6,0-1.3,0-1.9,0
					c-182.1,2.6-313.4-28-391.6-54.2l1.4-4.3l-1.4,4.3c-66.1-22.1-118.1-161.4-98.6-229.6c1.2-4.2,3.3-6.9,6.4-8
					c5.3-2,10.8,1.7,16.7,5.6c4.9,3.3,10.4,7,14.1,6c1.7-0.4,3.4-2.1,4.9-5c71.6-137.5,218.8-96,220.7-95.4l465.2,179.8
					c50.4,19.5,91.8,60.3,113.6,112l234.7,557.1c0.9,2.1,0.1,4.6-1.9,5.7l-92,52.2c-0.7,0.4-1.5,0.6-2.2,0.6
					C1572.4,2050.1,1571.5,2049.8,1570.7,2049.3z M1426.3,1438c-20.8-49.4-60.4-88.5-108.5-107.1l-464.9-179.7
					c-5.7-1.7-141.5-39.8-209.7,91c-2.7,5.3-6.3,8.5-10.7,9.6c-7.6,1.9-14.9-3-21.4-7.3c-2.7-1.8-7.1-4.9-8.3-4.7c0,0-0.4,0.4-0.9,2
					c-18.1,63.5,31.6,198,92.7,218.5c77.5,25.9,207.8,56.3,388.6,53.7c53.9-0.7,104.4,31.2,128.7,81.5
					c53,109.7,170.4,312.8,361.5,444.7l86-48.8L1426.3,1438z"/>
			</g>
			<g>
				<path class="st2" d="M1636.5,2111c0,0-5.4,47.5,3.7,89.5c4.9,22.4,25,38.1,47.9,38.1h272.6c19.5,0,28.3-24.3,13.4-36.9
					c-48.5-40.7-137.6-102.7-247.3-121l-30.6,42.8L1636.5,2111z"/>
				<path class="st0" d="M1665.2,2205.7h282.5c2.5,0,4.6-2,4.6-4.6c0-2.5-2-4.6-4.6-4.6h-282.5c-2.5,0-4.6,2-4.6,4.6
					C1660.7,2203.6,1662.7,2205.7,1665.2,2205.7z"/>
				<path class="st0" d="M1790.1,2155.4c1.8,0,3.5-1.1,4.2-2.8l15-36.3c1-2.3-0.2-5-2.5-5.9c-2.3-1-5,0.1-5.9,2.5l-15,36.3
					c-1,2.3,0.2,5,2.5,5.9C1788.9,2155.3,1789.5,2155.4,1790.1,2155.4z"/>
				<path class="st0" d="M1839.3,2165c1.9,0,3.7-1.2,4.3-3.1l10.8-32.8c0.8-2.4-0.5-5-2.9-5.8c-2.4-0.8-5,0.5-5.8,2.9l-10.8,32.8
					c-0.8,2.4,0.5,5,2.9,5.8C1838.3,2164.9,1838.8,2165,1839.3,2165z"/>
			</g>
		</g>
	</g>
</g>
<g>
	<g>
		<path class="st0" d="M991,1204.2l-2.2,4.2l-2.3,4.2l-10.7,19.9c-281-10.6-441.8-130.9-505.6-378.3L598,825.9
			c45,158.5,166.4,272.4,361,339.1c1.5,0.5,3,1,4.6,1.6c1.6,0.5,3.1,1.1,4.7,1.6c1.3-1.3,2.7-2.5,4.2-3.4c-1.8-0.6-3.6-1.2-5.3-1.8
			c-1.7-0.6-3.3-1.1-5-1.7c-186.9-63.8-315.4-174.5-361-340.8l-136.6,30.4c62.1,247.1,217.5,375.9,513.8,386.3l12.6-23.6l2.2-4.1
			l2.2-4C994,1205,992.5,1204.6,991,1204.2z"/>
		<path d="M999,1207.1c-1.1-0.6-2.3-1.1-3.6-1.6c-1.4-0.5-2.9-1-4.4-1.3l-2.2,4.2l-2.3,4.2l-10.7,19.9
			c-281-10.6-441.8-130.9-505.6-378.3L598,825.9c45,158.5,166.4,272.4,361,339.1c1.5,0.5,3,1,4.6,1.6c1.6,0.5,3.1,1.1,4.7,1.6
			c1.3-1.3,2.7-2.5,4.2-3.4c1.2-0.7,2.4-1.3,3.7-1.8c0.8-0.3,1.7-0.6,2.6-1c-2.2-0.7-4.5-1.5-6.7-2.2c-1.9-0.6-3.8-1.3-5.7-1.9
			C770.5,1091.8,649.2,978,605.6,819.3c-0.6-2.3-3-3.8-5.4-3.2l-136.6,30.4c-1.2,0.3-2.2,1-2.9,2.1c-0.6,1-0.8,2.3-0.5,3.5
			c64.3,255.8,228.9,379.6,518.1,389.8c0.1,0,0.1,0,0.2,0c1.7,0,3.2-0.9,4-2.4l12.8-23.9l2.1-4l2.1-4
			C999.4,1207.4,999.2,1207.3,999,1207.1z"/>
	</g>
	<g>
		<path class="st0" d="M1083.5,1132.7c-11.3-3.7-26.8-16.1-37.7-10.8l-58,30.8c-4.2,2.2-8.6,4.3-13,5.9c-0.9,0.3-1.8,0.7-2.6,1.1
			c-1.8,0.9-3.4,1.9-4.9,3.2c-1.3,1.1-2.5,2.3-3.6,3.6c1.6,0.5,3.1,1.1,4.7,1.6c1.3-1.3,2.7-2.5,4.2-3.4c1.2-0.7,2.4-1.3,3.7-1.8
			c0.8-0.3,1.7-0.6,2.6-1c3.4-1.3,6.9-3,11.1-5.2l58-30.8c5.5-2.7,14.5,1.9,22.5,5.9c4.1,2.1,7.9,4,11.6,5.2
			c62.5,20.5,99.1,42.3,95.7,56.9c-0.8,3.4-2.8,6-6.2,8.1c-12,7.3-40.6,6.2-76.7-2.8c-0.5-0.1-1.1-0.2-1.8-0.2
			c-3.6,0-10.3,1.8-27.4,6.9c-13.6,4-28.9,8.6-35.7,9.1c-15,1.1-19.9-1.7-26.6-5.5c-1.2-0.7-2.4-1.4-3.8-2.1
			c-0.2-0.1-0.4-0.2-0.6-0.3c-1.1-0.6-2.3-1.1-3.6-1.6c-1.4-0.5-2.9-1-4.4-1.3l-2.2,4.2c1.6,0.3,3.1,0.7,4.5,1.2
			c1.2,0.4,2.4,1,3.6,1.6c0.2,0.1,0.4,0.2,0.5,0.3c9.1,4.9,13.8,9.6,32.9,8.2c14.1-1.1,58.6-17.2,63.5-16c21.5,5.4,82.1,18,88.4-8.7
			C1188,1170.3,1117.5,1143.9,1083.5,1132.7z"/>
		<path class="st0" d="M1177.8,1194c-0.8,3.4-2.8,6-6.2,8.1c-12,7.3-40.6,6.2-76.7-2.8c-0.5-0.1-1.1-0.2-1.8-0.2
			c-3.6,0-10.3,1.8-27.4,6.9c-13.6,4-28.9,8.6-35.7,9.1c-15,1.1-19.9-1.7-26.6-5.5c-1.2-0.7-2.4-1.4-3.8-2.1
			c-0.2-0.1-0.4-0.2-0.6-0.3c-1.1-0.6-2.3-1.1-3.6-1.6c-1.4-0.5-2.9-1-4.4-1.3l-2.2,4.2l-2.3,4.2l-10.7,19.9
			c-281-10.6-441.8-130.9-505.6-378.3L598,825.9c45,158.5,166.4,272.4,361,339.1c1.5,0.5,3,1,4.6,1.6c1.6,0.5,3.1,1.1,4.7,1.6
			c1.3-1.3,2.7-2.5,4.2-3.4c1.2-0.7,2.4-1.3,3.7-1.8c0.8-0.3,1.7-0.6,2.6-1c3.4-1.3,6.9-3,11.1-5.2l58-30.8
			c5.5-2.7,14.5,1.9,22.5,5.9c4.1,2.1,7.9,4,11.6,5.2C1144.5,1157.6,1181.2,1179.4,1177.8,1194z"/>
		<path d="M1084.9,1128.4c-3-1-6.6-2.8-10.4-4.7c-9.9-5-21.1-10.6-30.7-5.9l-58.2,30.9c-4.8,2.6-8.8,4.4-12.4,5.7
			c-2.4,0.9-4.7,2-6.8,3.5c-1.5,1-2.8,2.1-4.1,3.4c-1.2,1.1-2.2,2.4-3.2,3.7c1.5,0.5,3,1,4.6,1.6c1.6,0.5,3.1,1.1,4.7,1.6
			c1.3-1.3,2.7-2.5,4.2-3.4c1.2-0.7,2.4-1.3,3.7-1.8c0.8-0.3,1.7-0.6,2.6-1c3.4-1.3,6.9-3,11.1-5.2l58-30.8
			c5.5-2.7,14.5,1.9,22.5,5.9c4.1,2.1,7.9,4,11.6,5.2c62.5,20.5,99.1,42.3,95.7,56.9c-0.8,3.4-2.8,6-6.2,8.1
			c-12,7.3-40.6,6.2-76.7-2.8c-0.5-0.1-1.1-0.2-1.8-0.2c-3.6,0-10.3,1.8-27.4,6.9c-13.6,4-28.9,8.6-35.7,9.1
			c-15,1.1-19.9-1.7-26.6-5.5c-1.2-0.7-2.4-1.4-3.8-2.1c-0.2-0.1-0.4-0.2-0.6-0.3c-1.1-0.6-2.3-1.1-3.6-1.6c-1.4-0.5-2.9-1-4.4-1.3
			l-2.2,4.2l-2.3,4.2c1.6,0.2,3.2,0.6,4.6,1c1.3,0.4,2.5,0.9,3.7,1.5c0.2,0.1,0.4,0.2,0.5,0.3c1.2,0.7,2.4,1.3,3.6,2
			c6.2,3.6,12.2,7,25.1,7c2.1,0,4.3-0.1,6.7-0.3c7.8-0.6,22.9-5.1,37.6-9.5c9.9-2.9,22.4-6.7,24.9-6.6c22.5,5.7,63.8,13.5,83.2,1.6
			c5.5-3.3,8.9-8,10.3-13.8C1192.8,1169.8,1134.7,1144.8,1084.9,1128.4z"/>
	</g>
</g>
<g>
	<path class="st0" d="M1876,1252.9H807.6c-19.9,0-35.4,27.9-33.1,59.8l73.8,1044.4h53.3l-46.2-980.2c-0.8-17.3,7.7-32,18.4-32h917.1
		c16.1,0,28.8,22,27.5,47.9l-45.7,970.4h53.3l75-1065.2C1902.7,1273.9,1891,1252.9,1876,1252.9z"/>
	<path d="M1771.1,2366.2c-0.4-1-0.6-2.2-0.5-3.5l45.7-970.4c0.4-8.9-1-17.5-4.2-24.9c-4.8-11.2-12.7-17.9-21.2-17.9H873.8
		c-5.5,0-10.6,4.3-13.7,11.5c-1.4,3.2-2.9,8.6-2.6,15.5l46.2,980.2c0.1,1.3-0.1,2.6-0.5,3.5c-0.4,1-1,1.5-1.6,1.5h-53.3
		c-1.1,0-2-1.6-2.1-3.9l-73.8-1044.4c-1-13.7,1-27.6,5.6-39c6.6-16.3,17.6-26.1,29.6-26.1H1876c9.2,0,17.6,7.5,22.7,20.1
		c3.6,8.9,5.1,19.6,4.4,30.3l-75,1065.2c-0.2,2.2-1.1,3.9-2.1,3.9h-53.3C1772.1,2367.7,1771.5,2367.2,1771.1,2366.2z M1898.9,1297.3
		c0.6-8.1-0.6-16.1-3.4-23c-4.3-10.6-11.6-16.9-19.5-16.9H807.6c-10.7,0-20.6,8.6-26.4,22.9c-3.8,9.5-5.5,20.5-4.7,31.7l73.5,1040.5
		h49.1l-45.9-975.2c-0.4-8,0.9-16,3.7-22.5c3.8-9.1,10.1-14.5,16.8-14.5h917.1c9.7,0,18.8,7.8,24.4,20.9c3.9,9.3,5.8,20.6,5.3,32
		l-45.5,965.4h49.1L1898.9,1297.3z"/>
</g>
<g>
	<g>
		<g>
			<path class="st0" d="M1235.3,1219.5l122.5-361c7.3-11.3,20.1-18.2,33.9-18.2h326.5c14.8,0,24.4,14.4,19.5,27.1
				c-1.9,5.1-4,10-5.7,15.2l-110.7,337.6h0c-0.4,19.7-16.4,35.6-36.2,35.6H982.6c-20,0-36.2-16.2-36.2-36.3H1235.3z"/>
			<path d="M941.8,1219.5c0-2.5,2-4.6,4.6-4.6h285.8L1353.5,857c0.1-0.4,0.3-0.7,0.5-1c8.2-12.7,22.3-20.3,37.7-20.3h326.5
				c8.6,0,16.2,4,21,10.9c4.6,6.6,5.6,15,2.8,22.4l-1.7,4.3c-1.4,3.5-2.8,7.1-3.9,10.7L1625.9,1221c-0.8,21.7-18.9,39.3-40.7,39.3
				H982.6C960.1,1260.3,941.8,1242,941.8,1219.5z M1727.8,881.1c1.2-3.8,2.7-7.5,4.1-11.1l1.6-4.2c1.7-4.6,1.1-9.8-1.8-14
				c-3-4.4-8-6.9-13.5-6.9h-326.5c-12.1,0-23.2,5.8-29.8,15.6l-122.3,360.5c-0.6,1.8-2.4,3.1-4.3,3.1H951.2
				c2.2,15.4,15.4,27.2,31.4,27.2h602.6c17.2,0,31.4-14,31.7-31.2c0-0.7,0.2-1.3,0.4-1.9L1727.8,881.1z"/>
		</g>
		<path class="st1" d="M1478.1,1025.3c-4.6,15.3,2.4,30.9,15.7,35c13.3,4,27.8-5.1,32.4-20.4c4.6-15.3-2.4-30.9-15.7-35
			C1497.2,1000.9,1482.7,1010,1478.1,1025.3z"/>
	</g>
</g>
</svg>
