<svg width="21" height="20" viewBox="0 0 21 20" fill="none" xmlns="http://www.w3.org/2000/svg">
<path d="M21 9.1C21 8.7134 20.6866 8.4 20.3 8.4H18.2V6.3C18.2 5.9134 17.8866 5.6 17.5 5.6C17.1134 5.6 16.8 5.9134 16.8 6.3V8.4H14.7C14.3134 8.4 14 8.7134 14 9.1C14 9.4866 14.3134 9.8 14.7 9.8H16.8V11.9C16.8 12.2866 17.1134 12.6 17.5 12.6C17.8866 12.6 18.2 12.2866 18.2 11.9V9.8H20.3C20.6866 9.8 21 9.4866 21 9.1ZM7 1.4C7.69223 1.4 8.36892 1.60527 8.9445 1.98986C9.52007 2.37444 9.96867 2.92107 10.2336 3.56061C10.4985 4.20015 10.5678 4.90388 10.4327 5.58282C10.2977 6.26175 9.96436 6.88539 9.47487 7.37487C8.98539 7.86436 8.36175 8.1977 7.68282 8.33275C7.00388 8.4678 6.30015 8.39849 5.66061 8.13358C5.02107 7.86867 4.47444 7.42007 4.08986 6.8445C3.70527 6.26892 3.5 5.59223 3.5 4.9C3.5 3.97174 3.86875 3.0815 4.52513 2.42513C5.1815 1.76875 6.07174 1.4 7 1.4ZM7 0C6.03087 0 5.08351 0.28738 4.27771 0.825799C3.47191 1.36422 2.84386 2.12949 2.47299 3.02485C2.10212 3.92021 2.00508 4.90544 2.19415 5.85594C2.38322 6.80645 2.8499 7.67955 3.53518 8.36482C4.22045 9.0501 5.09355 9.51678 6.04406 9.70585C6.99456 9.89491 7.97979 9.79788 8.87515 9.42701C9.77051 9.05614 10.5358 8.42809 11.0742 7.62229C11.6126 6.81649 11.9 5.86913 11.9 4.9C11.9 3.60044 11.3838 2.3541 10.4648 1.43518C9.54589 0.516248 8.29956 0 7 0ZM14 18.9C14 19.2866 13.6866 19.6 13.3 19.6C12.9134 19.6 12.6 19.2866 12.6 18.9V16.1C12.6 15.1717 12.2313 14.2815 11.5749 13.6251C10.9185 12.9687 10.0283 12.6 9.1 12.6H4.9C3.97174 12.6 3.0815 12.9687 2.42513 13.6251C1.76875 14.2815 1.4 15.1717 1.4 16.1V18.9C1.4 19.2866 1.0866 19.6 0.7 19.6C0.313401 19.6 0 19.2866 0 18.9V16.1C0 14.8004 0.516248 13.5541 1.43518 12.6352C2.3541 11.7162 3.60044 11.2 4.9 11.2H9.1C10.3996 11.2 11.6459 11.7162 12.5648 12.6352C13.4838 13.5541 14 14.8004 14 16.1V18.9Z" fill="white"/>
</svg>
